<svg id="App_Screen" data-name="App Screen" xmlns="http://www.w3.org/2000/svg" xmlns:xlink="http://www.w3.org/1999/xlink" viewBox="0 0 272.73 390.48"><defs><linearGradient id="linear-gradient" x1="21.82" y1="208.19" x2="222.56" y2="208.19" gradientUnits="userSpaceOnUse"><stop offset="0" stop-color="#7a33a6"/><stop offset="1" stop-color="#4733a6"/></linearGradient><linearGradient id="linear-gradient-2" x1="27.08" y1="197.28" x2="227.82" y2="197.28" xlink:href="#linear-gradient"/><linearGradient id="linear-gradient-3" x1="81.52" y1="190.01" x2="282.27" y2="190.01" xlink:href="#linear-gradient"/><linearGradient id="linear-gradient-4" x1="-6.85" y1="179.1" x2="193.89" y2="179.1" xlink:href="#linear-gradient"/><linearGradient id="linear-gradient-5" x1="48.86" y1="173.64" x2="249.6" y2="173.64" xlink:href="#linear-gradient"/><linearGradient id="linear-gradient-6" x1="31.14" y1="327.73" x2="72.02" y2="327.73" xlink:href="#linear-gradient"/><linearGradient id="linear-gradient-7" x1="87.66" y1="327.73" x2="128.54" y2="327.73" xlink:href="#linear-gradient"/><linearGradient id="linear-gradient-8" x1="144.19" y1="327.73" x2="185.06" y2="327.73" xlink:href="#linear-gradient"/><linearGradient id="linear-gradient-9" x1="200.71" y1="327.73" x2="241.59" y2="327.73" xlink:href="#linear-gradient"/><style>.cls-2{fill:#fff}.cls-4{fill:#aeaeb3}</style></defs><path d="M12.62 396.05V49.55c0-24.29 17.91-44 40-44h192.72c22.1 0 40 19.69 40 44v346.5" transform="translate(-12.62 -5.57)" fill="#0f0f1e"/><path class="cls-2" d="M39.77 35.98H24.6l4.61 4.62-1.02 1.02-6.37-6.36 6.37-6.37 1.02 1.03-4.61 4.61h15.17v1.45z"/><rect x="224.03" y="21.82" width="26.88" height="26.88" rx="5" fill="#151524"/><path class="cls-2" d="M42.88 96.21a2 2 0 00-.87-.85 2.81 2.81 0 00-1.33-.3 2.74 2.74 0 00-2.13.87 3.3 3.3 0 00-.8 2.33 3.37 3.37 0 00.84 2.43 3.06 3.06 0 002.31.87 2.79 2.79 0 001.7-.51 2.91 2.91 0 001-1.48h-3.45v-2h6v2.54a5.38 5.38 0 01-2.88 3.33 5.76 5.76 0 01-2.53.54 6 6 0 01-3-.72 5.21 5.21 0 01-2-2 6 6 0 01-.73-3 6.05 6.05 0 01.73-3 5.21 5.21 0 012-2 6 6 0 013-.73 5.73 5.73 0 013.39 1 4.59 4.59 0 011.84 2.7zm5.19.79a3.83 3.83 0 011.42-1.6 3.66 3.66 0 012-.56 3.53 3.53 0 011.66.38 2.81 2.81 0 011.09 1V95H57v8.92h-2.76v-1.26a2.94 2.94 0 01-1.11 1 3.49 3.49 0 01-1.65.38 3.64 3.64 0 01-2-.57 3.86 3.86 0 01-1.42-1.61 5.5 5.5 0 01-.51-2.43 5.41 5.41 0 01.52-2.43zm5.61.81a1.88 1.88 0 00-1.39-.59 1.86 1.86 0 00-1.38.59 2.19 2.19 0 00-.57 1.6 2.26 2.26 0 00.57 1.63 1.83 1.83 0 001.38.6 1.88 1.88 0 001.39-.59 2.62 2.62 0 000-3.24zm7.32 5.81a3.63 3.63 0 01-1.44-1.09A3 3 0 0159 101h2.71a1 1 0 00.43.75 1.52 1.52 0 00.86.25 1.35 1.35 0 00.79-.2.62.62 0 00.28-.52.59.59 0 00-.4-.57 7.94 7.94 0 00-1.29-.41 13.38 13.38 0 01-1.6-.47 2.8 2.8 0 01-1.11-.79 2.11 2.11 0 01-.46-1.44 2.45 2.45 0 01.42-1.4 2.8 2.8 0 011.25-1 4.73 4.73 0 012-.37 4 4 0 012.65.83 3.18 3.18 0 011.11 2.21h-2.53a1.07 1.07 0 00-.4-.74 1.43 1.43 0 00-.91-.27 1.25 1.25 0 00-.73.18.6.6 0 00-.26.51.61.61 0 00.41.57 6.3 6.3 0 001.27.39 15.5 15.5 0 011.62.5 2.8 2.8 0 011.09.8 2.23 2.23 0 01.49 1.48 2.38 2.38 0 01-.44 1.4 2.85 2.85 0 01-1.26 1 5 5 0 01-1.92.35 5.11 5.11 0 01-2.07-.42zm12.83-2.05v2.32h-1.39a3.46 3.46 0 01-2.33-.72 3 3 0 01-.83-2.38v-3.55h-1.09V95h1.09v-2.21H72V95h1.79v2.27H72v3.58a.75.75 0 00.19.58.93.93 0 00.64.17zm3.7 1.89a4 4 0 01-1.65-1.6 4.76 4.76 0 01-.6-2.43 4.65 4.65 0 01.61-2.43 4.14 4.14 0 011.66-1.61 4.94 4.94 0 012.37-.56 4.88 4.88 0 012.37.56A4.08 4.08 0 0184 97a5.11 5.11 0 010 4.84 4.13 4.13 0 01-1.68 1.61 5 5 0 01-2.38.56 4.87 4.87 0 01-2.41-.55zm3.7-2.38a2.77 2.77 0 000-3.3 1.73 1.73 0 00-1.32-.57 1.78 1.78 0 00-1.33.56 2.89 2.89 0 000 3.31 1.68 1.68 0 001.3.57 1.81 1.81 0 001.35-.57zm6.82 2.54a3.49 3.49 0 01-1.44-1.09A2.91 2.91 0 0186 101h2.7a1 1 0 00.43.75 1.58 1.58 0 00.95.29 1.38 1.38 0 00.79-.2.62.62 0 00.28-.52.59.59 0 00-.4-.57 8.5 8.5 0 00-1.3-.41 13.38 13.38 0 01-1.6-.47 2.84 2.84 0 01-1.1-.79 2.11 2.11 0 01-.46-1.44 2.45 2.45 0 01.42-1.4 2.75 2.75 0 011.25-1 4.7 4.7 0 012-.37 4 4 0 012.65.83 3.26 3.26 0 011.11 2.21h-2.55a1.08 1.08 0 00-.41-.74 1.42 1.42 0 00-.9-.27 1.28 1.28 0 00-.74.18.62.62 0 00.15 1.08 6.67 6.67 0 001.28.39 14.51 14.51 0 011.61.5 2.84 2.84 0 011.1.8 2.29 2.29 0 01.49 1.48 2.38 2.38 0 01-.44 1.4 2.94 2.94 0 01-1.27 1 4.89 4.89 0 01-1.91.35 5.08 5.08 0 01-2.08-.46zM99.75 97a3.83 3.83 0 011.42-1.6 3.66 3.66 0 012-.56 3.47 3.47 0 011.61.37 2.83 2.83 0 011.14 1v-4.16h2.74v11.84h-2.74v-1.28a2.78 2.78 0 01-1.09 1 3.53 3.53 0 01-1.66.38 3.67 3.67 0 01-2-.57 3.86 3.86 0 01-1.42-1.61 5.5 5.5 0 01-.52-2.43 5.41 5.41 0 01.52-2.38zm5.6.81a1.91 1.91 0 00-2.76 0 2.19 2.19 0 00-.57 1.6 2.26 2.26 0 00.57 1.63 1.9 1.9 0 002.76 0 2.59 2.59 0 000-3.24zm14.14 2.28h-6.19a1.88 1.88 0 00.53 1.27 1.68 1.68 0 001.16.44 1.44 1.44 0 001.43-.87h2.91a4 4 0 01-.81 1.59 3.92 3.92 0 01-1.46 1.1 4.66 4.66 0 01-2 .4 4.76 4.76 0 01-2.34-.56 4 4 0 01-1.6-1.6 5.46 5.46 0 010-4.86 3.83 3.83 0 011.59-1.6 4.72 4.72 0 012.35-.56 4.79 4.79 0 012.3.54 3.87 3.87 0 011.64 1.55 4.74 4.74 0 01.57 2.36 7.63 7.63 0 01-.08.8zm-2.75-1.52a1.4 1.4 0 00-.48-1.12 1.76 1.76 0 00-1.2-.42 1.71 1.71 0 00-1.16.4 1.8 1.8 0 00-.59 1.14zm7.45-6.52v11.84h-2.73V92.05zm19.06.61v11.23h-2.74v-6.73l-2.51 6.73h-2.21l-2.52-6.75v6.75h-2.74V92.66h3.23l3.15 7.78 3.09-7.78zm10.82 7.43h-6.2a1.94 1.94 0 00.54 1.27 1.64 1.64 0 001.16.44 1.43 1.43 0 001.42-.87h2.92a4 4 0 01-.81 1.59 4 4 0 01-1.47 1.1 4.61 4.61 0 01-2 .4 4.71 4.71 0 01-2.34-.56 3.91 3.91 0 01-1.6-1.6 5.42 5.42 0 010-4.86 3.89 3.89 0 011.59-1.6 5.21 5.21 0 014.66 0 3.93 3.93 0 011.58 1.55 4.84 4.84 0 01.56 2.36 7.51 7.51 0 01-.01.78zm-2.76-1.52a1.4 1.4 0 00-.48-1.12 1.9 1.9 0 00-2.36 0 1.79 1.79 0 00-.58 1.14zm6.28 5.05a3.49 3.49 0 01-1.44-1.09 2.92 2.92 0 01-.6-1.56h2.71a1 1 0 00.43.75 1.55 1.55 0 00.94.29 1.39 1.39 0 00.8-.2.64.64 0 00.28-.52.61.61 0 00-.4-.57 8.5 8.5 0 00-1.3-.41 13.38 13.38 0 01-1.6-.47 2.7 2.7 0 01-1.1-.79 2.11 2.11 0 01-.47-1.44 2.39 2.39 0 01.43-1.4 2.72 2.72 0 011.24-1 4.73 4.73 0 012-.37 4 4 0 012.65.83 3.18 3.18 0 011.11 2.21h-2.52a1.12 1.12 0 00-.41-.74 1.43 1.43 0 00-.91-.27 1.25 1.25 0 00-.73.18.6.6 0 00-.26.51.61.61 0 00.41.57 6.52 6.52 0 001.27.39 15.5 15.5 0 011.62.5 2.8 2.8 0 011.09.8 2.23 2.23 0 01.49 1.48 2.38 2.38 0 01-.44 1.4 2.85 2.85 0 01-1.26 1 4.93 4.93 0 01-1.91.35 5 5 0 01-2.12-.43zM40.39 293.43a1.86 1.86 0 01-.25 2.52 2.64 2.64 0 01-1.74.53h-3.33v-7.15h3.21a2.6 2.6 0 011.71.5 1.81 1.81 0 01.28 2.4 1.69 1.69 0 01-.88.58 1.63 1.63 0 011 .62zm-3.58-1.21H38a1 1 0 00.65-.19.65.65 0 00.23-.55.67.67 0 00-.23-.56 1 1 0 00-.65-.2h-1.19zm2 2.65a.69.69 0 00.24-.57.75.75 0 00-.25-.59 1 1 0 00-.69-.22h-1.3v1.58h1.28a1.06 1.06 0 00.68-.2zm5.78-3.87a1.93 1.93 0 011-.27v1.85h-.47a1.45 1.45 0 00-1 .28 1.22 1.22 0 00-.33 1v2.64h-1.71v-5.69h1.74v.95a2.36 2.36 0 01.77-.76zm7.48 3.05h-3.94a1.17 1.17 0 00.34.81 1 1 0 00.74.28.9.9 0 00.9-.55H52a2.56 2.56 0 01-.52 1 2.44 2.44 0 01-.93.7 3 3 0 01-1.25.26 3 3 0 01-1.49-.36 2.54 2.54 0 01-1-1 3.07 3.07 0 01-.37-1.55 3.16 3.16 0 01.36-1.54 2.54 2.54 0 011-1 3.28 3.28 0 013 0 2.51 2.51 0 011 1 3 3 0 01.36 1.49 4.36 4.36 0 01-.09.46zm-1.75-1a.89.89 0 00-.31-.71 1.13 1.13 0 00-.76-.26 1.11 1.11 0 00-.74.25 1.14 1.14 0 00-.37.72zm2.99-.96a2.49 2.49 0 01.9-1 2.32 2.32 0 011.27-.36 2.09 2.09 0 011.05.25 1.68 1.68 0 01.7.64v-.81H59v5.69h-1.77v-.81a1.77 1.77 0 01-.71.64 2.09 2.09 0 01-1.05.25 2.31 2.31 0 01-1.26-.36 2.59 2.59 0 01-.9-1 3.47 3.47 0 01-.33-1.55 3.38 3.38 0 01.33-1.58zm3.56.52a1.22 1.22 0 00-1.76 0 1.41 1.41 0 00-.36 1 1.46 1.46 0 00.36 1 1.21 1.21 0 001.76 0 1.64 1.64 0 000-2.05zm7.13 3.87l-1.73-2.39v2.39h-1.73v-7.54h1.74v4.17l1.72-2.32h2.15l-2.36 2.85 2.38 2.84zm3.12-4.39a2.49 2.49 0 01.9-1 2.36 2.36 0 011.28-.36 2.19 2.19 0 011 .24 1.8 1.8 0 01.73.63v-2.64h1.74v7.54h-1.72v-.82a1.83 1.83 0 01-.7.65 2.09 2.09 0 01-1 .25 2.36 2.36 0 01-1.35-.38 2.59 2.59 0 01-.9-1 3.47 3.47 0 01-.33-1.55 3.38 3.38 0 01.35-1.56zm3.57.52a1.23 1.23 0 00-1.77 0 1.41 1.41 0 00-.36 1 1.46 1.46 0 00.36 1 1.22 1.22 0 001.77 0 1.64 1.64 0 000-2.05zm4.75 3.59a2.71 2.71 0 01-1-1 3.07 3.07 0 01-.38-1.55 3 3 0 01.39-1.54 2.6 2.6 0 011.06-1 3.11 3.11 0 011.5-.36 3.15 3.15 0 011.51.36 2.67 2.67 0 011.06 1 3.22 3.22 0 010 3.09 2.63 2.63 0 01-1.07 1 3.33 3.33 0 01-3 0zm2.35-1.52a1.42 1.42 0 00.35-1.05 1.45 1.45 0 00-.34-1 1.07 1.07 0 00-.84-.37 1.09 1.09 0 00-.84.36 1.46 1.46 0 00-.34 1.05 1.5 1.5 0 00.33 1.05 1.06 1.06 0 00.83.37 1.11 1.11 0 00.85-.41zm11.51-3.89l-1.54 5.69h-1.92l-.9-3.69-.94 3.69h-1.9l-1.54-5.69h1.74l.8 4.07 1-4.07h1.8l1 4 .79-4zm6.02.59a2.51 2.51 0 01.6 1.78v3.32h-1.73v-3.09a1.26 1.26 0 00-.3-.89 1.16 1.16 0 00-1.58 0 1.26 1.26 0 00-.3.89v3.09h-1.74v-5.69H92v.76a1.9 1.9 0 01.71-.6 2.37 2.37 0 011-.22 2 2 0 011.61.65z" transform="translate(-12.62 -5.57)"/><path class="cls-4" d="M38 253.44a1.29 1.29 0 01-.5.51 1.71 1.71 0 01-.81.23v.58h-.33v-.59a1.73 1.73 0 01-1-.42 1.29 1.29 0 01-.43-.92h.54a1 1 0 00.27.6 1.09 1.09 0 00.66.32v-2a5.73 5.73 0 01-.78-.27 1.27 1.27 0 01-.5-.4 1.22 1.22 0 01-.2-.73 1.24 1.24 0 01.4-1 1.64 1.64 0 011.08-.4v-.61h.33v.66a1.56 1.56 0 011 .4 1.32 1.32 0 01.43.83h-.54a.93.93 0 00-.26-.5 1.07 1.07 0 00-.59-.29v1.94a4.89 4.89 0 01.77.26 1.19 1.19 0 01.71 1.16 1.34 1.34 0 01-.25.64zm-2.35-2.51a2 2 0 00.71.35v-1.87a1.12 1.12 0 00-.7.25.87.87 0 00-.26.66.74.74 0 00.24.61zm1.76 2.54a1 1 0 00.25-.66.76.76 0 00-.25-.62 2.19 2.19 0 00-.72-.36v1.94a1.06 1.06 0 00.71-.3zm1.83-.58v-.38l2.65-3.57h.6v3.51h.78v.44h-.78v1.24H42v-1.24zM42 249.5l-2.18 2.95H42zm2.53.03a1.45 1.45 0 011.38-.69 1.43 1.43 0 011.38.69 4 4 0 01.39 1.94 4.14 4.14 0 01-.39 2 1.73 1.73 0 01-2.76 0 4.14 4.14 0 01-.39-2 4 4 0 01.39-1.94zm2.55.8a1.4 1.4 0 00-.37-.75 1.05 1.05 0 00-.8-.28 1.07 1.07 0 00-.8.28 1.48 1.48 0 00-.37.75 6.12 6.12 0 00-.09 1.14 6.32 6.32 0 00.09 1.17 1.48 1.48 0 00.37.75 1.07 1.07 0 00.8.29 1.06 1.06 0 00.8-.29 1.4 1.4 0 00.37-.75 5.48 5.48 0 00.1-1.17 5.3 5.3 0 00-.1-1.14zm2.15-.8a1.43 1.43 0 011.38-.69 1.45 1.45 0 011.38.69 4 4 0 01.39 1.94 4.14 4.14 0 01-.39 2 1.74 1.74 0 01-2.77 0 4.27 4.27 0 01-.38-2 4 4 0 01.39-1.94zm2.55.8a1.48 1.48 0 00-.37-.75 1.28 1.28 0 00-1.6 0 1.48 1.48 0 00-.37.75 6 6 0 00-.1 1.14 6.21 6.21 0 00.1 1.17 1.48 1.48 0 00.37.75 1.25 1.25 0 001.6 0 1.48 1.48 0 00.37-.75 6.21 6.21 0 00.1-1.17 6 6 0 00-.1-1.14zm1.69 3.73a.39.39 0 01-.1-.27.34.34 0 01.37-.37.37.37 0 01.26.1.41.41 0 01.1.27.45.45 0 01-.1.27.37.37 0 01-.26.1.36.36 0 01-.27-.1zm2-4.53a1.43 1.43 0 011.38-.69 1.45 1.45 0 011.38.69 4 4 0 01.39 1.94 4.14 4.14 0 01-.39 2 1.74 1.74 0 01-2.77 0 4.27 4.27 0 01-.38-2 4 4 0 01.39-1.94zm2.55.8a1.48 1.48 0 00-.37-.75 1.07 1.07 0 00-.8-.28 1.05 1.05 0 00-.8.28 1.4 1.4 0 00-.37.75 5.3 5.3 0 00-.1 1.14 5.48 5.48 0 00.1 1.17 1.4 1.4 0 00.37.75 1.06 1.06 0 00.8.29 1.07 1.07 0 00.8-.29 1.48 1.48 0 00.37-.75 6.32 6.32 0 00.09-1.17 6.12 6.12 0 00-.11-1.14zm2.15-.8a1.43 1.43 0 011.38-.69 1.45 1.45 0 011.38.69 4 4 0 01.38 1.94 4.15 4.15 0 01-.38 2 1.74 1.74 0 01-2.77 0 4.27 4.27 0 01-.38-2 4 4 0 01.39-1.94zm2.55.8a1.56 1.56 0 00-.37-.75 1.07 1.07 0 00-.8-.28 1.05 1.05 0 00-.8.28 1.4 1.4 0 00-.37.75 5.3 5.3 0 00-.1 1.14 5.48 5.48 0 00.1 1.17 1.4 1.4 0 00.37.75 1.06 1.06 0 00.8.29 1.07 1.07 0 00.8-.29 1.56 1.56 0 00.37-.75 6.32 6.32 0 00.09-1.17 6.12 6.12 0 00-.09-1.14zm22.54 3.11a1.29 1.29 0 01-.5.51 1.68 1.68 0 01-.81.23v.58h-.32v-.59a1.75 1.75 0 01-1-.42 1.29 1.29 0 01-.43-.92h.54a1 1 0 00.27.6 1.09 1.09 0 00.67.32v-2a5.47 5.47 0 01-.79-.27 1.18 1.18 0 01-.49-.4 1.15 1.15 0 01-.21-.73 1.24 1.24 0 01.4-1 1.64 1.64 0 011.09-.4v-.61H84v.66a1.56 1.56 0 011 .4 1.32 1.32 0 01.43.83h-.63a.93.93 0 00-.26-.5 1.07 1.07 0 00-.59-.29v1.94a4.89 4.89 0 01.77.26 1.34 1.34 0 01.51.41 1.3 1.3 0 01.2.75 1.34 1.34 0 01-.17.64zm-2.35-2.51a1.93 1.93 0 00.72.35v-1.87a1.13 1.13 0 00-.71.25.87.87 0 00-.26.66.74.74 0 00.25.61zm1.76 2.54a.92.92 0 00.25-.66.76.76 0 00-.25-.62 2.19 2.19 0 00-.72-.36v1.94a1 1 0 00.72-.3zm1.82-4.1v-.46h1.24v5.22h-.52v-4.76zm4.56 2.56a2.38 2.38 0 00.73-1.56 1.23 1.23 0 00-.25-.8 1 1 0 00-.82-.31 1.1 1.1 0 00-.86.35 1.48 1.48 0 00-.33.92H89a1.86 1.86 0 01.5-1.26 1.84 1.84 0 012.33-.05 1.46 1.46 0 01.44 1.13 2.59 2.59 0 01-.73 1.7 11.51 11.51 0 01-1.8 1.61h2.69v.43H89v-.36a15.84 15.84 0 002.05-1.8zm2.79-2.4a1.74 1.74 0 012.77 0 4.12 4.12 0 01.38 1.94 4.27 4.27 0 01-.38 2 1.74 1.74 0 01-2.77 0 5.24 5.24 0 010-3.92zm2.56.8a1.49 1.49 0 00-.38-.75 1.27 1.27 0 00-1.59 0 1.49 1.49 0 00-.38.75 6.12 6.12 0 00-.09 1.14 6.32 6.32 0 00.09 1.17 1.49 1.49 0 00.38.75 1.23 1.23 0 001.59 0 1.49 1.49 0 00.38-.75 6.32 6.32 0 00.09-1.17 6.12 6.12 0 00-.09-1.14zm2.14-.8a1.74 1.74 0 012.77 0 4.12 4.12 0 01.38 1.94 4.27 4.27 0 01-.38 2 1.46 1.46 0 01-1.39.69 1.43 1.43 0 01-1.38-.69 4.15 4.15 0 01-.38-2 4 4 0 01.38-1.94zm2.55.8a1.4 1.4 0 00-.37-.75 1.05 1.05 0 00-.8-.28 1.07 1.07 0 00-.8.28 1.48 1.48 0 00-.37.75 6.12 6.12 0 00-.09 1.14 6.32 6.32 0 00.09 1.17 1.48 1.48 0 00.37.75 1.07 1.07 0 00.8.29 1.06 1.06 0 00.8-.29 1.4 1.4 0 00.37-.75 5.48 5.48 0 00.1-1.17 5.3 5.3 0 00-.1-1.14zm1.69 3.73a.39.39 0 01-.1-.27.34.34 0 01.37-.37.35.35 0 01.26.1.36.36 0 01.1.27.39.39 0 01-.1.27.35.35 0 01-.26.1.36.36 0 01-.27-.1zm2-4.53a1.74 1.74 0 012.77 0 4.12 4.12 0 01.38 1.94 4.27 4.27 0 01-.38 2 1.46 1.46 0 01-1.39.69 1.43 1.43 0 01-1.38-.69 4.15 4.15 0 01-.38-2 4 4 0 01.38-1.94zm2.55.8a1.4 1.4 0 00-.37-.75 1.05 1.05 0 00-.8-.28 1.07 1.07 0 00-.8.28 1.56 1.56 0 00-.37.75 6.12 6.12 0 00-.09 1.14 6.32 6.32 0 00.09 1.17 1.56 1.56 0 00.37.75 1.07 1.07 0 00.8.29 1.06 1.06 0 00.8-.29 1.4 1.4 0 00.37-.75 5.48 5.48 0 00.1-1.17 5.3 5.3 0 00-.1-1.14zm2.15-.8a1.45 1.45 0 011.38-.69 1.43 1.43 0 011.38.69 4 4 0 01.39 1.94 4.14 4.14 0 01-.39 2 1.72 1.72 0 01-2.76 0 4.14 4.14 0 01-.39-2 4 4 0 01.39-1.94zm2.55.8a1.4 1.4 0 00-.37-.75 1.05 1.05 0 00-.8-.28 1.07 1.07 0 00-.8.28 1.48 1.48 0 00-.37.75 6.12 6.12 0 00-.09 1.14 6.32 6.32 0 00.09 1.17 1.48 1.48 0 00.37.75 1.07 1.07 0 00.8.29 1.06 1.06 0 00.8-.29 1.4 1.4 0 00.37-.75 5.48 5.48 0 00.1-1.17 5.3 5.3 0 00-.13-1.14zm20.5 3.11a1.29 1.29 0 01-.5.51 1.71 1.71 0 01-.81.23v.58h-.32v-.59a1.73 1.73 0 01-1.05-.42 1.29 1.29 0 01-.43-.92h.58a1 1 0 00.27.6 1.09 1.09 0 00.67.32v-2a5.47 5.47 0 01-.79-.27 1.27 1.27 0 01-.5-.4 1.22 1.22 0 01-.2-.73 1.24 1.24 0 01.4-1 1.64 1.64 0 011.09-.4v-.61h.32v.66a1.56 1.56 0 011 .4 1.32 1.32 0 01.43.83h-.54a.93.93 0 00-.26-.5 1.07 1.07 0 00-.59-.29v1.94a4.89 4.89 0 01.77.26 1.19 1.19 0 01.71 1.16 1.34 1.34 0 01-.25.64zm-2.35-2.51a1.93 1.93 0 00.72.35v-1.87a1.13 1.13 0 00-.71.25.87.87 0 00-.26.66.74.74 0 00.25.61zm1.76 2.54a1 1 0 00.25-.66.76.76 0 00-.25-.62 2.19 2.19 0 00-.72-.36v1.94a1.06 1.06 0 00.72-.3zm3.97-4.23a1.19 1.19 0 00-1.07.55 3.33 3.33 0 00-.33 1.82 1.23 1.23 0 01.56-.69 1.72 1.72 0 01.94-.25 1.57 1.57 0 011.21.47 1.78 1.78 0 01.45 1.29 2.06 2.06 0 01-.19.87 1.42 1.42 0 01-.57.62 1.83 1.83 0 01-.95.23 1.58 1.58 0 01-1.49-.69 3.79 3.79 0 01-.41-2c0-1.79.61-2.69 1.85-2.69a1.52 1.52 0 011.09.38 1.61 1.61 0 01.48 1H137a1 1 0 00-1.09-.91zm-.64 2a1.13 1.13 0 00-.5.42 1.19 1.19 0 00-.2.69 1.43 1.43 0 00.35 1 1.32 1.32 0 001 .39 1.21 1.21 0 00.9-.34 1.29 1.29 0 00.33-.93 1.41 1.41 0 00-.33-1 1.18 1.18 0 00-.93-.36 1.57 1.57 0 00-.62.13zm3.92-1.71a1.43 1.43 0 011.38-.69 1.45 1.45 0 011.38.69 4 4 0 01.38 1.94 4.15 4.15 0 01-.38 2 1.74 1.74 0 01-2.77 0 4.27 4.27 0 01-.38-2 4 4 0 01.39-1.94zm2.55.8a1.48 1.48 0 00-.37-.75 1.07 1.07 0 00-.8-.28 1.05 1.05 0 00-.8.28 1.4 1.4 0 00-.37.75 5.3 5.3 0 00-.1 1.14 5.48 5.48 0 00.1 1.17 1.4 1.4 0 00.37.75 1.06 1.06 0 00.8.29 1.07 1.07 0 00.8-.29 1.48 1.48 0 00.37-.75 6.32 6.32 0 00.09-1.17 6.12 6.12 0 00-.09-1.14zm2.14-.8a1.74 1.74 0 012.77 0 4.12 4.12 0 01.38 1.94 4.27 4.27 0 01-.38 2 1.74 1.74 0 01-2.77 0 4.27 4.27 0 01-.38-2 4.12 4.12 0 01.38-1.94zm2.56.8a1.56 1.56 0 00-.37-.75 1.08 1.08 0 00-.8-.28 1.05 1.05 0 00-.8.28 1.4 1.4 0 00-.37.75 5.3 5.3 0 00-.1 1.14 5.48 5.48 0 00.1 1.17 1.4 1.4 0 00.37.75 1.06 1.06 0 00.8.29 1.09 1.09 0 00.8-.29 1.56 1.56 0 00.37-.75 6.32 6.32 0 00.09-1.17 6.12 6.12 0 00-.09-1.14zm1.69 3.73a.4.4 0 01-.11-.27.37.37 0 01.11-.27.39.39 0 01.52 0 .37.37 0 01.11.27.4.4 0 01-.11.27.39.39 0 01-.52 0zm1.99-4.53a1.74 1.74 0 012.77 0 4 4 0 01.38 1.94 4.15 4.15 0 01-.38 2 1.74 1.74 0 01-2.77 0 4.27 4.27 0 01-.38-2 4.12 4.12 0 01.38-1.94zm2.56.8a1.56 1.56 0 00-.37-.75 1.08 1.08 0 00-.8-.28 1.05 1.05 0 00-.8.28 1.4 1.4 0 00-.37.75 5.3 5.3 0 00-.1 1.14 5.48 5.48 0 00.1 1.17 1.4 1.4 0 00.37.75 1.06 1.06 0 00.8.29 1.09 1.09 0 00.8-.29 1.56 1.56 0 00.37-.75 6.32 6.32 0 00.09-1.17 6.12 6.12 0 00-.09-1.14zm2.14-.8a1.74 1.74 0 012.77 0 4.12 4.12 0 01.38 1.94 4.27 4.27 0 01-.38 2 1.46 1.46 0 01-1.39.69 1.44 1.44 0 01-1.38-.69 5.24 5.24 0 010-3.92zm2.56.8a1.49 1.49 0 00-.38-.75 1.05 1.05 0 00-.8-.28 1.07 1.07 0 00-.8.28 1.56 1.56 0 00-.37.75 6.12 6.12 0 00-.09 1.14 6.32 6.32 0 00.09 1.17 1.56 1.56 0 00.37.75 1.07 1.07 0 00.8.29 1.06 1.06 0 00.8-.29 1.49 1.49 0 00.38-.75 6.32 6.32 0 00.09-1.17 6.12 6.12 0 00-.09-1.14zm22.42 3.11a1.29 1.29 0 01-.5.51 1.68 1.68 0 01-.81.23v.58h-.32v-.59a1.75 1.75 0 01-1-.42 1.29 1.29 0 01-.43-.92h.55a1 1 0 00.26.6 1.09 1.09 0 00.67.32v-2a5.47 5.47 0 01-.79-.27 1.18 1.18 0 01-.49-.4 1.15 1.15 0 01-.21-.73 1.28 1.28 0 01.4-1 1.64 1.64 0 011.09-.4v-.61h.32v.66a1.56 1.56 0 011 .4 1.27 1.27 0 01.43.83h-.53a1 1 0 00-.27-.5 1.07 1.07 0 00-.59-.29v1.94a4.89 4.89 0 01.77.26 1.34 1.34 0 01.51.41 1.3 1.3 0 01.2.75 1.34 1.34 0 01-.26.64zm-2.35-2.51a2 2 0 00.72.35v-1.87a1.15 1.15 0 00-.71.25.87.87 0 00-.26.66.74.74 0 00.25.61zm1.76 2.54a.92.92 0 00.25-.66.76.76 0 00-.25-.62 2.19 2.19 0 00-.72-.36v1.94a1 1 0 00.72-.3zm1.79-4.1v-.46h1.24v5.22h-.52v-4.76zm3.19 3.92l-.75 1.9h-.35l.54-1.9zm.68-.4v-.38l2.65-3.57h.6v3.51h.78v.44h-.78v1.24h-.5v-1.24zm2.77-3.39l-2.18 2.95h2.18zm2.52.03a1.45 1.45 0 011.38-.69 1.43 1.43 0 011.38.69 4 4 0 01.39 1.94 4.14 4.14 0 01-.39 2 1.72 1.72 0 01-2.76 0 4.14 4.14 0 01-.39-2 4 4 0 01.39-1.94zm2.55.8a1.4 1.4 0 00-.37-.75 1.05 1.05 0 00-.8-.28 1.07 1.07 0 00-.8.28 1.48 1.48 0 00-.37.75 6.12 6.12 0 00-.09 1.14 6.32 6.32 0 00.09 1.17 1.48 1.48 0 00.37.75 1.07 1.07 0 00.8.29 1.06 1.06 0 00.8-.29 1.4 1.4 0 00.37-.75 6.21 6.21 0 00.1-1.17 6 6 0 00-.1-1.14zm2.15-.8a1.43 1.43 0 011.38-.69 1.45 1.45 0 011.38.69 4 4 0 01.39 1.94 4.14 4.14 0 01-.39 2 1.74 1.74 0 01-2.77 0 4.27 4.27 0 01-.38-2 4 4 0 01.39-1.94zm2.55.8a1.48 1.48 0 00-.37-.75 1.07 1.07 0 00-.8-.28 1.05 1.05 0 00-.8.28 1.4 1.4 0 00-.37.75 5.3 5.3 0 00-.1 1.14 5.48 5.48 0 00.1 1.17 1.4 1.4 0 00.37.75 1.06 1.06 0 00.8.29 1.07 1.07 0 00.8-.29 1.48 1.48 0 00.37-.75 6.32 6.32 0 00.09-1.17 6.12 6.12 0 00-.09-1.14zm1.69 3.73a.4.4 0 01-.11-.27.37.37 0 01.11-.27.36.36 0 01.27-.1.33.33 0 01.25.1.37.37 0 01.11.27.4.4 0 01-.11.27.33.33 0 01-.25.1.36.36 0 01-.27-.1zm2-4.53a1.43 1.43 0 011.38-.69 1.45 1.45 0 011.38.69 4 4 0 01.39 1.94 4.14 4.14 0 01-.39 2 1.74 1.74 0 01-2.77 0 4.27 4.27 0 01-.38-2 4 4 0 01.39-1.94zm2.55.8a1.48 1.48 0 00-.37-.75 1.07 1.07 0 00-.8-.28 1.05 1.05 0 00-.8.28 1.4 1.4 0 00-.37.75 5.3 5.3 0 00-.1 1.14 5.48 5.48 0 00.1 1.17 1.4 1.4 0 00.37.75 1.06 1.06 0 00.8.29 1.07 1.07 0 00.8-.29 1.48 1.48 0 00.37-.75 6.32 6.32 0 00.09-1.17 6.12 6.12 0 00-.09-1.14zm2.15-.8a1.43 1.43 0 011.38-.69 1.45 1.45 0 011.38.69 4 4 0 01.38 1.94 4.15 4.15 0 01-.38 2 1.74 1.74 0 01-2.77 0 4.27 4.27 0 01-.38-2 4 4 0 01.39-1.94zm2.55.8a1.56 1.56 0 00-.37-.75 1.07 1.07 0 00-.8-.28 1.05 1.05 0 00-.8.28 1.4 1.4 0 00-.37.75 5.3 5.3 0 00-.1 1.14 5.48 5.48 0 00.1 1.17 1.4 1.4 0 00.37.75 1.06 1.06 0 00.8.29 1.07 1.07 0 00.8-.29 1.56 1.56 0 00.37-.75 6.32 6.32 0 00.09-1.17 6.12 6.12 0 00-.09-1.14zm18.72 3.11a1.29 1.29 0 01-.5.51 1.68 1.68 0 01-.81.23v.58h-.32v-.59a1.75 1.75 0 01-1.05-.42 1.29 1.29 0 01-.43-.92h.55a1 1 0 00.26.6 1.09 1.09 0 00.67.32v-2a5.47 5.47 0 01-.79-.27 1.18 1.18 0 01-.49-.4 1.15 1.15 0 01-.21-.73 1.28 1.28 0 01.4-1 1.64 1.64 0 011.09-.4v-.61h.32v.66a1.56 1.56 0 011 .4 1.27 1.27 0 01.43.83h-.54a.87.87 0 00-.26-.5 1.07 1.07 0 00-.59-.29v1.94a4.89 4.89 0 01.77.26 1.34 1.34 0 01.51.41 1.3 1.3 0 01.2.75 1.34 1.34 0 01-.21.64zm-2.35-2.51a2 2 0 00.72.35v-1.87a1.15 1.15 0 00-.71.25.87.87 0 00-.26.66.74.74 0 00.25.61zm1.76 2.54a.92.92 0 00.25-.66.76.76 0 00-.25-.62 2.19 2.19 0 00-.72-.36v1.94a1 1 0 00.72-.3zm1.82-4.1v-.46h1.24v5.22H229v-4.76zm3.16 3.92l-.75 1.9h-.35l.54-1.9zm1.23-2.29a1.23 1.23 0 01-.24-.76 1.27 1.27 0 01.2-.7 1.37 1.37 0 01.59-.49 2.16 2.16 0 01.92-.18 2.2 2.2 0 01.93.18 1.34 1.34 0 01.58.49 1.2 1.2 0 01.2.7 1.18 1.18 0 01-.92 1.21 1.43 1.43 0 01.78.48 1.28 1.28 0 01.28.85 1.45 1.45 0 01-.23.81 1.43 1.43 0 01-.65.53 2.57 2.57 0 01-1.94 0 1.4 1.4 0 01-.64-.53 1.38 1.38 0 01-.23-.81 1.28 1.28 0 01.28-.85 1.43 1.43 0 01.78-.48 1.37 1.37 0 01-.69-.45zm.5.95a.94.94 0 00-.38.81 1 1 0 00.36.82 1.78 1.78 0 002 0 1 1 0 00.36-.82.94.94 0 00-.38-.81 1.61 1.61 0 00-1-.27 1.64 1.64 0 00-.96.24zm1.86-2.39a1.35 1.35 0 00-.89-.27 1.38 1.38 0 00-.88.26 1 1 0 000 1.47 1.38 1.38 0 00.88.27 1.34 1.34 0 00.84-.29.86.86 0 00.34-.72.88.88 0 00-.29-.75zm2.46-.03a1.73 1.73 0 012.76 0 4 4 0 01.39 1.94 4.14 4.14 0 01-.39 2 1.44 1.44 0 01-1.38.69 1.46 1.46 0 01-1.39-.69 4.27 4.27 0 01-.38-2 4 4 0 01.39-1.94zm2.55.8a1.48 1.48 0 00-.37-.75 1.28 1.28 0 00-1.6 0 1.48 1.48 0 00-.37.75 6 6 0 00-.1 1.14 6.21 6.21 0 00.1 1.17 1.48 1.48 0 00.37.75 1.25 1.25 0 001.6 0 1.48 1.48 0 00.37-.75 6.21 6.21 0 00.1-1.17 6 6 0 00-.1-1.14zm2.15-.8a1.43 1.43 0 011.38-.69 1.45 1.45 0 011.38.69 4 4 0 01.38 1.94 4.15 4.15 0 01-.38 2 1.74 1.74 0 01-2.77 0 4.27 4.27 0 01-.38-2 4 4 0 01.39-1.94zm2.55.8a1.48 1.48 0 00-.37-.75 1.07 1.07 0 00-.8-.28 1.05 1.05 0 00-.8.28 1.4 1.4 0 00-.37.75 5.3 5.3 0 00-.1 1.14 5.48 5.48 0 00.1 1.17 1.4 1.4 0 00.37.75 1.06 1.06 0 00.8.29 1.07 1.07 0 00.8-.29 1.48 1.48 0 00.37-.75 6.32 6.32 0 00.09-1.17 6.12 6.12 0 00-.09-1.14zm1.69 3.73a.4.4 0 01-.11-.27.37.37 0 01.11-.27.36.36 0 01.27-.1.33.33 0 01.25.1.37.37 0 01.11.27.4.4 0 01-.11.27.33.33 0 01-.25.1.36.36 0 01-.27-.1zm2-4.53a1.43 1.43 0 011.38-.69 1.45 1.45 0 011.38.69 4 4 0 01.39 1.94 4.14 4.14 0 01-.39 2 1.74 1.74 0 01-2.77 0 4.27 4.27 0 01-.38-2 4 4 0 01.39-1.94zm2.55.8a1.48 1.48 0 00-.37-.75 1.07 1.07 0 00-.8-.28 1.05 1.05 0 00-.8.28 1.4 1.4 0 00-.37.75 5.3 5.3 0 00-.1 1.14 5.48 5.48 0 00.1 1.17 1.4 1.4 0 00.37.75 1.06 1.06 0 00.8.29 1.07 1.07 0 00.8-.29 1.48 1.48 0 00.37-.75 6.32 6.32 0 00.09-1.17 6.12 6.12 0 00-.09-1.14zm2.15-.8a1.43 1.43 0 011.38-.69 1.45 1.45 0 011.38.69 4 4 0 01.38 1.94 4.15 4.15 0 01-.38 2 1.74 1.74 0 01-2.77 0 4.27 4.27 0 01-.38-2 4 4 0 01.39-1.94zm2.55.8a1.56 1.56 0 00-.37-.75 1.07 1.07 0 00-.8-.28 1.05 1.05 0 00-.8.28 1.4 1.4 0 00-.37.75 5.3 5.3 0 00-.1 1.14 5.48 5.48 0 00.1 1.17 1.4 1.4 0 00.37.75 1.06 1.06 0 00.8.29 1.07 1.07 0 00.8-.29 1.56 1.56 0 00.37-.75 6.32 6.32 0 00.09-1.17 6.12 6.12 0 00-.09-1.14z" transform="translate(-12.62 -5.57)"/><path d="M26.82 179.1h30a5 5 0 015 5v53.18h-40V184.1a5 5 0 015-5z" fill="url(#linear-gradient)"/><path d="M72.09 157.28h30a5 5 0 015 5v75h-40v-75a5 5 0 015-5z" fill="url(#linear-gradient-2)"/><path d="M166.54 142.73h30a5 5 0 015 5v89.55h-40v-89.55a5 5 0 015-5z" fill="url(#linear-gradient-3)"/><path d="M118.18 120.92h30a5 5 0 015 5v111.36h-40V125.92a5 5 0 015-5z" fill="url(#linear-gradient-4)"/><path d="M213.9 110h30a5 5 0 015 5v122.28h-40V115a5 5 0 015-5z" fill="url(#linear-gradient-5)"/><circle cx="51.58" cy="327.73" r="20.44" fill="url(#linear-gradient-6)"/><circle cx="108.1" cy="327.73" r="20.44" fill="url(#linear-gradient-7)"/><circle cx="164.62" cy="327.73" r="20.44" fill="url(#linear-gradient-8)"/><circle cx="221.15" cy="327.73" r="20.44" fill="url(#linear-gradient-9)"/><path class="cls-2" d="M51.48 336v-1.6l3.68-5.26h2.22v5.14h1V336h-1v1.51h-2V336zm4.05-4.68l-2 3h2zm10.11-.59H62v1.61a1.83 1.83 0 01.65-.42 2.49 2.49 0 01.91-.16 2.53 2.53 0 011.45.39 2.27 2.27 0 01.84 1 3.4 3.4 0 01.27 1.36 3 3 0 01-.77 2.16 2.85 2.85 0 01-2.16.79 3.72 3.72 0 01-1.62-.32 2.46 2.46 0 01-1.06-.89 2.59 2.59 0 01-.4-1.31h1.94a1.07 1.07 0 00.34.6 1.05 1.05 0 00.73.24 1 1 0 00.81-.35 1.51 1.51 0 00.27-.93 1.26 1.26 0 00-.28-.88 1 1 0 00-.81-.3 1.09 1.09 0 00-.65.19.9.9 0 00-.34.51h-1.91V329h5.43zm2.36-1.04a1.93 1.93 0 011.41-.52 1.83 1.83 0 011.93 2 1.81 1.81 0 01-1.93 2 2 2 0 01-1.41-.57 1.93 1.93 0 01-.54-1.46 1.89 1.89 0 01.54-1.45zm.84 1.45c0 .53.18.79.55.79a.48.48 0 00.42-.2 1 1 0 00.15-.59c0-.53-.19-.8-.57-.8s-.6.27-.6.8zm6.52-1.84l-4.48 8.19h-1.97l4.48-8.19zm-1.82 4.9a1.92 1.92 0 011.39-.51 2 2 0 011.4.51 2.26 2.26 0 010 2.91 2 2 0 01-1.4.51 2 2 0 01-1.39-3.42zm1 .85a1 1 0 00-.15.61c0 .52.19.79.56.79a.5.5 0 00.42-.2 1 1 0 00.15-.59 1 1 0 00-.15-.6.52.52 0 00-.83 0zm34.46.56c.76-.63 1.36-1.15 1.8-1.55a6.88 6.88 0 001.11-1.27 2.29 2.29 0 00.45-1.29 1.11 1.11 0 00-.22-.74.81.81 0 00-.66-.27.8.8 0 00-.69.33 1.5 1.5 0 00-.25.94h-1.92a3.2 3.2 0 01.42-1.65 2.44 2.44 0 011.06-1 3.33 3.33 0 011.46-.32 2.84 2.84 0 012.09.71 2.52 2.52 0 01.7 1.85 3.61 3.61 0 01-.85 2.31 12.68 12.68 0 01-2.16 2.08h3.14v1.62h-5.84v-1.46zm12.7-4.88h-3.63v1.61a1.74 1.74 0 01.65-.42 2.49 2.49 0 01.91-.16 2.53 2.53 0 011.45.39 2.4 2.4 0 01.84 1 3.4 3.4 0 01.27 1.36 3 3 0 01-.77 2.16 2.85 2.85 0 01-2.16.79 3.72 3.72 0 01-1.62-.32 2.46 2.46 0 01-1.06-.89 2.5 2.5 0 01-.4-1.31h1.94a1 1 0 00.34.6 1 1 0 00.73.24 1 1 0 00.81-.35 1.51 1.51 0 00.27-.93 1.26 1.26 0 00-.28-.88 1 1 0 00-.81-.3 1.09 1.09 0 00-.65.19.85.85 0 00-.34.51h-1.92V329h5.43zm2.3-1.04a2.14 2.14 0 012.8 0 1.89 1.89 0 01.54 1.45 1.81 1.81 0 01-1.94 2 2 2 0 01-1.4-.51 1.93 1.93 0 01-.54-1.46 1.89 1.89 0 01.54-1.48zm.83 1.45c0 .53.19.79.56.79a.48.48 0 00.42-.2 1 1 0 00.15-.59c0-.53-.19-.8-.57-.8s-.55.27-.55.8zm6.53-1.84l-4.48 8.19H125l4.48-8.19zm-1.82 4.9a1.92 1.92 0 011.39-.51 2 2 0 110 3.93 2 2 0 01-1.39-3.42zm1 .85a1 1 0 00-.15.61c0 .52.19.79.56.79a.5.5 0 00.42-.2 1 1 0 00.15-.59 1 1 0 00-.15-.6.49.49 0 00-.42-.21.47.47 0 00-.43.2zm35.14.56c.76-.63 1.36-1.15 1.8-1.55a6.88 6.88 0 001.11-1.27 2.24 2.24 0 00.46-1.29 1.11 1.11 0 00-.23-.74.78.78 0 00-.66-.27.83.83 0 00-.69.33 1.5 1.5 0 00-.25.94h-1.92a3.3 3.3 0 01.42-1.65 2.44 2.44 0 011.06-1 3.36 3.36 0 011.46-.32 2.83 2.83 0 012.09.71 2.53 2.53 0 01.71 1.85 3.67 3.67 0 01-.85 2.31 12.76 12.76 0 01-2.17 2.08h3.14v1.62h-5.84v-1.46zm7.48-5.61a3.28 3.28 0 015 0 5.56 5.56 0 01.78 3.15 5.62 5.62 0 01-.78 3.18 3.28 3.28 0 01-5 0 5.63 5.63 0 01-.77-3.18 5.56 5.56 0 01.77-3.15zm3.55 1.34a1.2 1.2 0 00-2.11 0 5 5 0 00-.26 1.81 7.89 7.89 0 00.09 1.31 1.76 1.76 0 00.38.84 1.28 1.28 0 001.69 0 1.76 1.76 0 00.38-.84 7.89 7.89 0 00.09-1.31 5 5 0 00-.26-1.83zm3.99-1.65a1.93 1.93 0 013.33 1.45 2 2 0 01-.53 1.46 1.94 1.94 0 01-3.34-1.46 1.89 1.89 0 01.54-1.45zm.83 1.45c0 .53.19.79.56.79a.48.48 0 00.42-.2 1 1 0 00.15-.59c0-.53-.19-.8-.57-.8s-.56.27-.56.8zm6.53-1.84l-4.48 8.19h-1.92l4.48-8.19zm-1.83 4.9a1.93 1.93 0 013.33 1.46 1.94 1.94 0 01-.53 1.45 2.18 2.18 0 01-2.8 0 2.26 2.26 0 010-2.91zm1 .85a1.08 1.08 0 00-.14.61c0 .52.19.79.56.79a.5.5 0 00.42-.2 1 1 0 00.15-.59 1 1 0 00-.15-.6.49.49 0 00-.42-.21.5.5 0 00-.45.2zm35.77-4.2V329h3.23v8.49h-2.08v-6.64zm5.7-.85a3.28 3.28 0 015 0 5.56 5.56 0 01.78 3.15 5.62 5.62 0 01-.78 3.18 3.28 3.28 0 01-5 0 5.63 5.63 0 01-.77-3.18 5.56 5.56 0 01.77-3.15zm3.56 1.34a1 1 0 00-1.06-.63 1 1 0 00-1.06.63 5 5 0 00-.26 1.81 7.89 7.89 0 00.09 1.31 1.76 1.76 0 00.38.84 1.28 1.28 0 001.69 0 1.67 1.67 0 00.38-.84 7.89 7.89 0 00.09-1.31 5.06 5.06 0 00-.25-1.83zm3.98-1.65a2.14 2.14 0 012.8 0 1.89 1.89 0 01.53 1.45 1.8 1.8 0 01-1.93 2 2 2 0 01-1.4-.51 1.93 1.93 0 01-.54-1.46 1.89 1.89 0 01.54-1.48zm.83 1.45c0 .53.19.79.56.79a.48.48 0 00.42-.2 1 1 0 00.15-.59c0-.53-.19-.8-.57-.8s-.56.27-.56.8zm6.53-1.84l-4.48 8.19h-1.92l4.48-8.19zm-1.83 4.9a1.93 1.93 0 013.33 1.46 1.94 1.94 0 01-.53 1.45 2.18 2.18 0 01-2.8 0 2.26 2.26 0 010-2.91zm1 .85a1.08 1.08 0 00-.14.61c0 .52.19.79.56.79a.5.5 0 00.42-.2 1 1 0 00.15-.59 1 1 0 00-.15-.6.49.49 0 00-.42-.21.5.5 0 00-.45.2z" transform="translate(-12.62 -5.57)"/><path class="cls-4" d="M49.62 362.34a2.44 2.44 0 01.9-.93 2.47 2.47 0 011.26-.33 2.56 2.56 0 011.46.41 2.24 2.24 0 01.88 1.14h-.59a1.73 1.73 0 00-.67-.81 1.9 1.9 0 00-1.08-.29 1.87 1.87 0 00-1 .26 1.78 1.78 0 00-.71.75 2.45 2.45 0 00-.25 1.14 2.38 2.38 0 00.25 1.13 1.78 1.78 0 00.71.75 1.87 1.87 0 001 .27 2 2 0 001.08-.29 1.76 1.76 0 00.67-.8h.59a2.22 2.22 0 01-.88 1.13 2.58 2.58 0 01-1.46.4 2.47 2.47 0 01-1.26-.33 2.41 2.41 0 01-.9-.92 3 3 0 010-2.68zm6.46 3.66a1.77 1.77 0 01-.7-.71 2.37 2.37 0 010-2.16 1.82 1.82 0 01.72-.71 2 2 0 011-.25 2 2 0 011 .25 1.73 1.73 0 01.71.71 2.11 2.11 0 01.26 1.08 2.21 2.21 0 01-.26 1.08 1.7 1.7 0 01-.72.71 2.19 2.19 0 01-2 0zm1.74-.37a1.4 1.4 0 00.54-.54 1.95 1.95 0 000-1.76 1.31 1.31 0 00-.53-.54 1.57 1.57 0 00-1.46 0 1.31 1.31 0 00-.53.54 2 2 0 000 1.76 1.31 1.31 0 00.53.54 1.48 1.48 0 00.72.18 1.52 1.52 0 00.73-.15zm8.29-3.01a1.74 1.74 0 01.44 1.28v2.33h-.5V364a1.42 1.42 0 00-.32-1 1.09 1.09 0 00-.85-.34 1.13 1.13 0 00-.88.34 1.5 1.5 0 00-.34 1.07v2.16h-.5V364a1.42 1.42 0 00-.31-1 1.11 1.11 0 00-.86-.34 1.13 1.13 0 00-.89.37 1.5 1.5 0 00-.34 1.07v2.16h-.51v-4h.51v.69a1.35 1.35 0 01.54-.57 1.67 1.67 0 01.78-.19 1.6 1.6 0 01.9.25 1.41 1.41 0 01.57.73 1.32 1.32 0 01.55-.73 1.62 1.62 0 01.88-.25 1.58 1.58 0 011.13.43zm1.77-1.22a.39.39 0 01-.1-.27.36.36 0 01.1-.27.38.38 0 01.27-.1.35.35 0 01.26.1.37.37 0 01.11.27.4.4 0 01-.11.27.36.36 0 01-.26.11.39.39 0 01-.27-.11zm.52.85v4h-.51v-4zm1.39.91a1.67 1.67 0 01.68-.71 1.88 1.88 0 011-.25 1.76 1.76 0 01.94.25 1.51 1.51 0 01.62.66v-2.27h.51v5.39H73v-.89a1.6 1.6 0 01-.59.68 1.77 1.77 0 01-1 .26 1.91 1.91 0 01-1-.25 1.73 1.73 0 01-.67-.72 2.21 2.21 0 01-.25-1.08 2.31 2.31 0 01.3-1.07zm3 .24a1.33 1.33 0 00-.54-.56 1.44 1.44 0 00-.74-.2 1.45 1.45 0 00-.76.19 1.34 1.34 0 00-.53.55 1.75 1.75 0 00-.19.85 1.82 1.82 0 00.19.86 1.43 1.43 0 00.53.56 1.45 1.45 0 00.76.19 1.44 1.44 0 00.74-.2 1.33 1.33 0 00.54-.56 2 2 0 000-1.68zm2.12-.24a1.73 1.73 0 01.68-.71 1.88 1.88 0 011-.25 1.75 1.75 0 011 .26 1.52 1.52 0 01.59.67v-.88h.51v4h-.51v-.88a1.67 1.67 0 01-.6.67 1.73 1.73 0 01-1 .26 1.87 1.87 0 01-1-.25 1.82 1.82 0 01-.68-.72 2.53 2.53 0 010-2.15zm3 .24a1.37 1.37 0 00-.53-.56 1.5 1.5 0 00-.75-.2 1.44 1.44 0 00-.75.19 1.28 1.28 0 00-.53.55 1.75 1.75 0 00-.19.85 1.82 1.82 0 00.19.86 1.36 1.36 0 00.53.56 1.44 1.44 0 00.75.19 1.5 1.5 0 00.75-.2 1.37 1.37 0 00.53-.56 1.86 1.86 0 000-1.68zm36.39 2.83l-1.3-2.13h-.94v2.13h-.5v-5.09h1.52a1.83 1.83 0 011.29.41 1.37 1.37 0 01.44 1.07 1.44 1.44 0 01-.31.94 1.52 1.52 0 01-.94.51l1.31 2.16zm-2.2-2.54h1a1.26 1.26 0 00.9-.29 1.06 1.06 0 00.3-.78 1 1 0 00-.29-.78 1.31 1.31 0 00-.92-.27h-1zm4.71 2.31a1.77 1.77 0 01-.7-.71 2.37 2.37 0 010-2.16 1.8 1.8 0 01.71-.71 2.06 2.06 0 011-.25 2 2 0 011 .25 1.73 1.73 0 01.71.71 2.37 2.37 0 010 2.16 1.7 1.7 0 01-.72.71 2.08 2.08 0 01-1 .25 2 2 0 01-1-.25zm1.74-.37a1.4 1.4 0 00.54-.54 1.95 1.95 0 000-1.76 1.31 1.31 0 00-.53-.54 1.55 1.55 0 00-.73-.18 1.52 1.52 0 00-.73.18 1.31 1.31 0 00-.53.54 2 2 0 000 1.76 1.31 1.31 0 00.53.54 1.48 1.48 0 00.72.18 1.52 1.52 0 00.73-.15zm3.52-3.17a1.84 1.84 0 011-.26 1.87 1.87 0 011 .25 1.73 1.73 0 01.68.71 2.53 2.53 0 010 2.15 1.82 1.82 0 01-.68.72 1.87 1.87 0 01-1 .25 1.72 1.72 0 01-1-.26 1.63 1.63 0 01-.61-.67v2.75H121v-5.85h.5v.88a1.67 1.67 0 01.57-.67zm2.16.92a1.28 1.28 0 00-.53-.55 1.44 1.44 0 00-.75-.19 1.5 1.5 0 00-.75.2 1.37 1.37 0 00-.53.56 1.86 1.86 0 000 1.68 1.37 1.37 0 00.53.56 1.5 1.5 0 00.75.2 1.44 1.44 0 00.75-.19 1.36 1.36 0 00.53-.56 1.82 1.82 0 00.19-.86 1.75 1.75 0 00-.19-.85zm1.88-.22a1.67 1.67 0 01.68-.71 1.85 1.85 0 011-.25 1.73 1.73 0 011 .26 1.46 1.46 0 01.59.67v-.88h.51v4h-.51v-.88a1.54 1.54 0 01-.6.67 1.72 1.72 0 01-1 .26 1.85 1.85 0 01-1-.25 1.75 1.75 0 01-.68-.72 2.44 2.44 0 010-2.15zm3 .24a1.33 1.33 0 00-.54-.56 1.44 1.44 0 00-.74-.2 1.48 1.48 0 00-.76.19 1.34 1.34 0 00-.53.55 1.87 1.87 0 00-.19.85 1.94 1.94 0 00.19.86 1.43 1.43 0 00.53.56 1.48 1.48 0 00.76.19 1.44 1.44 0 00.74-.2 1.33 1.33 0 00.54-.56 2 2 0 000-1.68zm31.34-2.26v.42H159v4.67h-.5v-4.67h-1.42v-.42zm2.04 1.25a1.62 1.62 0 01.85-.21v.53h-.14A1.11 1.11 0 00162 364v2.22h-.51v-4h.51v.78a1.18 1.18 0 01.49-.61zm1.84.77a1.67 1.67 0 01.68-.71 1.88 1.88 0 011-.25 1.77 1.77 0 011 .26 1.52 1.52 0 01.59.67v-.88h.51v4h-.51v-.88a1.67 1.67 0 01-.6.67 1.75 1.75 0 01-1 .26 1.87 1.87 0 01-1-.25 1.75 1.75 0 01-.68-.72 2.53 2.53 0 010-2.15zm3 .24a1.37 1.37 0 00-.53-.56 1.5 1.5 0 00-.75-.2 1.44 1.44 0 00-.75.19 1.28 1.28 0 00-.53.55 1.75 1.75 0 00-.2.85 1.82 1.82 0 00.2.86 1.36 1.36 0 00.53.56 1.44 1.44 0 00.75.19 1.5 1.5 0 00.75-.2 1.37 1.37 0 00.53-.56 1.86 1.86 0 000-1.68zm5.14-.78a1.71 1.71 0 01.46 1.28v2.33h-.51V364a1.42 1.42 0 00-.32-1 1.15 1.15 0 00-.88-.34 1.21 1.21 0 00-.92.36 1.5 1.5 0 00-.34 1.07v2.17h-.51v-4h.55v.68a1.33 1.33 0 01.54-.56 1.79 1.79 0 01.81-.19 1.59 1.59 0 011.12.43zm2.05 3.38a1.13 1.13 0 01-.48-.86h.52a.77.77 0 00.32.54 1.21 1.21 0 00.75.2 1 1 0 00.65-.19.6.6 0 00.24-.49.47.47 0 00-.13-.33.93.93 0 00-.33-.21 4.3 4.3 0 00-.55-.16 6 6 0 01-.72-.24 1.11 1.11 0 01-.46-.34.94.94 0 01-.2-.62.92.92 0 01.18-.54 1.21 1.21 0 01.49-.39 1.9 1.9 0 01.73-.14 1.53 1.53 0 011 .32 1.18 1.18 0 01.42.89h-.51a.74.74 0 00-.27-.56 1 1 0 00-.69-.22 1 1 0 00-.62.18.57.57 0 00-.24.46.56.56 0 00.14.38 1.07 1.07 0 00.35.23 5.36 5.36 0 00.57.19 4.19 4.19 0 01.68.22 1.16 1.16 0 01.44.32.84.84 0 01.19.56 1 1 0 01-.17.57 1.22 1.22 0 01-.49.4 1.65 1.65 0 01-.72.14 1.86 1.86 0 01-1.09-.31zm4.78-3.54a1.81 1.81 0 011-.26 1.87 1.87 0 011 .25 1.73 1.73 0 01.68.71 2.53 2.53 0 010 2.15 1.82 1.82 0 01-.68.72 1.87 1.87 0 01-1 .25 1.75 1.75 0 01-1-.26 1.67 1.67 0 01-.6-.67v2.75h-.5v-5.85h.5v.88a1.6 1.6 0 01.6-.67zm2.16.92a1.34 1.34 0 00-.53-.55 1.44 1.44 0 00-.75-.19 1.48 1.48 0 00-.75.2 1.31 1.31 0 00-.53.56 1.86 1.86 0 000 1.68 1.31 1.31 0 00.53.56 1.48 1.48 0 00.75.2 1.39 1.39 0 001.28-.75 1.82 1.82 0 00.19-.86 1.75 1.75 0 00-.19-.85zm2.6 2.62a1.73 1.73 0 01-.71-.71 2.37 2.37 0 010-2.16 1.82 1.82 0 01.72-.71 2 2 0 011-.25 2 2 0 011 .25 1.76 1.76 0 01.72.71 2.21 2.21 0 01.25 1.08 2.11 2.11 0 01-.26 1.08 1.7 1.7 0 01-.72.71 2 2 0 01-1 .25 2 2 0 01-1-.25zm1.73-.37a1.4 1.4 0 00.54-.54 1.71 1.71 0 00.21-.88 1.82 1.82 0 00-.2-.88 1.4 1.4 0 00-.54-.54 1.57 1.57 0 00-1.46 0 1.31 1.31 0 00-.53.54 2 2 0 000 1.76 1.31 1.31 0 00.53.54 1.55 1.55 0 001.45 0zm3.44-3.24a1.62 1.62 0 01.85-.21v.53h-.14a1.13 1.13 0 00-1.22 1.3v2.22h-.51v-4h.51v.77a1.18 1.18 0 01.51-.61zm2.5.29v2.47a.52.52 0 00.62.64h.47v.44h-.55a1.11 1.11 0 01-.8-.26 1.1 1.1 0 01-.26-.82v-2.47h-.55v-.43h.55v-1h.52v1h1.09v.43zm5.72 1.76h-3.3a1.69 1.69 0 00.22.77 1.33 1.33 0 00.52.48 1.47 1.47 0 00.7.16 1.4 1.4 0 00.83-.24 1.13 1.13 0 00.45-.64h.53a1.64 1.64 0 01-.62.95 1.89 1.89 0 01-1.19.36 2 2 0 01-1-.25 1.75 1.75 0 01-.69-.71 2.46 2.46 0 010-2.16 1.71 1.71 0 01.69-.72 2.07 2.07 0 011-.24 2 2 0 011 .24 1.74 1.74 0 01.65.67 1.83 1.83 0 01.23.93c-.01.17-.01.3-.02.4zm-.68-1.17a1.18 1.18 0 00-.51-.48 1.6 1.6 0 00-.7-.16 1.34 1.34 0 00-1 .37 1.43 1.43 0 00-.45 1H197a1.46 1.46 0 00-.23-.73zm28.37 2.73a2.46 2.46 0 01-.91-.93 2.89 2.89 0 010-2.68 2.46 2.46 0 01.91-.93 2.52 2.52 0 011.28-.33 2.58 2.58 0 011.29.33 2.44 2.44 0 01.9.93 2.89 2.89 0 010 2.68 2.44 2.44 0 01-.9.93 2.58 2.58 0 01-1.29.33 2.52 2.52 0 01-1.28-.33zm2.3-.38a1.78 1.78 0 00.71-.75 2.46 2.46 0 00.26-1.14 2.39 2.39 0 00-.26-1.13 1.78 1.78 0 00-.71-.75 2.13 2.13 0 00-2 0 1.78 1.78 0 00-.71.75 2.27 2.27 0 00-.26 1.13 2.34 2.34 0 00.26 1.14 1.78 1.78 0 00.71.75 2.13 2.13 0 002 0zm3.31-2.94v2.47a.52.52 0 00.62.64h.47v.44h-.55a1.11 1.11 0 01-.8-.26 1.1 1.1 0 01-.26-.82v-2.47h-.55v-.43h.55v-1h.52v1h1.09v.43zm3.16-.29a1.62 1.62 0 01.85-.21v.53h-.14a1.11 1.11 0 00-1.22 1.3v2.22h-.51v-4h.51v.77a1.18 1.18 0 01.51-.61zm2.56 3.61a1.77 1.77 0 01-.7-.71 2.37 2.37 0 010-2.16 1.8 1.8 0 01.71-.71 2.19 2.19 0 012 0 1.73 1.73 0 01.71.71 2.37 2.37 0 010 2.16 1.82 1.82 0 01-.72.71 2.08 2.08 0 01-1 .25 2 2 0 01-1-.25zm1.74-.37a1.4 1.4 0 00.54-.54 1.95 1.95 0 000-1.76 1.31 1.31 0 00-.53-.54 1.55 1.55 0 00-.73-.18 1.52 1.52 0 00-.73.18 1.31 1.31 0 00-.53.54 2 2 0 000 1.76 1.31 1.31 0 00.53.54 1.48 1.48 0 00.72.18 1.55 1.55 0 00.73-.15zm2.67.37a1.13 1.13 0 01-.48-.86h.52a.74.74 0 00.32.54 1.19 1.19 0 00.75.2 1 1 0 00.65-.19.6.6 0 00.24-.49.47.47 0 00-.13-.33.89.89 0 00-.34-.21 3.67 3.67 0 00-.54-.16 6 6 0 01-.72-.24 1.21 1.21 0 01-.47-.34 1 1 0 01-.19-.62.92.92 0 01.18-.54 1.21 1.21 0 01.49-.39 1.86 1.86 0 01.73-.14 1.55 1.55 0 011 .32 1.18 1.18 0 01.42.89h-.51a.74.74 0 00-.27-.56 1.18 1.18 0 00-1.31 0 .57.57 0 00-.24.46.51.51 0 00.14.38 1 1 0 00.35.23 5.36 5.36 0 00.57.19 5 5 0 01.68.22 1.16 1.16 0 01.44.32.9.9 0 01.19.56 1 1 0 01-.18.57 1.13 1.13 0 01-.48.4 1.65 1.65 0 01-.72.14 1.86 1.86 0 01-1.09-.35z" transform="translate(-12.62 -5.57)"/><path class="cls-2" d="M250.09 33.06a7.76 7.76 0 00-6 12.71A7.78 7.78 0 00247 48l.27.11h.11l.24.08.15.05.22.06.19.05h3.65l.19-.05.22-.06.15-.05.24-.08h.11l.28-.11a7.78 7.78 0 002.94-2.18 7.76 7.76 0 00-6-12.71zm1.54 8.08a1.92 1.92 0 01-.31.18 2.93 2.93 0 01-2.39 0 1.92 1.92 0 01-.31-.18 2.85 2.85 0 113.09 0zm-3.19.55h.06l.24.11.19.08a3.37 3.37 0 002.23 0l.19-.08.24-.11h.06l.11-.06a5.72 5.72 0 013.74 3.92 7.33 7.33 0 01-2.35 1.81l-.28.12h-.06l-.25.1h-.11l-.23.08h-.14l-.2.06h-.72L251 48h-2.77l-.2-.06h-.14l-.23-.08h-.1l-.26-.1h-.06l-.28-.12a7.33 7.33 0 01-2.35-1.81 5.72 5.72 0 013.74-3.92zm7.56 3.37a6.22 6.22 0 00-3.64-3.8 3.37 3.37 0 10-4.49 0 6.22 6.22 0 00-3.64 3.8 7.26 7.26 0 1111.77 0z" transform="translate(-12.62 -5.57)"/></svg>