<svg version="1.1" id="App_Screen" xmlns="http://www.w3.org/2000/svg" xmlns:xlink="http://www.w3.org/1999/xlink" x="0" y="0" viewBox="0 0 272.7 652.4" xml:space="preserve"><style>.st0{fill:#0f0f1e}.st1{fill:#151524}.st3{fill:#fff}.st4{fill:#ea001b}.st7{fill:#6834a6}.st8{fill:#aeaeb3}.st9{fill:#50e800}</style><path class="st0" d="M40 0h192.7c22.1 0 40 17.9 40 40v510.5c0 22.1-17.9 40-40 40H40c-22.1 0-40-17.9-40-40V40C0 17.9 17.9 0 40 0z"/><path class="st1" d="M40 326.7h192.7c22.1 0 40 17.9 40 40v183.8c0 22.1-17.9 40-40 40H40c-22.1 0-40-17.9-40-40V366.7c0-22.1 17.9-40 40-40z"/><path d="M21.8 42.3h18.4m-18.4-7H34m-12.2-7.1h18.4" fill="none" stroke="#fff" stroke-width="2" stroke-miterlimit="10"/><path class="st1" d="M229 21.8h16.9c2.8 0 5 2.2 5 5v16.9c0 2.8-2.2 5-5 5H229c-2.8 0-5-2.2-5-5V26.8c0-2.7 2.3-5 5-5z"/><path class="st3" d="M237.5 27.5c-4.3 0-7.8 3.5-7.8 7.7 0 1.8.6 3.6 1.8 5 .8 1 1.8 1.7 2.9 2.2l.3.1h.1l.2.1h.1l.2.1h4l.2-.1h.1l.2-.1h.1l.3-.1c1.1-.5 2.2-1.2 2.9-2.2 2.7-3.3 2.3-8.2-1-10.9-1.4-1.2-3.2-1.8-5-1.8h.4zm1.5 8.1c-.1.1-.2.1-.3.2-.8.3-1.6.3-2.4 0-.1-.1-.2-.1-.3-.2-1.3-.9-1.7-2.6-.8-3.9.9-1.3 2.6-1.7 3.9-.8 1.3.9 1.7 2.6.8 3.9-.2.3-.5.6-.9.8zm-3.2.5l.3.1.2.1c.4.1.7.2 1.1.2.4 0 .8-.1 1.1-.2l.2-.1c.1 0 .2-.1.2-.1h.1l.1-.1c1.9.6 3.3 2 3.8 3.9-.7.8-1.5 1.4-2.4 1.8l-.3.1h-.1l-.1.2h-.1l-.2.1h-.1l-.2.1h-3.8l-.2-.1h-.1l-.2-.1h-.1l-.3-.1h-.1l-.3-.1c-.9-.4-1.7-1-2.4-1.8.5-1.9 1.9-3.3 3.7-3.9h.2zm7.6 3.4c-.6-1.7-1.9-3.1-3.6-3.8.7-.6 1.1-1.5 1.1-2.5-.1-1.9-1.7-3.3-3.5-3.2-1.7.1-3.1 1.5-3.2 3.2 0 1 .4 1.9 1.1 2.5-1.7.7-3 2.1-3.6 3.8-.9-1.2-1.4-2.7-1.4-4.2 0-4 3.2-7.3 7.2-7.3s7.3 3.2 7.3 7.2c-.1 1.5-.6 3-1.4 4.3z"/><image width="210" height="128" xlink:href="7DB8A5ED5D08DA70.png" transform="translate(33.81 113.98)" overflow="visible"/><circle class="st4" cx="198.9" cy="201.6" r="11.2"/><circle cx="215.3" cy="201.6" r="11.2" fill="#f79f1a"/><path class="st3" d="M199.8 225h-1.5v-2.2c0-.2 0-.3-.1-.4-.1-.1-.2-.1-.3-.1-.1 0-.2 0-.3.1-.1.1-.2.1-.2.2-.1.1-.1.2-.2.3v2.2h-1.4v-3.9h1.3v.6c.1-.1.2-.3.4-.4.2-.1.3-.2.5-.2.2-.1.4-.1.6-.1.2 0 .4 0 .6.1.2.1.3.2.4.4.1.1.1.3.2.5v2.9zm.9-1.4V221h1.4v2.2c0 .1 0 .3.1.4.1.1.2.2.3.1h.2c.1 0 .2-.1.2-.1.1-.1.2-.1.2-.2V221h1.4v2.3c0 .1 0 .2.1.3.1.1.1.1.2.1v1.2l-.3.1h-.3c-.2 0-.4 0-.6-.1-.1-.1-.2-.2-.3-.4v-.1c-.2.2-.4.4-.7.5-.3.1-.6.2-.9.2-.3 0-.7-.1-.9-.4 0-.3-.1-.7-.1-1.1zm7 1.4c-.3 0-.6 0-.9-.2-.3-.1-.5-.3-.7-.4-.2-.2-.3-.4-.4-.6-.1-.2-.2-.5-.1-.8 0-.4.1-.7.3-1 .2-.3.4-.6.7-.7.4-.2.8-.3 1.2-.3.4 0 .8.1 1.2.3.3.2.6.4.7.8l-1.4.4c-.1-.1-.1-.2-.2-.2-.1-.1-.2-.1-.3-.1-.3 0-.5.1-.6.4-.1.1-.1.3-.1.4 0 .2 0 .3.1.4.1.1.1.2.2.3.1.1.2.1.4.1h.2c.1 0 .1-.1.2-.1s.1-.1.1-.2l1.4.4c-.1.2-.3.4-.4.6-.2.2-.4.3-.6.4-.4.1-.7.1-1 .1zm2.7-5.6h1.4v3.9c0 .1 0 .2.1.3.1.1.2.1.3.1h.2c.1 0 .1 0 .2-.1l.2 1.1c-.2.1-.4.1-.6.2-.2 0-.4.1-.6.1-.3 0-.6-.1-.9-.3-.2-.2-.3-.5-.3-.8v-4.5zm4.8 5.6c-.3 0-.6 0-.9-.2-.3-.1-.5-.2-.7-.4-.2-.2-.3-.4-.4-.6-.1-.2-.2-.5-.1-.8 0-.3.1-.7.2-1 .2-.3.4-.6.7-.8.4-.2.8-.3 1.2-.3.4 0 .8.1 1.2.3.3.2.6.4.7.7.2.3.2.7.2 1v.4h-2.8c0 .1 0 .2.1.3.1.1.2.1.3.2.1 0 .2.1.3.1.2 0 .3 0 .4-.1l.3-.3 1.2.3c-.1.2-.3.4-.4.6-.2.2-.4.3-.7.4-.2.2-.5.2-.8.2zm-.7-2.5h1.3c0-.1-.1-.2-.1-.3-.1-.1-.1-.2-.2-.2-.2-.1-.4-.1-.6 0-.1 0-.2.1-.2.2-.1.1-.2.2-.2.3zm3.5 1.1V221h1.4v2.2c0 .1 0 .3.1.4.1.1.2.2.3.1h.2c.1 0 .2-.1.2-.1.1-.1.2-.1.2-.2V221h1.4v2.3c0 .1 0 .2.1.3.1.1.1.1.2.1v1.2l-.1.1h-.3c-.2 0-.4 0-.6-.1-.1-.1-.2-.2-.3-.4v-.1c-.2.2-.4.4-.7.5-.3.1-.6.2-.9.2-.3 0-.7-.1-.9-.4-.2-.3-.3-.7-.3-1.1zm6.7 1.4c-.3 0-.7-.1-1-.2-.3-.1-.6-.3-.8-.5l.5-.9c.2.1.5.3.7.4.2.1.4.1.6.1h.2l.1-.1s0-.1-.1-.1-.1-.1-.2-.1l-.3-.1c-.3-.1-.5-.2-.8-.3-.2-.1-.3-.2-.5-.3-.1-.2-.2-.4-.1-.6 0-.2.1-.5.2-.7.1-.2.4-.4.6-.5.3-.1.6-.2.9-.2.3 0 .5 0 .8.1.3.1.6.2.8.4l-.6.9-.6-.3c-.1-.1-.3-.1-.5-.1h-.2s-.1 0-.1.1v.1s0 .1.1.1c0 0 .1.1.2.1l.3.1c.3.1.6.2.8.3.2.1.3.2.5.4.1.2.2.4.1.6 0 .4-.1.8-.4 1-.3.2-.7.3-1.2.3zM51.1 158.1v-.8h1.7v6.6H52v-5.8h-.9zm3.4 4.3v-.6l3.2-4.4h1v4.3h.9v.7h-.9v1.5h-.8v-1.5h-3.4zm3.4-4.1l-2.4 3.4h2.4v-3.4zm7.1-.3l-2.5 5.9h-.8l2.6-5.8h-3.5v-.7H65v.6zm1.9 1.9c-.2-.3-.3-.6-.3-.9 0-.7.4-1.3 1-1.5.7-.3 1.6-.3 2.3 0 .3.1.6.3.7.6.2.3.3.6.2.9 0 .3-.1.6-.3.9-.2.3-.5.5-.8.6.4.1.7.3.9.6.2.3.3.6.3 1s-.1.7-.3 1c-.2.3-.5.5-.8.7-.4.2-.8.2-1.2.2-.4 0-.8-.1-1.2-.2-.3-.1-.6-.4-.8-.7-.2-.3-.3-.6-.3-1s.1-.7.3-1c.2-.3.5-.5.9-.6-.1-.1-.4-.3-.6-.6zm.7 1.3c-.3.2-.5.6-.4.9 0 .4.1.7.4.9.3.2.7.4 1.1.4.4 0 .8-.1 1.1-.4.3-.2.4-.6.4-.9 0-.4-.1-.7-.4-.9-.3-.2-.7-.3-1.1-.3-.3 0-.7.1-1.1.3zm2.1-3c-.3-.2-.6-.3-1-.3s-.7.1-1 .3c-.3.2-.4.5-.4.9 0 .3.1.6.4.8.6.4 1.4.4 2 0 .2-.2.4-.5.4-.8 0-.3-.1-.6-.4-.9zm7.6 3.5c.4-.4.8-.8 1.1-1.2.3-.4.4-.8.4-1.3 0-.3-.1-.7-.3-.9-.2-.2-.6-.4-.9-.3-.4 0-.7.1-1 .4-.2.3-.4.6-.4 1h-.8c0-.6.2-1.1.6-1.6.4-.4.9-.6 1.5-.6.5 0 1.1.2 1.5.5.4.4.6.9.6 1.4 0 .5-.2 1-.4 1.5-.3.5-.6.9-1 1.2-.4.4-.9.8-1.5 1.3h3.1v.7h-4.3v-.6c.8-.6 1.4-1.1 1.8-1.5zm5.8 0c.4-.4.8-.8 1.1-1.2.3-.4.4-.8.4-1.3 0-.3-.1-.7-.3-.9-.2-.2-.6-.4-.9-.3-.4 0-.7.1-.9.4-.2.3-.4.6-.4 1h-.8c0-.6.2-1.1.6-1.6.9-.7 2.1-.7 3 0 .4.4.6.9.6 1.4 0 .5-.2 1-.4 1.5-.3.5-.6.9-1 1.2-.4.4-.9.8-1.5 1.3h3.1v.7h-4.4v-.6c.8-.7 1.4-1.2 1.8-1.6zm8.2-3.6h-3.2v2.1c.2-.2.4-.4.6-.5.3-.1.6-.2.9-.2.4 0 .9.1 1.2.3.3.2.5.5.7.8.1.3.2.7.2 1 0 .4-.1.8-.2 1.2-.2.3-.4.6-.8.8-.4.2-.8.3-1.2.3-.6 0-1.1-.1-1.5-.5-.4-.3-.6-.8-.7-1.3h.8c.1.3.2.6.5.8.3.2.6.3 1 .3s.8-.1 1.1-.4c.3-.3.4-.7.4-1.1 0-.4-.1-.8-.4-1.1-.3-.3-.7-.4-1.1-.4-.3 0-.6.1-.8.2-.2.1-.4.4-.5.6h-.9v-3.7h4v.8zm6.2 0h-3.2v2.1c.2-.2.4-.4.6-.5.3-.1.6-.2.9-.2.4 0 .9.1 1.2.3.3.2.5.5.7.8.1.3.2.7.2 1 0 .4-.1.8-.2 1.2-.2.3-.4.6-.8.8-.4.2-.8.3-1.2.3-.6 0-1.1-.1-1.5-.5-.4-.3-.7-.8-.7-1.3h.8c.1.3.2.6.5.8.3.2.6.3 1 .3s.8-.1 1.1-.4c.3-.3.4-.7.4-1.1 0-.4-.1-.8-.4-1.1-.3-.3-.7-.4-1.1-.4-.3 0-.6.1-.8.2-.2.1-.4.4-.5.6h-.8v-3.7h3.9l-.1.8zm4.8 4.3v-.6l3.2-4.4h1v4.3h.9v.7h-.9v1.5h-.8v-1.5h-3.4zm3.4-4.1l-2.4 3.4h2.4v-3.4zm7.3-.2h-3.2v2.1c.2-.2.4-.4.6-.5.3-.1.6-.2.9-.2.4 0 .9.1 1.2.3.3.2.5.5.7.8.1.3.2.7.2 1 0 .4-.1.8-.2 1.2-.2.3-.4.6-.8.8-.4.2-.8.3-1.2.3-.6 0-1.1-.1-1.5-.5-.4-.3-.7-.8-.7-1.3h.8c.1.3.2.6.5.8.3.2.6.3 1 .3s.8-.1 1.1-.4c.3-.3.4-.7.4-1.1 0-.4-.1-.8-.4-1.1-.3-.3-.7-.4-1.1-.4-.3 0-.6.1-.8.2-.2.1-.4.4-.5.6h-.8v-3.7h3.9l-.1.8zm3.5 4.9c.3.2.6.3.9.3.5 0 .9-.2 1.1-.6.3-.6.4-1.3.3-2-.1.3-.4.5-.6.6-.3.2-.7.2-1 .2-.4 0-.7-.1-1.1-.2-.3-.2-.6-.4-.8-.7-.2-.4-.3-.8-.3-1.2 0-.6.2-1.1.6-1.6.4-.4 1-.6 1.6-.6.7-.1 1.4.2 1.8.8.4.8.6 1.6.5 2.4 0 .6-.1 1.3-.2 1.9-.1.4-.3.8-.7 1.1-.4.3-.8.4-1.3.4s-1-.1-1.4-.5c-.3-.3-.6-.8-.6-1.3h.8c0 .5.2.8.4 1zm1.8-2.5c.3-.3.4-.6.4-1s-.1-.8-.4-1.1c-.3-.3-.7-.4-1.1-.4-.4 0-.7.1-1 .4-.5.6-.5 1.5 0 2.1.7.5 1.6.5 2.1 0zm7.1-2.4h-3.2v2.1c.2-.2.4-.4.6-.5.3-.1.6-.2.9-.2.4 0 .9.1 1.2.3.3.2.5.5.7.8.1.3.2.7.2 1 0 .4-.1.8-.2 1.2-.2.3-.4.6-.8.8-.4.2-.8.3-1.2.3-.6 0-1.1-.1-1.5-.5-.4-.3-.6-.8-.7-1.3h.8c.1.3.2.6.5.8.3.2.6.3 1 .3s.8-.1 1.1-.4c.3-.3.4-.7.4-1.1 0-.4-.1-.8-.4-1.1-.3-.3-.7-.4-1.1-.4-.3 0-.6.1-.8.2-.2.1-.4.4-.5.6h-.8v-3.7h3.9l-.1.8zm6.5 4.9c.3.2.6.3.9.3.5 0 .9-.2 1.1-.6.3-.6.4-1.3.3-2-.1.3-.4.5-.6.6-.3.2-.7.2-1 .2-.4 0-.8-.1-1.1-.2-.3-.2-.6-.4-.7-.7-.2-.4-.3-.8-.3-1.2 0-.6.2-1.1.6-1.6.4-.4 1-.6 1.6-.6.7-.1 1.4.2 1.8.8.4.8.6 1.6.5 2.4 0 .6-.1 1.3-.2 1.9-.1.4-.3.8-.7 1.1-.4.3-.9.4-1.3.4-.5 0-1-.1-1.4-.5-.3-.3-.6-.8-.6-1.3h.8c-.1.5.1.8.3 1zm1.9-2.5c.3-.3.4-.6.4-1s-.1-.8-.4-1.1c-.3-.3-.7-.4-1.1-.4-.4 0-.7.1-1 .4-.2.3-.4.6-.4 1s.1.8.4 1.1c.3.3.7.4 1.1.4.4-.1.7-.2 1-.4zm3.3-.6c-.2-.3-.3-.6-.3-.9 0-.3.1-.6.2-.9.2-.3.4-.5.7-.6.7-.3 1.6-.3 2.3 0 .3.1.6.3.7.6.2.3.3.6.2.9 0 .3-.1.7-.3.9-.2.3-.5.5-.8.6.4.1.7.3.9.6.2.3.3.6.3 1s-.1.7-.3 1c-.2.3-.5.5-.8.7-.4.2-.8.2-1.2.2-.4 0-.8-.1-1.2-.2-.3-.1-.6-.4-.8-.7-.2-.3-.3-.6-.3-1s.1-.7.3-1c.2-.3.5-.5.9-.6 0-.1-.3-.3-.5-.6zm.8 1.3c-.3.2-.4.6-.4.9 0 .4.1.7.4.9.7.5 1.5.5 2.2 0 .3-.2.4-.6.4-.9 0-.4-.1-.7-.4-.9-.3-.2-.7-.3-1.1-.3-.4 0-.8.1-1.1.3zm2.1-3c-.6-.4-1.4-.4-2 0-.2.2-.4.5-.4.9 0 .3.1.6.4.8.3.2.6.3 1 .3s.7-.1 1-.3c.5-.4.5-1.1.1-1.6 0 0-.1 0-.1-.1zm7-.2l-2.5 5.9h-.8l2.6-5.8h-3.5v-.7h4.3l-.1.6zm1.2 4.4v-.6l3.2-4.4h1v4.3h.9v.7h-.9v1.5h-.8v-1.5h-3.4zm3.4-4.1l-2.4 3.4h2.4v-3.4zm-96.4 65.8h-2.4l-.4 1.1h-1.6l2.3-6.4H55l2.3 6.4h-1.6l-.5-1.1zm-.4-1.1l-.8-2.3-.8 2.3h1.6zm5-4.4v6.7h-1.5v-6.7h1.5zm6.1 4.5h-3.5c0 .3.1.5.3.7.2.2.4.3.7.2.3 0 .7-.2.8-.5h1.7c-.2.7-.6 1.2-1.3 1.5-.3.2-.7.2-1.1.2-.5 0-.9-.1-1.3-.3-.4-.2-.7-.5-.9-.9-.2-.4-.3-.9-.3-1.4 0-.5.1-.9.3-1.4.2-.4.5-.7.9-.9.8-.4 1.8-.4 2.6 0 .4.2.7.5.9.9.2.4.3.9.3 1.3-.1.3-.1.4-.1.6zm-1.6-.9c0-.2-.1-.5-.3-.6-.4-.3-.9-.3-1.3 0-.2.2-.3.4-.3.6h1.9zm4.3 3.7c0 .5-.1 1-.5 1.3-.4.3-.8.4-1.3.4h-.6v-1.3h.4c.1 0 .3 0 .4-.1.1-.1.1-.2.1-.3v-5.7h1.6l-.1 5.7zm-1.5-6.5c-.2-.1-.3-.4-.3-.6 0-.2.1-.4.3-.6.4-.3.9-.3 1.3 0 .2.2.3.4.3.6 0 .2-.1.4-.3.6-.3.4-.9.4-1.3 0zm2.8 1.9c.2-.4.5-.7.8-.9.3-.2.7-.3 1.1-.3.3 0 .6.1.9.2.3.1.5.3.6.6v-.7H75v5.1h-1.6v-.7l-.6.6c-.3.2-.6.2-.9.2-.4 0-.8-.1-1.1-.3-.3-.2-.6-.5-.8-.9-.2-.4-.3-.9-.3-1.4-.1-.6 0-1 .2-1.5zm3.2.5c-.4-.4-1.1-.4-1.5 0-.4.5-.4 1.3 0 1.8.2.2.5.4.8.3.3 0 .6-.1.8-.3.2-.3.3-.6.3-.9 0-.3-.2-.6-.4-.9zm7.8-1.1c.4.4.6 1 .5 1.6v3h-1.5v-2.8c0-.3-.1-.6-.3-.8-.4-.4-1-.4-1.4 0-.2.2-.3.5-.3.8v2.8h-1.6v-5.1h1.6v.7c.2-.2.4-.4.6-.5.3-.1.6-.2.9-.2.6-.1 1.1.1 1.5.5zm1.8.6c.2-.4.5-.7.8-.9.3-.2.7-.3 1.1-.3.3 0 .6.1.9.2.3.1.5.3.6.6v-2.3h1.6v6.7h-1.6v-.7c-.1.2-.4.4-.6.6-.3.2-.6.2-.9.2-.4 0-.8-.1-1.1-.3-.3-.2-.6-.5-.8-.9-.2-.4-.3-.9-.3-1.4 0-.6.1-1 .3-1.5zm3.2.5c-.4-.4-1.1-.4-1.5 0-.4.5-.4 1.3 0 1.8.2.2.5.3.8.3.3 0 .6-.1.8-.3.2-.3.3-.6.3-.9-.1-.3-.2-.6-.4-.9zm5.4-1.4c.3-.2.6-.2.9-.2v1.6h-.4c-.3 0-.6.1-.9.2-.2.2-.3.6-.3.9v2.4h-1.5v-5.1h1.6v.8c.2-.2.4-.5.6-.6zm2 .9c.2-.4.5-.7.8-.9.3-.2.7-.3 1.1-.3.3 0 .6.1.9.2.3.1.5.3.6.6v-.7h1.6v5.1h-1.6v-.7l-.6.6c-.3.2-.6.2-.9.2-.4 0-.8-.1-1.1-.3-.3-.2-.6-.5-.8-.9-.2-.4-.3-.9-.3-1.4 0-.6.1-1 .3-1.5zm3.1.5c-.4-.4-1.1-.4-1.5 0-.4.5-.4 1.3 0 1.8.2.2.5.3.8.3.3 0 .6-.1.8-.3.2-.3.3-.6.3-.9 0-.3-.1-.6-.4-.9zm10.1.2c-.2.3-.5.6-.8.7-.4.2-.9.3-1.3.3h-1v2.3h-1.6v-6.4h2.5c.4 0 .9.1 1.3.3.3.2.6.4.8.7.2.3.3.7.3 1.1 0 .3-.1.7-.2 1zm-1.6-.4c.3-.3.3-.8 0-1.2-.2-.2-.4-.2-.7-.2h-.8v1.6h.8c.3 0 .6-.1.7-.2zm7.6 1.5H109c0 .3.1.5.3.7.2.2.4.3.7.2.3 0 .7-.2.8-.5h1.6c-.1.3-.2.6-.5.9-.2.3-.5.5-.8.6-.8.3-1.7.3-2.4-.1-.4-.2-.7-.5-.9-.9-.2-.4-.3-.9-.3-1.4 0-.5.1-.9.3-1.4.2-.4.5-.7.9-.9.4-.2.9-.3 1.3-.3.5 0 .9.1 1.3.3.4.2.7.5.9.9.2.4.3.9.3 1.3.1.3.1.4 0 .6zm-1.4-4.2l-2.2.9v-1.1l2.2-1.1v1.3zm-.1 3.3c0-.2-.1-.5-.3-.6-.4-.3-.9-.3-1.3 0-.2.2-.3.4-.3.6h1.9zm4.9-1.8c.3-.2.6-.2.9-.2v1.6h-.4c-.3 0-.6.1-.9.2-.2.2-.3.6-.3.9v2.4h-1.6v-5.1h1.6v.8c.2-.2.4-.5.7-.6zm6.6 2.7H119c0 .3.1.5.3.7.2.2.4.3.7.2.3 0 .7-.2.8-.5h1.6c-.1.3-.2.6-.5.9-.2.3-.5.5-.8.6-.3.2-.7.2-1.1.2-.5 0-.9-.1-1.3-.3-.4-.2-.7-.5-.9-.9-.2-.4-.3-.9-.3-1.4 0-.5.1-.9.3-1.4.2-.4.5-.7.9-.9.8-.4 1.8-.4 2.6 0 .4.2.7.5.9.9.2.4.3.9.3 1.3.1.3.1.4 0 .6zm-1.5-.9c0-.2-.1-.5-.3-.6-.2-.2-.4-.2-.7-.2-.2 0-.5.1-.6.2-.2.2-.3.4-.3.6h1.9zm4.1 1.8h2.2v1.3h-3.9V224l2.1-2.6h-2.1v-1.3h3.9v1.2l-2.2 2.7zm-70.8-13.3c-.4.3-.9.4-1.3.4h-1.1v2.2h-.5V208H53c.5 0 1 .1 1.3.4.6.7.6 1.7 0 2.3zm-.1-1.1c0-.3-.1-.6-.3-.8-.3-.2-.6-.3-.9-.3h-1.1v2.1H53c.8 0 1.2-.3 1.2-1zm2.7-.2c.3-.1.6-.2.9-.2v.6h-.2c-.6-.1-1.2.4-1.3 1v2.6h-.5v-4.1h.5v.8c.2-.4.3-.6.6-.7zm2.6 3.7c-.3-.2-.6-.4-.7-.7-.4-.7-.4-1.5 0-2.2.2-.3.4-.6.7-.7.3-.2.7-.3 1-.3.4 0 .7.1 1.1.3.3.2.6.4.7.7.2.3.3.7.3 1.1 0 .4-.1.8-.3 1.1-.2.3-.4.6-.8.7-.3.2-.7.3-1 .3-.3 0-.6-.1-1-.3zm1.8-.3c.2-.1.4-.3.6-.6.2-.3.2-.6.2-.9 0-.3-.1-.6-.2-.9-.1-.2-.3-.4-.6-.6-.5-.3-1-.3-1.5 0-.2.1-.4.3-.6.6-.1.3-.2.6-.2.9 0 .3.1.6.2.9.1.2.3.4.6.6.2.1.5.2.8.2.2-.1.5-.1.7-.2zm3.7-3.4c.3-.2.6-.3 1-.3s.7.1 1 .3c.3.2.5.4.7.7.3.7.3 1.5 0 2.2-.2.3-.4.6-.7.8-.3.2-.6.3-1 .3s-.7-.1-1-.3c-.3-.2-.5-.4-.6-.7v2.9h-.5v-6.1h.5v.9c.1-.3.3-.5.6-.7zm2.2 1c-.1-.2-.3-.4-.5-.6-.2-.1-.5-.2-.8-.2-.3 0-.5.1-.8.2-.2.1-.4.3-.6.6-.1.3-.2.6-.2.9 0 .3.1.6.2.9.1.2.3.4.6.6.2.1.5.2.8.2.3 0 .5-.1.8-.2.2-.1.4-.3.5-.6.1-.3.2-.6.2-.9 0-.3 0-.6-.2-.9zm2-2.1c-.1-.1-.1-.2-.1-.3 0-.1 0-.2.1-.3.1-.1.2-.1.3-.1.1 0 .2 0 .3.1.1.1.1.2.1.3 0 .2-.2.4-.4.4-.2.1-.3 0-.3-.1zm.5.9v4.1h-.5v-4.1h.5zm5.1 2.3h-3.4c0 .3.1.6.2.8.1.2.3.4.5.5.2.1.5.2.7.2.3 0 .6-.1.9-.2.2-.2.4-.4.5-.7h.6c-.1.4-.3.8-.6 1-.4.3-.8.4-1.2.4-.3 0-.7-.1-1-.3-.3-.2-.6-.4-.7-.7-.2-.3-.3-.7-.3-1.1 0-.4.1-.8.2-1.1.2-.3.4-.6.7-.7.3-.2.7-.3 1.1-.3.4 0 .7.1 1 .3.3.2.5.4.7.7.2.3.2.7.2 1-.1-.1-.1.1-.1.2zm-.7-1.2c-.1-.2-.3-.4-.5-.5-.2-.1-.5-.2-.7-.2-.4 0-.7.1-1 .4-.3.3-.5.7-.5 1.1h2.9c0-.3 0-.6-.2-.8zm2.6-.6v2.6c0 .2 0 .4.1.5.1.1.3.2.5.1h.5v.4h-.6c-.3 0-.6-.1-.8-.3-.2-.2-.3-.5-.3-.9v-2.6h-.6v-.4h.6v-1h.5v1h1.1v.4h-1zm2.2.5c.2-.3.4-.6.7-.7.3-.2.6-.3 1-.3s.7.1 1 .3c.3.2.5.4.6.7v-.9h.5v4.1h-.5v-.9c-.1.3-.4.5-.6.7-.3.2-.6.3-1 .3s-.7-.1-1-.3c-.3-.2-.5-.4-.7-.8-.3-.7-.3-1.5 0-2.2zm3.2.2c-.1-.2-.3-.4-.6-.6-.2-.1-.5-.2-.8-.2-.3 0-.5.1-.8.2-.2.1-.4.3-.6.6-.1.3-.2.6-.2.9 0 .3.1.6.2.9.1.2.3.4.6.6.5.3 1.1.3 1.6 0 .2-.1.4-.3.6-.6.1-.3.2-.6.2-.9 0-.3-.1-.6-.2-.9zm3.2-1c.3-.1.6-.2.9-.2v.6h-.1c-.3 0-.7.1-.9.3-.3.3-.4.6-.3 1v2.3h-.5v-4.1h.5v.8c0-.4.2-.6.4-.7zm1.9-1.1c-.1-.1-.1-.2-.1-.3 0-.1 0-.2.1-.3.1-.1.2-.1.3-.1.1 0 .2 0 .3.1.1.1.1.2.1.3 0 .2-.2.4-.4.4-.1.1-.2 0-.3-.1zm.5.9v4.1h-.5v-4.1h.5zm2.2 3.9c-.3-.2-.6-.4-.7-.7-.4-.7-.4-1.5 0-2.2.2-.3.4-.6.7-.7.3-.2.7-.3 1-.3.4 0 .7.1 1.1.3.3.2.6.4.7.7.2.3.3.7.3 1.1 0 .4-.1.8-.3 1.1-.2.3-.4.6-.7.7-.3.2-.7.3-1.1.3-.3 0-.7-.1-1-.3zm1.8-.3c.2-.1.4-.3.6-.6.1-.3.2-.6.2-.9 0-.3-.1-.6-.2-.9-.1-.2-.3-.4-.6-.6-.2-.1-.5-.2-.8-.2-.3 0-.5.1-.8.2-.2.1-.4.3-.6.6-.1.3-.2.6-.2.9 0 .3.1.6.2.9.1.2.3.4.6.6.2.1.5.2.8.2.3-.1.6-.1.8-.2zm115.4-79.9v-.5h1.3v5.4h-.5v-4.9h-.8zm4.7 2.7c.4-.4.7-1 .8-1.6 0-.3-.1-.6-.3-.8-.2-.2-.5-.3-.9-.3-.3 0-.7.1-.9.4-.2.3-.3.6-.4.9h-.5c0-.5.2-1 .5-1.3.7-.6 1.7-.6 2.4-.1.3.3.5.7.5 1.2 0 .7-.3 1.3-.8 1.8-.6.6-1.2 1.2-1.9 1.7h2.8v.4h-3.6v-.4c.9-.6 1.6-1.3 2.3-1.9zm5-4.8l-2.1 8.3h-.5l2.1-8.3h.5zm3.1 4.8c.5-.4.7-1 .8-1.6 0-.3-.1-.6-.3-.8-.2-.2-.5-.3-.9-.3-.3 0-.7.1-.9.4-.2.3-.3.6-.4.9h-.5c0-.5.2-1 .5-1.3.7-.6 1.7-.6 2.4-.1.3.3.5.7.5 1.2 0 .7-.3 1.3-.8 1.8-.6.6-1.2 1.2-1.9 1.7h2.8v.4h-3.6v-.4c.9-.6 1.6-1.3 2.3-1.9zm2.3 1v-.4l2.7-3.7h.6v3.6h.8v.5h-.8v1.3h-.5v-1.3h-2.8zm2.8-3.5l-2.3 3.1h2.3v-3.1z"/><path d="M86.7 264H186c10.1 0 18.2 8.2 18.2 18.2 0 10.1-8.2 18.2-18.2 18.2H86.7c-10.1 0-18.2-8.2-18.2-18.2-.1-10 8.1-18.2 18.2-18.2z" fill="#6034a6"/><path class="st0" d="M86.8 266.6h33.9c8.7 0 15.7 7 15.7 15.7s-7 15.7-15.7 15.7H86.8c-8.7 0-15.7-7-15.7-15.7s7.1-15.7 15.7-15.7z"/><path class="st3" d="M88.5 278.9c.7.3 1.2.9 1.6 1.5.7 1.4.7 3.1 0 4.5-.4.7-.9 1.2-1.6 1.5-.7.4-1.6.6-2.4.5h-3.2v-8.7h3.2c.8.1 1.6.3 2.4.7zm-.7 5.6c.5-.5.7-1.2.7-1.9.1-1.3-.8-2.4-2.1-2.5h-1.5v5h1c.7.1 1.4-.1 1.9-.6zm10.8-.4h-4.8c0 .4.1.7.4 1 .2.2.6.3.9.3.5 0 .9-.2 1.1-.7h2.2c-.1.5-.3.9-.6 1.2-.3.4-.7.7-1.1.9-.5.2-1 .3-1.5.3-.6 0-1.2-.1-1.8-.4-.5-.3-1-.7-1.2-1.2-.3-.6-.5-1.2-.4-1.9 0-.7.1-1.3.4-1.9.3-.5.7-1 1.2-1.2.6-.3 1.2-.5 1.8-.4.6 0 1.2.1 1.8.4.5.3.9.7 1.2 1.2.3.6.5 1.2.4 1.8.1.2.1.4 0 .6zm-2.1-1.2c0-.3-.1-.6-.4-.9-.5-.4-1.3-.4-1.8 0-.3.2-.4.5-.4.9h2.6zm6.6-2.6c.4-.2.8-.3 1.3-.3s1.1.1 1.5.4c.5.3.9.7 1.1 1.2.5 1.2.5 2.6 0 3.7-.2.5-.6.9-1.1 1.2-.5.3-1 .4-1.5.4-.4 0-.9-.1-1.3-.3-.3-.2-.6-.4-.8-.8v1h-2.1v-9.1h2.1v3.2c.2-.1.5-.4.8-.6zm1.8 2c-.3-.3-.7-.5-1.1-.5-.4 0-.8.2-1.1.5-.6.7-.6 1.8 0 2.5.3.3.7.5 1.1.5.4 0 .8-.2 1.1-.5.5-.7.5-1.8 0-2.5zm4.2-3.2c-.5-.4-.5-1.1-.1-1.6 0 0 0-.1.1-.1.5-.4 1.3-.4 1.8 0s.5 1.1 0 1.6-1.3.5-1.8.1zm2 1v6.9H109v-6.9h2.1zm5.7 5.1v1.8h-1.1c-.6 0-1.3-.2-1.8-.6-.5-.5-.7-1.2-.6-1.8v-2.7h-.8v-1.8h.8v-1.7h2.1v1.7h1.4v1.8h-1.4v2.8c0 .2 0 .3.1.4.1.1.3.2.5.1h.8zm2.9 1.5c-.5-.3-1-.7-1.3-1.2-.6-1.2-.6-2.6 0-3.8.3-.5.7-1 1.3-1.2.6-.3 1.2-.4 1.8-.4.6 0 1.3.1 1.8.4.5.3 1 .7 1.3 1.2.6 1.2.6 2.6 0 3.8-.3.5-.8 1-1.3 1.2-.6.3-1.2.4-1.8.4-.7 0-1.3-.1-1.8-.4zm2.8-1.9c.6-.8.6-1.8 0-2.5-.3-.3-.6-.5-1-.5s-.7.2-1 .4c-.3.4-.4.8-.4 1.3s.1.9.4 1.3c.3.3.6.4 1 .4.4.1.7-.1 1-.4zm22.9-4.4c.4-.7.9-1.2 1.6-1.6.7-.4 1.5-.6 2.2-.6.9 0 1.9.3 2.6.8.7.5 1.3 1.3 1.5 2.2H151c-.2-.3-.4-.6-.7-.8-.3-.2-.7-.3-1.1-.3-.6 0-1.2.2-1.6.7-.8 1.1-.8 2.6 0 3.6.4.4 1 .7 1.6.7.4 0 .8-.1 1.1-.3.3-.2.6-.5.7-.8h2.3c-.2.9-.7 1.7-1.5 2.2-.8.6-1.7.8-2.6.8-.8 0-1.6-.2-2.2-.6-.7-.4-1.2-.9-1.6-1.6-.7-1.3-.7-3 0-4.4zm12.7 0c.4-.2.8-.4 1.3-.4v2.2h-.6c-.4 0-.8.1-1.2.3-.3.3-.5.8-.4 1.2v3.2h-2.1V280h2.1v1.1c.2-.2.5-.5.9-.7zm9.1 3.7h-4.8c0 .4.1.7.4 1 .2.2.6.3.9.3.5 0 .9-.2 1.1-.7h2.2c-.1.5-.3.9-.6 1.2-.3.4-.7.7-1.1.9-.5.2-1 .3-1.5.3-.6 0-1.3-.1-1.8-.4-.5-.3-1-.7-1.2-1.2-.3-.6-.5-1.2-.4-1.9 0-.7.1-1.3.4-1.9.3-.5.7-1 1.2-1.2 1.1-.6 2.5-.6 3.6 0 .5.3.9.7 1.2 1.2.3.6.5 1.2.4 1.8v.6zm-2.2-1.2c0-.3-.1-.6-.4-.9-.3-.2-.6-.3-.9-.3-.3 0-.6.1-.9.3-.3.2-.4.5-.5.9h2.7zm3.7-1.2c.2-.5.6-.9 1.1-1.2.5-.3 1-.5 1.6-.4.4 0 .9.1 1.2.3.4.2.7.4.9.8V278h2.1v9.1h-2.1v-1c-.2.3-.5.6-.8.8-.4.2-.8.3-1.3.3s-1.1-.1-1.6-.4c-.5-.3-.9-.7-1.1-1.2-.5-1.4-.5-2.8 0-3.9zm4.3.6c-.3-.3-.7-.5-1.1-.5-.4 0-.8.2-1.1.5-.3.3-.5.8-.4 1.2 0 .5.1.9.4 1.2.5.6 1.5.6 2.1.1l.1-.1c.6-.7.6-1.7 0-2.4zm4.6-3.2c-.5-.4-.5-1.1-.1-1.6 0 0 0-.1.1-.1.2-.2.6-.3.9-.3.3 0 .6.1.9.3.5.4.5 1.1 0 1.6-.2.2-.6.3-.9.3-.3.1-.7 0-.9-.2zm2 1v6.9h-2.1v-6.9h2.1zm5.8 5.1v1.8h-1.1c-.6 0-1.3-.2-1.8-.6-.5-.5-.7-1.2-.6-1.8v-2.7h-.9v-1.8h.8v-1.7h2.1v1.7h1.4v1.8H184v2.8c0 .2 0 .3.1.4.1.1.3.2.5.1h.8zm2.8 1.5c-.5-.3-1-.7-1.3-1.2-.6-1.2-.6-2.6 0-3.8.3-.5.7-1 1.3-1.2.6-.3 1.2-.4 1.8-.4.6 0 1.3.1 1.8.4.5.3 1 .7 1.3 1.2.3.6.5 1.2.5 1.9s-.2 1.3-.5 1.9c-.3.5-.8 1-1.3 1.2-.6.3-1.2.4-1.8.4-.6 0-1.3-.1-1.8-.4zm2.8-1.9c.3-.4.5-.8.4-1.3 0-.5-.1-.9-.4-1.3-.5-.6-1.4-.6-2-.1l-.1.1c-.3.4-.4.8-.4 1.3s.1.9.4 1.3c.3.3.6.4 1 .4.5.1.9-.1 1.1-.4z"/><path class="st7" d="M26.8 348.5h16.9c2.8 0 5 2.2 5 5v16.9c0 2.8-2.2 5-5 5H26.8c-2.8 0-5-2.2-5-5v-16.9c0-2.7 2.3-5 5-5z"/><path class="st3" d="M60.4 354.8c.3-.5.7-1 1.3-1.3.6-.3 1.2-.5 1.9-.5.8 0 1.5.2 2.2.7.6.4 1 1.1 1.2 1.8h-2c-.1-.3-.3-.5-.6-.7-.7-.4-1.6-.3-2.2.3-.7.9-.7 2.1 0 3 .6.6 1.5.7 2.2.3.3-.2.5-.4.6-.7h1.9c-.2.7-.6 1.4-1.2 1.8-.6.5-1.4.7-2.2.7-.7 0-1.3-.2-1.9-.5-.5-.3-1-.7-1.3-1.3-.3-.6-.5-1.2-.5-1.9.1-.5.3-1.2.6-1.7zm9 5.2c-.4-.2-.8-.6-1-1-.5-1-.5-2.1 0-3.1.3-.4.6-.8 1.1-1 .9-.5 2.1-.5 3 0 .4.2.8.6 1.1 1 .3.5.4 1 .4 1.5s-.1 1.1-.4 1.5c-.3.4-.6.8-1.1 1-.5.2-1 .4-1.5.4-.6.1-1.1-.1-1.6-.3zm2.4-1.5c.2-.3.4-.7.3-1 0-.4-.1-.8-.3-1-.2-.2-.5-.4-.8-.4-.3 0-.6.1-.8.4-.2.3-.4.7-.3 1 0 .4.1.8.3 1 .2.2.5.4.8.4.2-.1.5-.2.8-.4zm12.2-3.3c.4.5.7 1.1.6 1.8v3.3h-1.7v-3.1c0-.3-.1-.6-.3-.9-.5-.4-1.1-.4-1.6 0-.2.2-.3.5-.3.9v3.1H79v-3.1c0-.3-.1-.6-.3-.9-.2-.2-.5-.3-.8-.3-.3 0-.6.1-.8.3-.2.2-.3.5-.3.9v3.1h-1.7v-5.7h1.7v.7c.2-.2.4-.4.7-.6.3-.1.7-.2 1-.2.4 0 .8.1 1.1.3.3.2.6.4.8.8.2-.3.5-.6.8-.8.3-.2.7-.3 1.1-.3.7 0 1.3.2 1.7.7zm4.6-.5c.3-.2.7-.3 1-.2.4 0 .9.1 1.3.4.4.2.7.6.9 1 .2.5.3 1 .3 1.5s-.1 1.1-.3 1.5c-.2.4-.5.8-.9 1-.4.2-.8.4-1.3.4-.3 0-.7-.1-1-.2-.3-.1-.5-.4-.7-.6v3.6h-1.7v-8.4h1.7v.8c.2-.4.4-.6.7-.8zm1.5 1.7c-.2-.2-.6-.4-.9-.4-.3 0-.7.1-.9.4-.5.6-.5 1.4 0 2 .2.2.5.4.9.4.3 0 .7-.1.9-.4.4-.6.4-1.5 0-2zm5.8-1.6c.3-.2.6-.3 1-.3v1.8h-.5c-.4 0-.7.1-1 .3-.3.3-.4.6-.3 1v2.6h-1.7v-5.7h1.7v1c.2-.2.5-.5.8-.7zm2.2 1.1c.2-.4.5-.8.9-1 .4-.2.8-.4 1.3-.4.4 0 .7.1 1.1.2.3.1.5.4.7.6v-.8h1.7v5.7H102v-.8c-.2.3-.4.5-.7.6-.7.4-1.6.3-2.3-.1-.4-.2-.7-.6-.9-1-.2-.5-.3-1-.3-1.5-.1-.5 0-1 .3-1.5zm3.5.5c-.2-.2-.5-.4-.9-.4-.3 0-.7.1-.9.4-.2.3-.4.6-.4 1s.1.7.4 1c.2.2.5.4.9.4.3 0 .7-.1.9-.4.5-.6.5-1.4 0-2zm6.3-1.6c.3-.5.7-1 1.3-1.3.6-.3 1.2-.5 1.9-.5.8 0 1.5.2 2.2.7.6.5 1 1.1 1.2 1.8h-1.9c-.1-.3-.3-.5-.6-.7-.3-.2-.6-.2-.9-.2-.5 0-1 .2-1.3.6-.7.9-.7 2.1 0 3 .3.4.8.6 1.3.6.3 0 .6-.1.9-.2.3-.2.5-.4.6-.7h1.9c-.2.7-.6 1.4-1.2 1.8-.6.5-1.4.7-2.2.7-.7 0-1.3-.2-1.9-.5-.5-.3-1-.7-1.3-1.3-.3-.6-.5-1.2-.5-1.9.1-.7.2-1.3.5-1.9zm9 5.2c-.4-.2-.8-.6-1.1-1-.5-1-.5-2.1 0-3.1.3-.4.6-.8 1.1-1 .9-.5 2.1-.5 3 0 .4.2.8.6 1 1 .5 1 .5 2.1 0 3.1-.3.4-.6.8-1.1 1-.5.2-1 .4-1.5.4-.5-.1-.9-.2-1.4-.4zm2.4-1.5c.2-.3.4-.7.4-1 0-.4-.1-.8-.3-1-.4-.5-1.2-.5-1.7 0-.4.6-.4 1.5 0 2.1.2.2.5.4.8.4.2-.2.5-.3.8-.5zm12.3-3.3c.4.5.7 1.1.6 1.8v3.3h-1.7v-3.1c0-.3-.1-.6-.3-.9-.2-.2-.5-.3-.8-.3-.3 0-.6.1-.8.3-.2.2-.3.5-.3.9v3.1h-1.7v-3.1c0-.3-.1-.6-.3-.9-.2-.2-.5-.3-.8-.3-.3 0-.6.1-.8.3-.2.2-.3.5-.3.9v3.1h-1.7v-5.7h1.7v.7c.2-.2.4-.4.7-.6.3-.2.7-.2 1-.2.4 0 .8.1 1.1.3.3.2.6.4.8.8.2-.3.5-.6.8-.8.3-.2.7-.3 1.1-.3.6 0 1.2.2 1.7.7zm2.2-1.5c-.2-.2-.3-.4-.3-.7 0-.3.1-.5.3-.7.2-.2.5-.3.8-.3.3 0 .5.1.7.3.2.2.3.4.3.7 0 .3-.1.5-.3.7-.2.2-.5.3-.7.3-.3 0-.6-.1-.8-.3zm1.6.9v5.7h-1.7v-5.7h1.7zm1.6 1.3c.2-.4.5-.8.9-1 .4-.2.8-.4 1.3-.4.3 0 .7.1 1 .2.3.1.5.4.7.6v-2.6h1.7v7.5h-1.7v-.8c-.2.3-.4.5-.7.6-.3.2-.7.3-1.1.2-.5 0-.9-.1-1.3-.4-.4-.2-.7-.6-.9-1-.2-.5-.3-1-.3-1.5 0-.4.1-.9.4-1.4zm3.6.5c-.5-.5-1.2-.5-1.7 0-.2.3-.4.6-.4 1s.1.7.4 1c.2.2.5.4.9.4.3 0 .7-.1.9-.4.3-.6.3-1.4-.1-2zm3.6-.5c.2-.4.5-.8.9-1 .4-.2.8-.4 1.3-.4.4 0 .7.1 1.1.2.3.1.5.4.7.6v-.8h1.7v5.7h-1.7v-.8c-.2.3-.4.5-.7.6-.3.2-.7.3-1.1.2-.5 0-.9-.1-1.3-.4-.4-.2-.7-.6-.9-1-.2-.5-.3-1-.3-1.5 0-.4.1-.9.3-1.4zm3.6.5c-.5-.5-1.2-.5-1.7 0-.3.3-.4.6-.4 1s.1.7.4 1c.2.2.5.4.9.4.3 0 .7-.1.9-.4.3-.6.3-1.4-.1-2z"/><path class="st8" d="M63.2 370.7h-2.3l-.4 1.2H60l1.9-5h.6l1.8 5h-.5l-.6-1.2zm-.2-.4l-1-2.7-1 2.7h2zm3.6 1.1l1.3-3.4h.5l-1.6 4h-.6l-1.6-4h.5l1.5 3.4zm6.3-1.3h-3.3c0 .3.1.5.2.8.1.2.3.4.5.5.2.1.5.2.7.2.3 0 .6-.1.8-.2.2-.2.4-.4.4-.6h.5c-.1.4-.3.7-.6.9-.3.3-.8.4-1.2.4-.3 0-.7-.1-1-.2-.3-.2-.6-.4-.7-.7-.2-.3-.3-.7-.3-1.1 0-.4.1-.8.2-1.1.2-.3.4-.5.7-.7.3-.2.7-.2 1-.2.3 0 .7.1 1 .2.3.2.5.4.7.7.2.3.2.6.2.9.2 0 .2.1.2.2zm-.6-1.1c-.1-.2-.3-.4-.5-.5-.2-.1-.5-.2-.7-.2-.4 0-.7.1-1 .4-.3.3-.4.6-.4 1h2.8c-.1-.2-.1-.5-.2-.7zm2.8-.9c.3-.1.6-.2.8-.2v.5h-.1c-.6-.1-1.2.4-1.2 1v2.5h-.5v-4h.5v.7c.1-.2.3-.4.5-.5zm2 3.7c-.1-.1-.1-.2-.1-.3 0-.1 0-.2.1-.3.1-.1.2-.1.3-.1.1 0 .2 0 .3.1.1.1.1.2.1.3 0 .2-.1.4-.3.4h-.1c-.1.1-.2 0-.3-.1zm.5-5l-.1 3.7h-.4l-.1-3.7h.6z"/><path class="st4" d="M226.4 363v.8h-4.1v-.8h4.1zm6.3 3.1c-.2.3-.4.6-.7.7-.3.2-.7.3-1.1.3v.8h-.5v-.8c-.6 0-1.1-.2-1.5-.6-.4-.3-.6-.8-.6-1.3h1c0 .3.1.5.3.7.2.2.5.4.8.4v-2.5c-.4-.1-.7-.2-1.1-.4-.3-.1-.5-.3-.7-.6-.2-.3-.3-.6-.3-1 0-.5.2-1 .6-1.4.4-.4 1-.6 1.5-.6v-.9h.6v.9c.5 0 1 .2 1.4.5.4.3.6.8.6 1.3h-1c0-.2-.1-.5-.3-.6-.2-.2-.4-.3-.7-.4v2.5c.4.1.7.2 1.1.4.3.1.5.3.7.6.2.3.3.7.3 1-.1.4-.2.7-.4 1zm-3.2-3.5c.3.2.6.4.9.4v-2.4c-.3 0-.6.1-.9.3-.2.2-.3.5-.3.8 0 .5.1.7.3.9zm2.2 3.5c.2-.2.3-.5.3-.8 0-.3-.1-.6-.3-.8-.3-.2-.5-.4-.9-.4v2.4c.4-.1.7-.2.9-.4zm2.9-5.5v-.9h1.9v7.4h-.9v-6.5h-1zm8.5 0h-3.6v2.3c.2-.2.4-.4.7-.5.3-.1.7-.2 1-.2.5 0 1 .1 1.4.4.3.2.6.5.8.9.3.8.3 1.7 0 2.5-.2.4-.5.7-.8.9-.4.2-.9.3-1.4.3-.6 0-1.2-.2-1.7-.5-.4-.4-.7-.9-.8-1.5h.9c.1.4.3.7.6.9.3.2.7.3 1.1.3.5 0 .9-.1 1.2-.5.3-.4.4-.8.4-1.3 0-.4-.1-.9-.4-1.2-.3-.3-.8-.5-1.2-.4-.3 0-.7.1-.9.3-.3.2-.5.4-.6.7h-.9v-4.2h4.4l-.2.8zm2.6.1c.4-.7 1.2-1.1 2-1 .8-.1 1.6.3 2 1 .4.8.6 1.8.6 2.7 0 1-.1 1.9-.6 2.8-.4.7-1.2 1.1-2 1-.8.1-1.6-.3-2-1-.4-.9-.6-1.8-.6-2.8 0-1 .2-1.9.6-2.7zm3.5 1.2c-.1-.4-.2-.7-.5-1-.6-.5-1.5-.5-2.1 0-.3.3-.4.6-.5 1-.2 1-.2 2 0 3 0 .4.2.7.5 1 .6.5 1.5.5 2.1 0 .3-.3.4-.6.5-1 .2-1 .2-2 0-3z"/><path class="st7" d="M26.8 396.6h16.9c2.8 0 5 2.2 5 5v16.9c0 2.8-2.2 5-5 5H26.8c-2.8 0-5-2.2-5-5v-16.9c0-2.7 2.3-5 5-5z"/><path class="st3" d="M67 401.2l-2.5 7.1h-2.2l-2.5-7.1h1.8l1.8 5.4 1.8-5.4H67zm6.3 4.8h-4c0 .3.1.6.3.8.2.2.5.3.7.3.4 0 .8-.2.9-.5H73c-.1.4-.3.7-.5 1-.3.3-.6.5-.9.7-.4.2-.8.3-1.3.2-.5 0-1-.1-1.5-.4-.4-.2-.8-.6-1-1-.3-.5-.4-1-.4-1.5s.1-1.1.4-1.5c.2-.4.6-.8 1-1 .5-.2 1-.4 1.5-.4s1 .1 1.5.3c.4.2.8.6 1 1 .2.5.4 1 .4 1.5.1.2.1.3.1.5zm-1.7-1c0-.3-.1-.5-.3-.7-.2-.2-.5-.3-.8-.3-.3 0-.5.1-.7.3-.2.2-.4.4-.4.7h2.2zm8-1.7c.4.5.6 1.1.6 1.8v3.3h-1.7v-3.1c0-.3-.1-.6-.3-.9-.4-.4-1.1-.4-1.6 0-.2.2-.3.6-.3.9v3.1h-1.7v-5.7h1.8v.8c.2-.3.4-.5.7-.6.3-.2.7-.2 1-.2.6-.1 1.1.1 1.5.6zm5.3 3.6v1.5H84c-.5 0-1.1-.1-1.5-.5-.4-.4-.6-1-.5-1.5v-2.3h-.7v-1.4h.7v-1.4h1.7v1.4h1.1v1.5h-1.2v2.3c0 .1 0 .3.1.4.1.1.3.1.4.1h.8zm1.3-2.9c.2-.4.5-.8.9-1 .4-.2.8-.4 1.3-.4.4 0 .7.1 1.1.2.3.2.5.4.7.6v-.8h1.7v5.7h-1.7v-.8c-.2.3-.4.5-.7.6-.3.2-.7.2-1.1.2-.4 0-.9-.1-1.3-.4-.4-.2-.7-.6-.9-1-.5-.8-.5-1.9 0-2.9zm3.5.5c-.5-.5-1.2-.5-1.7 0-.2.3-.4.6-.4 1s.1.7.4 1c.2.3.5.4.9.4.3 0 .7-.1.9-.4.4-.6.4-1.4-.1-2zm4.6 3.7c-.4-.1-.7-.4-.9-.7-.2-.3-.3-.6-.4-1h1.7c0 .2.1.4.3.5.2.1.4.2.6.2.2 0 .4 0 .5-.1.1-.1.2-.2.2-.3 0-.2-.1-.3-.3-.4-.3-.1-.5-.2-.8-.3-.3-.1-.7-.2-1-.3-.3-.1-.5-.3-.7-.5-.2-.3-.3-.6-.3-.9 0-.3.1-.6.3-.9.2-.3.5-.5.8-.6.4-.2.8-.2 1.2-.2.6 0 1.2.2 1.7.5.4.4.7.9.7 1.4h-1.6c0-.2-.1-.4-.3-.5-.2-.1-.4-.2-.6-.2-.2 0-.3 0-.5.1-.1.1-.2.2-.2.3 0 .2.1.3.3.4.3.1.5.2.8.2.4.1.8.2 1 .3.3.1.5.3.7.5.2.3.3.6.3.9 0 .3-.1.6-.3.9-.2.3-.5.5-.8.6-.4.2-.8.2-1.2.2-.3.1-.7.1-1.2-.1zm7.5-4.2c.2-.4.5-.8.9-1 .4-.2.8-.4 1.3-.4.3 0 .7.1 1 .2.3.1.5.4.7.6v-2.6h1.7v7.5h-1.7v-.8c-.2.3-.4.5-.7.6-.3.2-.7.2-1 .2-.4 0-.9-.1-1.3-.4-.4-.2-.7-.6-.9-1-.4-.8-.4-1.9 0-2.9zm3.6.5c-.5-.5-1.2-.5-1.7 0-.2.3-.4.6-.4 1s.1.7.4 1c.2.3.5.4.9.4.3 0 .7-.1.9-.4.4-.6.4-1.4-.1-2zm8.9 1.5h-3.9c0 .3.1.6.3.8.2.2.5.3.7.3.4 0 .7-.2.9-.5h1.9c-.1.4-.3.7-.5 1-.3.3-.6.5-.9.7-.4.2-.8.3-1.2.2-.5 0-1-.1-1.5-.4-.4-.2-.8-.6-1-1-.5-1-.5-2.1 0-3.1.2-.4.6-.8 1-1 .5-.2 1-.4 1.5-.4s1 .1 1.5.3c.4.2.8.6 1 1 .2.5.4 1 .4 1.5-.1.3-.1.4-.2.6zm-1.7-1c0-.3-.1-.5-.3-.7-.5-.4-1.2-.4-1.6.1-.2.2-.3.4-.3.6h2.2zm4.7-4.2v7.5h-1.7v-7.5h1.7zm8.8.9c.5.3 1 .7 1.3 1.3.6 1.2.6 2.6 0 3.7-.3.5-.8 1-1.3 1.3-.6.3-1.3.5-2 .5h-2.7v-7.1h2.7c.7-.2 1.3-.1 2 .3zm-.6 4.6c.4-.4.6-1 .6-1.5 0-.6-.2-1.1-.6-1.5-.4-.4-1-.6-1.5-.5h-.8v4.1h.8c.5 0 1.1-.2 1.5-.6zm5.9-5l-2.5 1v-1.2l2.5-1.2v1.4zm-.4 1.4v5.7h-1.8v-5.7h1.8zm1.7 1.3c.2-.4.5-.8.9-1 .4-.2.8-.4 1.3-.4.4 0 .7.1 1.1.2.3.2.5.4.7.6v-.8h1.8v5.7h-1.7v-.8c-.2.3-.4.5-.7.6-.3.2-.7.2-1.1.2-.4 0-.9-.1-1.3-.4-.4-.2-.7-.6-.9-1-.5-.8-.5-1.9-.1-2.9zm3.5.5c-.5-.5-1.2-.5-1.7 0-.2.3-.4.6-.4 1s.1.7.4 1c.2.3.5.4.9.4.3 0 .7-.1.9-.4.4-.6.4-1.4-.1-2z"/><path class="st8" d="M63.2 415v.4h-1.4v4.6h-.5v-4.7h-1.4v-.3h3.3zm1 .2c-.1-.1-.1-.2-.1-.3 0-.1 0-.2.1-.3.1-.1.2-.1.3-.1.1 0 .2 0 .3.1.1.1.1.2.1.3 0 .1 0 .2-.1.3-.1.1-.2.1-.3.1-.1 0-.2 0-.3-.1zm.5.8v4h-.5v-4h.5zm5 2.2h-3.3c0 .3.1.5.2.8.1.2.3.4.5.5.2.1.5.2.7.2.3 0 .6-.1.8-.2.2-.2.4-.4.4-.6h.5c-.1.4-.3.8-.6 1-.3.3-.8.4-1.2.4-.3 0-.7-.1-1-.2-.3-.2-.5-.4-.7-.7-.3-.7-.3-1.5 0-2.2.2-.3.4-.6.7-.7.3-.2.7-.3 1-.2.4 0 .7.1 1 .2.3.2.5.4.7.7.2.3.2.6.2.9.1-.1.1 0 .1.1zM69 417c-.1-.2-.3-.4-.5-.5-.2-.1-.5-.2-.7-.2-.4 0-.7.1-1 .4-.3.3-.4.6-.4 1h2.8c0-.2-.1-.4-.2-.7zm4.8-.6c.3.3.5.8.5 1.3v2.3h-.5v-2.3c0-.4-.1-.7-.3-1-.2-.2-.6-.4-.9-.3-.3 0-.7.1-.9.4-.3.3-.4.7-.3 1.1v2.2h-.5v-4h.5v.7c.1-.2.3-.4.6-.6.2-.1.5-.2.8-.2.3-.1.8.1 1 .4zm1.9.6c.2-.3.4-.5.7-.7.3-.2.7-.3 1-.2.4 0 .7.1 1 .3.3.2.5.4.6.7v-2.3h.4v5.3h-.5v-.9c-.1.3-.3.5-.6.7-.3.2-.6.3-1 .3s-.7-.1-1-.3c-.3-.2-.5-.4-.7-.7-.2-.3-.2-.7-.2-1.1 0-.5.1-.8.3-1.1zm3 .2c-.1-.2-.3-.4-.5-.6-.2-.1-.5-.2-.7-.2-.3 0-.5.1-.8.2-.2.1-.4.3-.5.5-.3.5-.3 1.2 0 1.7.1.2.3.4.5.6.2.1.5.2.8.2.3 0 .5-.1.7-.2.2-.1.4-.3.5-.6.1-.3.2-.5.2-.8 0-.2-.1-.5-.2-.8zm2.1-.2c.1-.3.4-.5.7-.7.3-.2.7-.3 1-.2.4 0 .7.1 1 .3.3.2.5.4.6.7v-.9h.5v4H84v-.9c-.1.3-.3.5-.6.7-.3.2-.6.3-1 .3s-.7-.1-1-.3c-.3-.2-.5-.4-.7-.7-.2-.3-.3-.7-.2-1.1 0-.5.1-.9.3-1.2zm3 .2c-.1-.2-.3-.4-.5-.6-.2-.1-.5-.2-.8-.2-.3 0-.5.1-.8.2-.2.1-.4.3-.5.5-.3.5-.3 1.2 0 1.7.1.2.3.4.5.6.2.1.5.2.8.2.3 0 .5-.1.8-.2.2-.1.4-.3.5-.6.1-.3.2-.5.2-.8 0-.2-.1-.5-.2-.8zm7 2.8l-1.3-2.1h-.9v2.1h-.5v-5h1.5c.5 0 .9.1 1.3.4.5.5.6 1.4.1 2-.2.3-.6.4-.9.5l1.3 2.2-.6-.1zm-2.2-2.6h1c.3 0 .6-.1.9-.3.4-.4.4-1.1 0-1.5-.3-.2-.6-.3-.9-.3h-1v2.1zm4.7 2.4c-.3-.2-.5-.4-.7-.7-.2-.3-.3-.7-.3-1.1 0-.4.1-.8.3-1.1.2-.3.4-.6.7-.7.3-.2.7-.2 1-.2.3 0 .7.1 1 .2.3.2.5.4.7.7.2.3.3.7.3 1.1 0 .4-.1.7-.3 1.1-.2.3-.4.5-.7.7-.3.2-.7.3-1 .2-.3.1-.6 0-1-.2zm1.8-.3c.2-.1.4-.3.5-.5.3-.6.3-1.2 0-1.8-.1-.2-.3-.4-.5-.5-.5-.2-1-.2-1.4 0-.2.1-.4.3-.5.5-.3.6-.3 1.2 0 1.8.1.2.3.4.5.5.4.2.9.2 1.4 0zm3.5-3.3c.3-.2.6-.3 1-.3.3 0 .7.1 1 .2.3.2.5.4.7.7.2.3.3.7.2 1.1 0 .4-.1.7-.2 1.1-.2.3-.4.5-.7.7-.3.2-.6.3-1 .3s-.7-.1-1-.3c-.3-.2-.5-.4-.6-.7v2.8h-.5V416h.5v.9c.1-.3.3-.5.6-.7zm2.2 1c-.1-.2-.3-.4-.5-.5-.2-.1-.5-.2-.8-.2-.3 0-.5.1-.8.2-.2.1-.4.3-.5.6-.1.3-.2.6-.2.9 0 .3.1.6.2.8.1.2.3.4.5.6.2.1.5.2.8.2.3 0 .5-.1.8-.2.2-.1.4-.3.5-.6.2-.7.2-1.3 0-1.8zm1.8-.2c.1-.3.4-.5.7-.7.3-.2.7-.3 1-.2.4 0 .7.1 1 .3.3.2.5.4.6.7v-.9h.5v4h-.5v-.9c-.1.3-.3.5-.6.7-.3.2-.6.3-1 .3s-.7-.1-1-.3c-.3-.2-.5-.4-.7-.7-.2-.4-.3-.8-.2-1.2 0-.5.1-.8.2-1.1zm3 .2c-.1-.2-.3-.4-.5-.6-.2-.1-.5-.2-.8-.2-.3 0-.5.1-.8.2-.2.1-.4.3-.5.5-.3.5-.3 1.2 0 1.7.1.2.3.4.5.6.2.1.5.2.8.2.3 0 .5-.1.8-.2.2-.1.4-.3.5-.6.1-.3.2-.5.2-.8.1-.2 0-.5-.2-.8z"/><path class="st9" d="M214.7 411.9h-2.2v2.2h-.9v-2.2h-2.2v-.8h2.2V409h.9v2.2h2.2v.7zm6.3 2.3c-.2.3-.4.6-.7.7-.3.2-.7.3-1.1.3v.8h-.6v-.8c-.6 0-1.1-.2-1.5-.6-.4-.3-.6-.8-.6-1.3h1c0 .3.1.5.3.7.2.2.5.4.8.4V412c-.4-.1-.7-.2-1.1-.4-.3-.1-.5-.3-.7-.6-.2-.3-.3-.6-.3-1 0-.5.2-1 .6-1.4.4-.4 1-.6 1.5-.6v-.8h.6v.8c.5 0 1 .2 1.4.6.4.3.6.8.6 1.2h-1c0-.2-.2-.5-.3-.6-.2-.2-.4-.3-.7-.4v2.5c.4.1.7.2 1.1.4.6.3 1.1.9 1 1.6-.1.3-.2.7-.3.9zm-3.3-3.4c.3.2.6.4.9.4v-2.4c-.3 0-.6.1-.9.3-.2.2-.3.5-.3.8 0 .4.1.6.3.9zm2.3 3.4c.2-.2.3-.5.3-.8 0-.3-.1-.6-.3-.8-.3-.2-.5-.4-.9-.4v2.4c.3-.1.7-.2.9-.4zm3.8-5.9c.5-.4 1.1-.6 1.7-.5.4 0 .8.1 1.2.2.3.1.6.4.8.7.2.3.3.6.3 1s-.1.8-.4 1.1c-.2.3-.6.5-.9.6.4.1.7.3 1 .6.3.4.4.8.4 1.3 0 .4-.1.7-.3 1-.2.3-.5.6-.8.7-.4.2-.8.3-1.3.3-.6 0-1.3-.2-1.8-.6-.5-.4-.8-1-.8-1.6h.9c0 .4.2.7.5 1 .3.3.7.4 1.1.4.4 0 .8-.1 1.1-.4.3-.3.4-.6.4-1s-.2-.8-.5-1.1c-.5-.3-1-.4-1.5-.3h-.2v-.7h.2c.5 0 1-.1 1.4-.3.3-.2.5-.6.5-.9 0-.3-.1-.6-.4-.9-.3-.2-.6-.4-1-.3-.4 0-.7.1-1 .3-.3.2-.4.5-.4.9h-.9c0-.6.3-1.2.7-1.5zm6.7 5.7l-1.2 2.7h-.6l.7-2.7h1.1zm1.9-5.2c.8-1.1 2.4-1.3 3.5-.5.2.1.3.3.5.5.4.8.6 1.8.6 2.7.1 1-.1 1.9-.6 2.8-.8 1.1-2.4 1.3-3.5.5-.2-.1-.3-.3-.5-.5-.4-.9-.6-1.8-.6-2.8-.1-1 .1-1.9.6-2.7zm3.5 1.2c-.1-.4-.2-.7-.5-1-.6-.5-1.5-.5-2.1 0-.3.3-.4.6-.5 1-.1.5-.1 1-.1 1.5s0 1 .1 1.5c.1.4.2.7.5 1 .6.5 1.5.5 2.1 0 .3-.3.4-.6.5-1 .1-.5.1-1 .1-1.5s-.1-1-.1-1.5zm7.2-1.3h-3.6v2.3c.2-.2.4-.4.7-.5.3-.1.7-.2 1-.2.5 0 1 .1 1.4.4.3.2.6.5.8.9.3.8.3 1.7 0 2.5-.2.4-.5.7-.8.9-.4.2-.9.3-1.4.3-.6 0-1.2-.2-1.7-.5-.4-.4-.7-.9-.8-1.5h.9c.1.4.3.7.6.9.3.2.7.3 1.1.3.4 0 .9-.1 1.2-.5.3-.4.4-.8.4-1.3 0-.4-.1-.9-.4-1.2-.3-.3-.8-.5-1.2-.4-.3 0-.7.1-.9.3-.3.2-.5.4-.6.7h-.9V408h4.4l-.2.7zm2.6.1c.4-.7 1.2-1.1 2-1 .8-.1 1.6.3 2 1 .4.8.6 1.8.6 2.7.1 1-.1 1.9-.6 2.8-.4.7-1.2 1.1-2 1-.8.1-1.6-.3-2-1-.4-.9-.6-1.8-.6-2.8 0-1 .2-1.9.6-2.7zm3.5 1.2c-.1-.4-.2-.7-.5-1-.6-.5-1.5-.5-2.1 0-.3.3-.4.6-.5 1-.1.5-.1 1-.1 1.5s0 1 .1 1.5c.1.4.2.7.5 1 .6.5 1.5.5 2.1 0 .3-.3.4-.6.5-1 .1-.5.1-1 .1-1.5.1-.5 0-1-.1-1.5z"/><path class="st7" d="M26.8 444.8h16.9c2.8 0 5 2.2 5 5v16.9c0 2.8-2.2 5-5 5H26.8c-2.8 0-5-2.2-5-5v-16.9c0-2.8 2.3-5 5-5z"/><path class="st3" d="M60.4 451c.3-.5.7-1 1.3-1.3.6-.3 1.2-.5 1.9-.5.8 0 1.5.2 2.2.7.6.5 1 1.1 1.2 1.8h-2c-.1-.3-.3-.5-.6-.7-.3-.2-.6-.2-.9-.2-.5 0-1 .2-1.3.6-.7.9-.7 2.1 0 3 .3.4.8.6 1.3.6.3 0 .6-.1.9-.2.3-.2.5-.4.6-.7h1.9c-.2.7-.6 1.4-1.2 1.8-.6.5-1.4.7-2.2.7-.6 0-1.3-.2-1.9-.5-.5-.3-1-.7-1.3-1.3-.5-1.2-.5-2.6.1-3.8zm9 5.2c-.4-.2-.8-.6-1-1-.3-.5-.4-1-.4-1.5s.1-1.1.4-1.5c.3-.4.6-.8 1.1-1 .9-.5 2.1-.5 3 0 .4.2.8.6 1.1 1 .3.5.4 1 .4 1.5s-.1 1.1-.4 1.5c-.3.4-.6.8-1.1 1-.5.2-1 .4-1.5.4-.6 0-1.1-.2-1.6-.4zm2.4-1.5c.2-.3.4-.7.3-1 0-.4-.1-.7-.3-1-.4-.5-1.2-.5-1.6-.1l-.1.1c-.2.3-.4.7-.3 1.1 0 .4.1.8.3 1 .2.2.5.4.8.4.3-.1.6-.3.9-.5zm12.2-3.3c.4.5.7 1.1.6 1.8v3.3h-1.7v-3.1c0-.3-.1-.6-.3-.9-.5-.4-1.1-.4-1.6 0-.2.2-.3.5-.3.9v3.1H79v-3.1c0-.3-.1-.6-.3-.9-.2-.2-.5-.3-.8-.3-.3 0-.6.1-.8.3-.2.2-.3.5-.3.9v3.1h-1.7v-5.7h1.7v.7c.2-.2.4-.4.7-.6.3-.1.7-.2 1-.2.4 0 .8.1 1.1.3.3.2.6.4.8.8.2-.3.5-.6.8-.8.3-.2.7-.3 1.1-.3.7 0 1.3.2 1.7.7zm4.6-.4c.3-.2.7-.2 1-.2.4 0 .9.1 1.3.4.4.2.7.6.9 1 .4 1 .4 2.1 0 3.1-.2.4-.5.8-.9 1-.4.2-.8.4-1.3.4-.3 0-.7-.1-1-.2-.3-.2-.5-.4-.7-.6v3.5h-1.7V451h1.7v.8c.2-.5.5-.7.7-.8zm1.5 1.6c-.2-.2-.6-.4-.9-.4-.3 0-.7.1-.9.4-.3.3-.4.6-.4 1s.1.7.4 1c.5.5 1.2.5 1.7 0 .3-.3.4-.6.4-1s-.1-.7-.3-1zm5.8-1.6c.3-.2.6-.3 1-.3v1.8h-.5c-.4 0-.7.1-1 .3-.3.3-.4.6-.3 1v2.6h-1.7v-5.7h1.7v.9c.2-.2.5-.4.8-.6zm2.2 1.1c.2-.4.5-.8.9-1 .4-.2.8-.4 1.3-.4.4 0 .7.1 1.1.2.3.2.5.4.7.6v-.8h1.7v5.7H102v-.8c-.2.3-.4.5-.7.6-.3.2-.7.2-1.1.2-.4 0-.9-.1-1.3-.4-.4-.2-.7-.6-.9-1-.4-.8-.4-1.9.1-2.9zm3.5.5c-.2-.2-.5-.4-.9-.4-.3 0-.6.1-.9.4-.2.3-.4.6-.4 1s.1.7.4 1c.5.5 1.2.5 1.7 0 .2-.3.4-.6.4-1 .1-.4 0-.7-.3-1zm6.3-1.6c.3-.5.7-1 1.3-1.3.6-.3 1.2-.5 1.9-.5.8 0 1.5.2 2.2.7.6.5 1 1.1 1.2 1.8h-1.9c-.1-.3-.3-.5-.6-.7-.3-.2-.6-.2-.9-.2-.5 0-1 .2-1.3.6-.7.9-.7 2.1 0 3 .3.4.8.6 1.3.6.3 0 .6-.1.9-.2.3-.2.5-.4.6-.7h1.9c-.2.7-.6 1.4-1.2 1.8-.6.5-1.4.7-2.2.7-.6 0-1.3-.1-1.9-.5-.5-.3-1-.7-1.3-1.3-.6-1.2-.6-2.6 0-3.8zm7.9 1.1c.2-.4.5-.8.9-1 .4-.2.8-.4 1.3-.4.4 0 .7.1 1.1.2.3.1.5.4.7.6v-.8h1.7v5.7h-1.7v-.8c-.2.3-.4.5-.7.6-.3.2-.7.2-1 .2-.4 0-.9-.1-1.3-.4-.4-.2-.7-.6-.9-1-.5-.8-.5-1.9-.1-2.9zm3.6.5c-.2-.2-.5-.4-.9-.4-.3 0-.7.1-.9.4-.2.3-.4.6-.4 1s.1.7.4 1c.2.2.5.4.9.4.3 0 .7-.1.9-.4.2-.3.4-.6.4-1-.1-.4-.2-.7-.4-1zm5.4 4.6c.1.6-.1 1.1-.5 1.5-.4.3-.9.5-1.5.5h-.7v-1.5h.4c.1 0 .3 0 .4-.1.1-.1.1-.2.1-.4v-6.4h1.7v6.4zm-1.6-7.2c-.4-.4-.4-.9 0-1.3.2-.2.5-.3.8-.3.3 0 .5.1.7.3.4.4.4.9 0 1.3-.2.2-.5.3-.7.3-.4 0-.6-.1-.8-.3zm3.1 2.1c.2-.4.5-.8.9-1 .4-.2.8-.4 1.3-.4.3 0 .7.1 1 .2.3.1.5.4.7.6v-.8h1.7v5.7h-1.7v-.8c-.2.3-.4.5-.7.6-.3.2-.7.2-1.1.2-.4 0-.9-.1-1.3-.4-.4-.2-.7-.6-.9-1-.3-.8-.3-1.9.1-2.9zm3.6.5c-.2-.2-.5-.4-.9-.4-.3 0-.7.1-.9.4-.2.3-.4.6-.4 1s.1.7.4 1c.2.2.5.4.9.4.3 0 .7-.1.9-.4.2-.3.4-.6.4-1s-.2-.7-.4-1zm4.7 3.7c-.4-.2-.7-.4-.9-.7-.2-.3-.4-.6-.4-1h1.7c0 .2.1.4.3.5.2.1.4.2.6.2.2 0 .4 0 .5-.1.1-.1.2-.2.2-.3 0-.2-.1-.3-.2-.4-.3-.1-.5-.2-.8-.3-.3-.1-.7-.2-1-.3-.3-.1-.5-.3-.7-.5-.2-.3-.3-.6-.3-.9 0-.3.1-.6.3-.9.2-.3.5-.5.8-.6.4-.2.8-.2 1.2-.2.6 0 1.2.1 1.7.5.4.4.7.9.7 1.4h-1.6c0-.2-.1-.4-.3-.5-.2-.1-.4-.2-.6-.2-.2 0-.3 0-.5.1-.1.1-.2.2-.2.3 0 .2.1.3.3.4.3.1.5.2.8.2.3.1.7.2 1 .3.3.1.5.3.7.5.2.3.3.6.3.9 0 .3-.1.6-.3.9-.2.3-.5.5-.8.6-.4.2-.8.2-1.2.2-.5.2-.9.1-1.3-.1z"/><path class="st8" d="M60.3 464.2c.2-.4.5-.7.9-.9.4-.2.8-.3 1.3-.3s1 .1 1.4.4c.4.3.7.7.9 1.1h-.6c-.1-.3-.4-.6-.7-.8-.6-.4-1.4-.4-2.1 0-.3.2-.5.4-.7.8-.2.3-.3.7-.3 1.1 0 .4.1.8.3 1.1.2.3.4.6.7.8.6.4 1.4.4 2.1 0 .3-.2.5-.5.7-.8h.6c-.2.5-.5.9-.9 1.1-.4.3-.9.4-1.4.4-.4 0-.9-.1-1.3-.3-.4-.2-.7-.5-.9-.9-.4-.9-.4-1.9 0-2.8zm5.7.9c.2-.3.4-.5.7-.7.3-.2.7-.3 1-.2.4 0 .7.1 1 .3.3.2.5.4.6.7v-.9h.5v4h-.5v-.9c-.1.3-.3.5-.6.7-.3.2-.6.3-1 .3s-.7-.1-1-.3c-.3-.2-.5-.4-.7-.7-.3-.8-.3-1.6 0-2.3zm3 .2c-.1-.2-.3-.4-.5-.6-.2-.1-.5-.2-.7-.2-.3 0-.5.1-.8.2-.2.1-.4.3-.5.5-.3.5-.3 1.2 0 1.7.1.2.3.4.5.6.2.1.5.2.8.2.3 0 .5-.1.7-.2.2-.1.4-.3.5-.6.1-.3.2-.6.2-.9 0-.2 0-.4-.2-.7zm2.7 3.8c0 .3-.1.5-.2.7-.2.2-.5.2-.7.2h-.4v-.4h.3c.2.1.5-.1.5-.3v-5.1h.5v4.9zm-.5-5.8c-.1-.1-.1-.2-.1-.3 0-.1 0-.2.1-.3.1-.1.2-.1.3-.1.2 0 .4.2.4.4 0 .1 0 .2-.1.3-.1.1-.2.1-.3.1-.2 0-.3 0-.3-.1zm1.9 1.8c.2-.3.4-.5.7-.7.3-.2.7-.3 1-.2.4 0 .7.1 1 .3.3.2.5.4.6.6v-.9h.5v4h-.5v-.9c-.1.3-.3.5-.6.7-.3.2-.6.3-1 .3s-.7-.1-1-.3c-.3-.2-.5-.4-.7-.7-.3-.8-.3-1.6 0-2.2zm3 .2c-.1-.2-.3-.4-.5-.6-.2-.1-.5-.2-.8-.2-.3 0-.5.1-.8.2-.2.1-.4.3-.5.5-.3.5-.3 1.2 0 1.7.1.2.3.4.5.6.2.1.5.2.8.2.3 0 .5-.1.8-.2.2-.1.4-.3.5-.6.1-.3.2-.6.2-.9 0-.2-.1-.4-.2-.7zm2.3 2.6c-.3-.2-.5-.5-.5-.9h.5c0 .2.1.4.3.5.2.2.5.2.8.2.2 0 .5-.1.7-.2.2-.1.2-.3.2-.5 0-.1 0-.2-.1-.3-.1-.1-.2-.2-.3-.2l-.6-.2c-.3-.1-.5-.2-.7-.2-.2-.1-.3-.2-.5-.4-.1-.2-.2-.4-.2-.6 0-.2.1-.4.2-.5.1-.2.3-.3.5-.4.2-.1.5-.1.7-.1.4 0 .7.1 1 .3.3.2.4.5.4.9h-.5c0-.2-.1-.4-.3-.6-.2-.1-.4-.2-.7-.2-.2 0-.4.1-.6.2-.2.1-.2.3-.2.5 0 .1 0 .3.1.4.1.1.2.2.3.2.2.1.4.1.6.2.2.1.5.1.7.2.2.1.3.2.4.3.1.2.2.4.2.6 0 .2-.1.4-.2.6-.1.2-.3.3-.5.4-.2.1-.5.2-.7.1-.2 0-.6-.1-1-.3zm5.9-2.8c.2-.3.4-.5.7-.7.3-.2.7-.3 1-.2.4 0 .7.1 1 .2.3.2.5.4.6.7v-2.3h.5v5.4h-.5v-.9c-.1.3-.3.5-.6.7-.3.2-.6.3-1 .3s-.7-.1-1-.3c-.3-.2-.5-.4-.7-.7-.2-.8-.2-1.6 0-2.2zm3 .2c-.1-.2-.3-.4-.5-.6-.2-.1-.5-.2-.7-.2-.3 0-.5.1-.8.2-.2.1-.4.3-.5.5-.3.5-.3 1.2 0 1.7.1.2.3.4.5.6.2.1.5.2.8.2.3 0 .5-.1.7-.2.2-.1.4-.3.5-.6.1-.3.2-.6.2-.9.1-.2 0-.5-.2-.7zm5.7 1h-3.3c0 .3.1.5.2.8.1.2.3.4.5.5.2.1.5.2.7.2.3 0 .6-.1.8-.2.2-.2.4-.4.4-.6h.7c-.1.4-.3.7-.6 1-.3.2-.8.4-1.2.4-.3 0-.7-.1-1-.2-.3-.2-.5-.4-.7-.7-.2-.3-.3-.7-.2-1.1 0-.4.1-.7.2-1.1.2-.3.4-.5.7-.7.3-.2.7-.3 1-.2.3 0 .7.1 1 .2.3.2.5.4.7.7.2.3.2.6.2.9 0-.1 0 0-.1.1zm-.6-1.1c-.1-.2-.3-.4-.5-.5-.2-.1-.5-.2-.7-.2-.4 0-.7.1-1 .4-.3.3-.4.6-.4 1h2.8c-.1-.3-.1-.5-.2-.7zm8.9-2.1v5h-.5v-4l-1.8 4h-.4l-1.8-4v4h-.5v-5h.5l1.9 4.4 1.9-4.4h.7zm5 3.2H103c0 .3.1.5.2.8.1.2.3.4.5.5.2.1.5.2.7.2.3 0 .6-.1.8-.2.2-.2.4-.4.4-.6h.5c-.1.4-.3.7-.6 1-.3.3-.8.4-1.2.4-.3 0-.7-.1-1-.2-.3-.2-.5-.4-.7-.7-.2-.3-.3-.7-.2-1.1 0-.4.1-.7.2-1.1.2-.3.4-.5.7-.7.3-.2.7-.3 1-.2.4 0 .7.1 1 .2.3.2.5.4.7.7.2.3.2.6.2.9.1-.1.1 0 .1.1zm-.6-1.1c-.1-.2-.3-.4-.5-.5-.2-.1-.5-.2-.7-.2-.4 0-.7.1-1 .4-.3.3-.4.6-.4 1h2.8c-.1-.3-.1-.5-.2-.7zm-.6-2.2l-1.5.9v-.4l1.5-.9v.4zm4.5 5.1l-1-1.6-1 1.6h-.6l1.3-2-1.3-2h.6l1 1.6 1-1.6h.5l-1.3 2 1.3 2h-.5zm1.5-4.8c-.1-.1-.1-.2-.1-.3 0-.1 0-.2.1-.3.1-.1.4-.1.5 0 .1.1.1.2.1.3 0 .1 0 .2-.1.3-.2.1-.4.1-.5 0zm.5.8v4h-.5v-4h.5zm1.4 1c.2-.3.4-.5.7-.7.7-.4 1.5-.3 2.2.1.3.2.5.6.6 1h-.6c-.1-.3-.2-.5-.4-.7-.2-.2-.5-.3-.8-.2-.3 0-.5.1-.7.2-.2.1-.4.3-.5.5-.1.3-.2.6-.2.9 0 .3.1.6.2.9.1.2.3.4.5.5.2.1.5.2.7.2.3 0 .6-.1.8-.2.2-.2.4-.4.4-.7h.6c-.1.4-.3.8-.6 1-.4.3-.8.4-1.2.4-.3 0-.7-.1-1-.2-.3-.2-.5-.4-.7-.7-.2-.3-.3-.7-.2-1.1-.1-.5 0-.9.2-1.2zm5.3 2.9c-.3-.2-.5-.4-.7-.7-.2-.3-.3-.7-.3-1.1 0-.4.1-.7.3-1.1.2-.3.4-.5.7-.7.3-.2.7-.3 1-.2.3 0 .7.1 1 .2.3.2.5.4.7.7.2.3.3.7.2 1.1 0 .4-.1.7-.3 1.1-.2.3-.4.6-.7.7-.3.2-.7.2-1 .2-.2 0-.5-.1-.9-.2zm1.8-.4c.2-.1.4-.3.5-.5.1-.3.2-.6.2-.9 0-.3-.1-.6-.2-.9-.1-.2-.3-.4-.5-.5-.5-.2-1-.2-1.5 0-.2.1-.4.3-.5.5-.1.3-.2.6-.2.9 0 .3.1.6.2.9.1.2.3.4.5.5.5.2 1 .2 1.5 0z"/><path class="st4" d="M233.6 459.2v.8h-4.1v-.8h4.1zm6.4 3.2c-.2.3-.4.6-.7.7-.3.2-.7.3-1.1.3v.8h-.6v-.8c-.6 0-1.1-.2-1.5-.6-.4-.3-.6-.8-.6-1.3h1c0 .3.1.5.3.7.2.2.5.4.8.4v-2.5c-.4-.1-.7-.2-1.1-.4-.3-.1-.5-.3-.7-.6-.2-.3-.3-.6-.3-1 0-.5.2-1 .6-1.4.4-.4 1-.6 1.5-.6v-.9h.6v.9c.5 0 1 .2 1.4.5.4.3.6.8.6 1.3h-1c0-.2-.1-.5-.3-.6-.2-.2-.4-.3-.7-.4v2.5c.4.1.7.2 1.1.4.3.1.5.3.7.6.2.3.3.7.3 1-.1.4-.2.7-.3 1zm-3.3-3.5c.3.2.6.4.9.4V457c-.3 0-.6.1-.9.3-.2.2-.3.5-.3.8 0 .3.1.6.3.8zm2.3 3.4c.2-.2.3-.5.3-.8 0-.3-.1-.6-.3-.8-.3-.2-.5-.4-.9-.4v2.4c.3-.1.6-.2.9-.4zm2.9-5.5v-.8h1.9v7.4h-.9v-6.5l-1-.1zm5.7 4.1c.5-.4.9-.9 1.2-1.4.3-.4.5-.9.5-1.4 0-.4-.1-.7-.3-1-.3-.3-.6-.4-1-.4s-.8.1-1.1.4c-.3.3-.4.7-.4 1.2h-.9c0-.7.2-1.3.7-1.8 1-.8 2.4-.8 3.4 0 .4.4.6 1 .6 1.6 0 .6-.2 1.2-.5 1.6-.3.5-.7 1-1.1 1.4-.4.4-1 .9-1.6 1.4h3.5v.8h-4.9v-.7c.7-.7 1.4-1.2 1.9-1.7z"/><path class="st7" d="M26.8 492.9h16.9c2.8 0 5 2.2 5 5v16.9c0 2.8-2.2 5-5 5H26.8c-2.8 0-5-2.2-5-5v-16.9c0-2.8 2.3-5 5-5z"/><path class="st3" d="M62 498.8v1.5h2.4v1.3H62v1.6h2.6v1.4h-4.4v-7.1h4.4v1.4l-2.6-.1zm9.1.7c.4.5.6 1.1.6 1.8v3.3H70v-3.1c0-.3-.1-.6-.3-.9-.4-.4-1.1-.4-1.6 0-.2.2-.3.6-.3.9v3.1h-1.7v-5.7h1.7v.8c.2-.3.4-.5.7-.6.3-.1.7-.2 1-.2.6-.1 1.2.1 1.6.6zm4.7 3.5l1.2-4.1h1.8l-2 5.7h-2.2l-2-5.7h1.9l1.3 4.1zm6.3-5.5l-2.4 1v-1.2l2.4-1.2v1.4zm-.3 1.4v5.7H80v-5.7h1.8zm2.8 5.4c-.4-.2-.8-.6-1-1-.3-.5-.4-1-.4-1.5s.1-1.1.4-1.5c.2-.4.6-.8 1-1 .9-.5 2.1-.5 3 0 .4.2.8.6 1.1 1 .5 1 .5 2.1 0 3.1-.3.4-.6.8-1.1 1-.5.2-1 .4-1.5.4-.6-.1-1.1-.3-1.5-.5zm2.3-1.5c.2-.3.4-.6.3-1 0-.4-.1-.7-.3-1-.4-.5-1.2-.5-1.6-.1l-.1.1c-.2.3-.4.7-.3 1 0 .4.1.7.3 1 .2.2.5.4.8.4.4 0 .7-.2.9-.4zm5.8-2.6c.2-.4.5-.8.9-1 .4-.2.8-.4 1.3-.4.3 0 .7.1 1 .2.3.1.5.4.7.6V497h1.7v7.5h-1.7v-.8c-.2.3-.4.5-.7.7-.3.2-.7.3-1 .2-.4 0-.9-.1-1.3-.4-.4-.2-.7-.6-.9-1-.2-.5-.3-1-.3-1.5s.1-1 .3-1.5zm3.6.5c-.2-.2-.5-.4-.9-.4-.3 0-.7.1-.9.4-.2.3-.4.6-.4 1s.1.7.4 1c.2.2.5.4.9.4.3 0 .7-.1.9-.4.4-.6.4-1.4 0-2zm9 1.4h-3.9c0 .3.1.6.3.8.2.2.5.3.7.3.4 0 .8-.2.9-.5h1.8c-.1.4-.3.7-.5 1-.3.3-.6.5-.9.7-.9.4-1.9.3-2.7-.1-.4-.2-.8-.6-1-1-.3-.5-.4-1-.4-1.5s.1-1.1.4-1.5c.2-.4.6-.8 1-1 .5-.2 1-.4 1.5-.4s1 .1 1.5.4c.4.2.8.6 1 1 .2.5.4 1 .4 1.5-.1 0-.1.2-.1.3zm-1.8-1c0-.3-.1-.5-.3-.7-.2-.2-.5-.3-.8-.3-.3 0-.5.1-.7.2-.2.2-.3.4-.4.7h2.2zm10.7-.2c-.2.4-.5.6-.9.8-.5.2-1 .3-1.5.3h-1.1v2.6H109v-7.1h2.8c.5 0 1 .1 1.4.3.4.2.7.5.9.8.4.7.4 1.5.1 2.3zm-1.8-.5c.2-.2.3-.4.2-.7 0-.2-.1-.5-.2-.7-.2-.2-.5-.3-.7-.2h-1v1.8h1c.3.1.5 0 .7-.2zm5.8-1.3c.3-.2.6-.3 1-.3v1.9h-.5c-.4 0-.7.1-1 .3-.3.3-.4.6-.3 1v2.6h-1.7v-5.7h1.7v1c.2-.4.4-.6.8-.8zm3.2 5.2c-.4-.2-.8-.6-1.1-1-.3-.5-.4-1-.4-1.5s.1-1.1.4-1.5c.3-.4.6-.8 1.1-1 .9-.5 2.1-.5 3 0 .4.2.8.6 1 1 .5 1 .5 2.1 0 3.1-.3.4-.6.8-1.1 1-.5.2-1 .4-1.5.4-.5-.1-.9-.3-1.4-.5zm2.4-1.5c.5-.6.5-1.5 0-2.1-.2-.2-.5-.4-.8-.4-.3 0-.6.1-.9.4-.4.6-.4 1.5 0 2.1.2.2.5.4.8.4.3 0 .6-.2.9-.4zm3.3-2.6c.2-.4.5-.8.9-1 .4-.2.8-.4 1.3-.4.3 0 .7.1 1 .2.3.1.5.4.7.6V497h1.7v7.5H131v-.8c-.2.3-.4.5-.7.7-.3.2-.7.3-1.1.2-.4 0-.9-.1-1.3-.4-.4-.2-.7-.6-.9-1-.2-.5-.3-1-.3-1.5s.2-1 .4-1.5zm3.6.5c-.5-.5-1.2-.5-1.7 0-.2.3-.4.6-.4 1s.1.7.4 1c.5.5 1.2.5 1.7 0 .4-.6.4-1.4 0-2zm9.2-1.8v5.7h-1.7v-.8c-.2.3-.4.5-.7.6-.3.2-.7.2-1 .2-.4 0-.8-.1-1.1-.3-.3-.2-.6-.5-.8-.8-.2-.4-.3-.9-.3-1.3v-3.3h1.7v3.1c0 .3.1.6.3.9.2.2.5.3.8.3.3 0 .6-.1.8-.3.2-.2.3-.6.3-.9v-3.1h1.7zm1.6 1.3c.2-.4.6-.8 1-1 .5-.2 1-.4 1.5-.4.6 0 1.3.2 1.8.6.5.4.8 1 .9 1.6h-1.9c-.1-.4-.5-.7-.9-.6-.3 0-.6.1-.8.4-.4.7-.4 1.5 0 2.1.2.2.5.4.8.4.4 0 .8-.2.9-.7h1.9c-.1.6-.5 1.2-.9 1.6-.5.4-1.1.6-1.8.6-.5 0-1-.1-1.5-.4-.4-.2-.8-.6-1-1-.5-1.1-.5-2.2 0-3.2zm9.6 2.9v1.5h-.9c-.5 0-1.1-.1-1.5-.5-.4-.4-.6-1-.5-1.5v-2.3h-.7v-1.5h.7v-1.4h1.7v1.4h1.1v1.5h-1v2.3c0 .1 0 .3.1.4.1.1.3.1.4.1h.6zm2.4 1.2c-.4-.2-.8-.6-1-1-.3-.5-.4-1-.4-1.5s.1-1.1.4-1.5c.2-.4.6-.8 1.1-1 .9-.5 2.1-.5 3 0 .4.2.8.6 1.1 1 .3.5.4 1 .4 1.5s-.1 1.1-.4 1.5c-.3.4-.6.8-1.1 1-.5.2-1 .4-1.5.4-.6 0-1.1-.1-1.6-.4zm2.3-1.5c.2-.3.4-.6.4-1s-.1-.7-.3-1c-.4-.5-1.2-.5-1.6-.1l-.1.1c-.2.3-.4.7-.3 1 0 .4.1.7.3 1 .2.2.5.4.8.4.3 0 .6-.2.8-.4zm4.4 1.6c-.4-.1-.7-.4-.9-.7-.2-.3-.4-.6-.4-1h1.7c0 .2.1.4.3.5.2.1.4.2.6.2.2 0 .3 0 .5-.1.1-.1.2-.2.2-.3 0-.2-.1-.3-.3-.4-.3-.1-.5-.2-.8-.2-.3-.1-.7-.2-1-.3-.3-.1-.5-.3-.7-.5-.2-.3-.3-.6-.3-.9 0-.3.1-.6.3-.9.2-.3.5-.5.8-.6.4-.2.8-.2 1.2-.2.6 0 1.2.2 1.7.5.4.4.7.9.7 1.4h-1.6c0-.2-.1-.4-.3-.5-.2-.1-.4-.2-.6-.2-.2 0-.3 0-.5.1-.1.1-.2.2-.2.3 0 .2.1.3.3.4.3.1.5.2.8.2.3.1.7.2 1 .3.3.1.5.3.7.5.2.3.3.6.3 1 0 .3-.1.6-.3.9-.2.3-.5.5-.8.6-.4.2-.8.2-1.2.2-.4 0-.8-.1-1.2-.3z"/><path class="st8" d="M63 513.7c-.4.3-.8.4-1.3.4h-1v2.2h-.5v-5.1h1.5c.5 0 .9.1 1.3.4.6.5.6 1.5 0 2.1zm-.1-1.1c0-.3-.1-.6-.3-.8-.3-.2-.6-.3-.9-.3h-1v2h1c.8.1 1.2-.2 1.2-.9zm1.6.6c.2-.3.4-.5.7-.7.3-.2.6-.3 1-.2.4 0 .7.1 1 .3.3.2.5.4.6.7v-.9h.5v4h-.5v-.9c-.1.3-.3.5-.6.7-.3.2-.6.3-1 .3s-.7-.1-1-.2c-.3-.2-.5-.4-.7-.7-.3-.9-.3-1.7 0-2.4zm3 .2c-.1-.2-.3-.4-.5-.6-.5-.3-1-.3-1.5 0-.2.1-.4.3-.5.5-.1.3-.2.6-.2.8 0 .3.1.6.2.9.1.2.3.4.5.6.5.3 1 .3 1.5 0 .2-.1.4-.3.5-.6.3-.4.3-1.1 0-1.6zm2.2-.2c.2-.3.4-.5.7-.7.3-.2.7-.3 1-.2.4 0 .7.1 1 .3.3.2.5.4.6.7v-.9h.4v5.8h-.5v-2.8c-.1.3-.3.5-.6.7-.3.2-.6.3-1 .3s-.7-.1-1-.2c-.3-.2-.5-.4-.7-.7-.3-.9-.3-1.7.1-2.3zm3 .2c-.1-.2-.3-.4-.5-.6-.2-.1-.5-.2-.7-.2-.3 0-.5.1-.8.2-.2.1-.4.3-.5.5-.1.3-.2.6-.2.8 0 .3.1.6.2.9.1.2.3.4.5.6.2.1.5.2.8.2.3 0 .5-.1.7-.2.2-.1.4-.3.5-.6.2-.5.2-1.1 0-1.6zm5.5-1.1v4h-.5v-.7c-.1.2-.3.4-.5.6-.3.1-.5.2-.8.2-.4 0-.8-.1-1.2-.4-.3-.3-.5-.8-.4-1.3v-2.3h.5v2.3c0 .4.1.7.3 1 .2.2.6.4.9.3.3 0 .7-.1.9-.4.3-.3.4-.7.3-1.1v-2.2h.5zm5 2.1h-3.3c0 .3.1.5.2.8.1.2.3.4.5.5.2.1.5.2.7.2.3 0 .6-.1.8-.2.2-.2.4-.4.4-.6h.5c-.1.4-.3.8-.6 1-.3.2-.8.4-1.2.4-.3 0-.7-.1-1-.2-.3-.2-.5-.4-.7-.7-.2-.3-.3-.7-.3-1.1 0-.4.1-.7.2-1.1.2-.3.4-.5.7-.7.3-.2.7-.2 1-.2.3 0 .7.1 1 .2.3.2.5.4.7.7.2.3.2.6.2.9.2-.1.2 0 .2.1zm-.7-1.1c-.1-.2-.3-.4-.5-.5-.2-.1-.5-.2-.7-.2-.4 0-.7.1-1 .4-.3.3-.4.6-.4 1h2.8c0-.3-.1-.5-.2-.7zm2.5-.6v2.5c0 .2 0 .4.1.5.1.1.3.2.5.1h.5v.4h-.5c-.3 0-.6-.1-.8-.2-.2-.2-.3-.5-.3-.8v-2.5h-.6v-.4h.6v-1h.5v1h1.1v.4H85zm5.7 1.7h-3.3c0 .3.1.5.2.8.1.2.3.4.5.5.2.1.5.2.7.2.3 0 .6-.1.8-.2.2-.1.4-.4.4-.6h.5c-.1.4-.3.8-.6 1-.7.4-1.5.5-2.2.1-.3-.2-.5-.4-.7-.7-.3-.7-.3-1.5 0-2.2.2-.3.4-.5.7-.7.3-.2.7-.2 1-.2.3 0 .7.1 1 .2.3.2.5.4.7.7.2.3.2.6.2.9.1 0 .1.1.1.2zm-.7-1.1c-.1-.2-.3-.4-.5-.5-.2-.1-.5-.2-.7-.2-.4 0-.7.1-1 .4-.3.3-.4.6-.4 1h2.8c0-.3 0-.5-.2-.7zm2.9-.9c.3-.1.6-.2.8-.2v.5h-.1c-.3 0-.6.1-.9.3-.2.3-.4.6-.3 1v2.2h-.5v-4h.5v.7c.1-.2.3-.4.5-.5zm2.8-1.3l-1.5.9v-.4l1.5-.9v.4zm-.5 1.2v4h-.5v-4h.5zm1.4.9c.2-.3.4-.5.7-.7.3-.2.6-.3 1-.2.4 0 .7.1 1 .3.3.2.5.4.6.7v-.9h.5v4h-.5v-.9c-.1.3-.3.5-.6.7-.3.2-.6.3-1 .3s-.7-.1-1-.2c-.3-.2-.5-.4-.7-.7-.4-.9-.4-1.7 0-2.4zm3 .2c-.1-.2-.3-.4-.5-.6-.2-.1-.5-.2-.8-.2-.3 0-.5.1-.8.2-.2.1-.4.3-.5.5-.1.3-.2.6-.2.8 0 .3.1.6.2.9.1.2.3.4.5.6.2.1.5.2.8.2.3 0 .5-.1.8-.2.2-.1.4-.3.5-.6.3-.4.3-1.1 0-1.6z"/><path class="st4" d="M230.9 507.3v.8h-4.1v-.8h4.1zm6.3 3.1c-.2.3-.4.6-.7.7-.3.2-.7.3-1.1.3v.8h-.6v-.8c-.5 0-1.1-.2-1.5-.5-.4-.3-.6-.8-.6-1.3h1c0 .6.5 1.1 1.1 1.1v-2.5c-.4-.1-.7-.2-1.1-.4-.3-.1-.5-.3-.7-.6-.2-.3-.3-.6-.3-1 0-.5.2-1 .6-1.4.4-.4 1-.6 1.5-.6v-.8h.5v.8c.5 0 1 .2 1.4.5.4.3.6.8.6 1.3h-1c0-.2-.2-.5-.3-.7-.2-.2-.4-.3-.7-.4v2.5c.4.1.7.2 1.1.3.3.1.5.3.7.6.2.3.3.6.3 1 0 .6 0 .9-.2 1.1zM234 507c.3.2.6.3.9.4v-2.3c-.3 0-.6.1-.9.3-.2.2-.3.5-.3.8 0 .3.1.6.3.8zm2.2 3.4c.2-.2.3-.5.3-.8 0-.3-.1-.6-.3-.8-.3-.2-.5-.4-.9-.4v2.4c.4 0 .7-.2.9-.4zm3.9-5.9c.9-.6 1.9-.7 2.9-.3.6.3 1 .9 1 1.6 0 .4-.1.8-.4 1.1-.2.3-.6.5-.9.6v.1c.4.1.8.3 1 .6.3.4.4.8.4 1.2 0 .4-.1.7-.3 1-.2.3-.5.6-.8.7-.4.2-.8.3-1.3.3-.6 0-1.3-.2-1.8-.6-.5-.4-.8-1-.8-1.6h.9c0 .4.2.7.5 1 .3.3.7.4 1.1.4.4 0 .8-.1 1.1-.4.3-.3.4-.6.4-1s-.2-.9-.5-1.1c-.5-.3-1-.4-1.5-.3h-.2v-.8h.2c.5 0 1-.1 1.4-.3.3-.2.5-.6.5-.9 0-.3-.1-.6-.4-.9-.3-.2-.6-.3-1-.3s-.7.1-1 .3c-.3.2-.4.5-.5.9h-.9c.2-.5.5-1 .9-1.3zm7.5 4.5c.5-.4.9-.9 1.2-1.4.3-.4.5-.9.5-1.4 0-.4-.1-.7-.3-1-.3-.3-.6-.4-1-.4s-.8.1-1.1.4c-.3.3-.4.7-.4 1.2h-.9c0-.7.2-1.3.7-1.8.5-.4 1.1-.6 1.7-.6.6 0 1.2.2 1.7.6.4.4.6 1 .6 1.6 0 .6-.2 1.2-.5 1.6-.3.5-.7 1-1.1 1.4-.4.4-1 .9-1.6 1.4h3.5v.8h-4.9v-.7c.7-.7 1.4-1.2 1.9-1.7z"/><path class="st7" d="M26.8 541h16.9c2.8 0 5 2.2 5 5v16.9c0 2.8-2.2 5-5 5H26.8c-2.8 0-5-2.2-5-5V546c0-2.8 2.3-5 5-5z"/><path class="st3" d="M67 545.5l-2.5 7.1h-2.2l-2.5-7.1h1.8l1.8 5.4 1.8-5.4H67zm6.3 4.8h-4c0 .3.1.6.3.8.2.2.5.3.7.3.4 0 .8-.2.9-.5H73c-.1.4-.3.7-.5 1-.3.3-.6.5-.9.7-.4.2-.8.3-1.3.2-.5 0-1-.1-1.5-.3-.4-.2-.8-.6-1-1-.3-.5-.4-1-.4-1.5s.1-1.1.4-1.5c.2-.4.6-.8 1-1 .5-.2 1-.4 1.5-.4s1 .1 1.5.3c.4.2.8.6 1 1 .2.5.4 1 .4 1.5.1 0 .1.2.1.4zm-1.7-1c0-.3-.1-.5-.3-.7-.2-.2-.5-.3-.8-.3-.3 0-.5.1-.7.3-.2.2-.4.4-.4.7h2.2zm8-1.7c.4.5.6 1.1.6 1.8v3.3h-1.7v-3.1c0-.3-.1-.6-.3-.9-.4-.4-1.1-.4-1.6 0-.2.2-.3.6-.3.9v3.1h-1.7V547h1.8v.8c.2-.3.4-.5.7-.6.3-.2.7-.2 1-.2.6-.1 1.1.2 1.5.6zm5.3 3.6v1.5H84c-.5 0-1.1-.1-1.5-.5-.4-.4-.6-1-.5-1.5v-2.3h-.7V547h.7v-1.4h1.7v1.4h1.1v1.5h-1.2v2.3c0 .1 0 .3.1.4.1.1.3.1.4.1l.8-.1zm1.3-2.9c.2-.4.5-.8.9-1 .4-.2.8-.4 1.3-.4.4 0 .7.1 1.1.2.3.2.5.4.7.7v-.8h1.7v5.7h-1.7v-.8c-.2.3-.4.5-.7.6-.3.2-.7.2-1.1.2-.4 0-.9-.1-1.3-.4-.4-.2-.7-.6-.9-1-.2-.5-.3-1-.3-1.5-.1-.5 0-1 .3-1.5zm3.5.5c-.5-.5-1.3-.5-1.7 0-.2.3-.4.6-.4 1s.1.7.4 1c.5.5 1.2.5 1.7 0 .2-.3.4-.6.4-1s-.1-.7-.4-1zm10.6 2.6h-2.7l-.4 1.3h-1.9l2.6-7.1h2l2.6 7.1h-1.8l-.4-1.3zm-.4-1.3l-.9-2.6-.9 2.6h1.8zm12.7-2.5c.4.5.7 1.1.6 1.8v3.3h-1.7v-3.1c0-.3-.1-.6-.3-.8-.5-.4-1.1-.4-1.6 0-.2.2-.3.5-.3.8v3.1h-1.7v-3.1c0-.3-.1-.6-.3-.8-.2-.2-.5-.3-.8-.3-.3 0-.6.1-.8.3-.2.2-.3.5-.3.8v3.1h-1.7V547h1.7v.7c.2-.2.4-.4.7-.6.3-.1.7-.2 1-.2.4 0 .8.1 1.1.3.3.2.6.4.8.8.2-.3.5-.6.8-.8.3-.2.7-.3 1.1-.3.7 0 1.3.2 1.7.7zm2.1.7c.2-.4.5-.8.9-1 .4-.2.8-.4 1.3-.4.4 0 .7.1 1.1.2.3.2.5.4.7.7v-.8h1.7v5.7h-1.7v-.8c-.2.3-.4.5-.7.6-.3.2-.7.2-1.1.2-.4 0-.9-.1-1.3-.4-.4-.2-.7-.6-.9-1-.2-.5-.3-1-.3-1.5s.1-1 .3-1.5zm3.6.5c-.5-.5-1.3-.5-1.7 0-.2.3-.4.6-.4 1s.1.7.4 1c.5.5 1.2.5 1.7 0 .2-.3.4-.6.4-1s-.1-.7-.4-1zm5.3 2.4h2.5v1.4h-4.4v-1.4l2.4-2.9h-2.3V547h4.3v1.4l-2.5 2.8zm4.8 1.2c-.4-.2-.8-.6-1.1-1-.3-.5-.4-1-.4-1.5s.1-1.1.4-1.5c.2-.4.6-.8 1.1-1 .5-.2 1-.4 1.5-.4s1 .1 1.5.4c.4.2.8.6 1.1 1 .3.5.4 1 .4 1.5s-.1 1.1-.4 1.5c-.3.4-.6.8-1.1 1-.5.2-1 .4-1.5.3-.5.1-1-.1-1.5-.3zm2.4-1.5c.2-.3.4-.6.4-1s-.1-.8-.4-1c-.4-.5-1.2-.5-1.6 0-.4.6-.4 1.5 0 2.1.2.2.5.4.8.4.2-.1.6-.3.8-.5zm8.4-3.3c.4.5.6 1.1.6 1.8v3.3H138v-3.1c0-.3-.1-.6-.3-.9-.2-.2-.5-.3-.8-.3-.3 0-.6.1-.8.3-.2.2-.3.6-.3.9v3.1h-1.7V547h1.7v.8c.2-.3.4-.5.7-.6.3-.1.7-.2 1-.2.7-.1 1.3.1 1.7.6z"/><path class="st8" d="M63.2 562.1c.2.2.3.5.3.8 0 .5-.3 1-.7 1.2-.3.1-.6.2-.8.2h-1.7v-5.1h1.6c.4 0 .8.1 1.1.4.3.2.4.6.4.9 0 .3-.1.6-.2.8-.2.2-.4.3-.6.4.1.1.4.2.6.4zm-2.5-.6h1.1c.3 0 .5-.1.8-.2.3-.4.3-1 0-1.3-.2-.2-.5-.3-.8-.2h-1.1v1.7zm2 2.1c.2-.2.3-.4.3-.7 0-.3-.1-.5-.3-.7-.2-.2-.5-.3-.8-.3h-1.2v2h1.2c.2 0 .5-.1.8-.3zm1.9-2.3c.1-.3.4-.5.6-.7.3-.2.6-.3.9-.3.3 0 .7.1.9.3.3.2.4.4.6.7v-.9h.5v4h-.5v-.9c-.1.3-.3.5-.6.7-.3.2-.6.3-.9.3-.3 0-.6-.1-.9-.2-.3-.2-.5-.4-.6-.7-.2-.3-.2-.7-.2-1.1-.1-.5 0-.9.2-1.2zm2.9.2c-.1-.2-.3-.4-.5-.6-.2-.1-.5-.2-.7-.2-.3 0-.5.1-.7.2-.2.1-.4.3-.5.5-.1.3-.2.6-.2.8 0 .3.1.6.2.9.1.2.3.4.5.6.2.1.5.2.7.2.3 0 .5-.1.7-.2.2-.1.4-.3.5-.6.1-.3.2-.5.2-.8 0-.2-.1-.5-.2-.8zm4.8-.8c.3.4.5.8.4 1.3v2.3h-.4V562c0-.4-.1-.7-.3-1-.2-.2-.5-.4-.8-.3-.3 0-.7.1-.9.4-.2.3-.4.7-.3 1.1v2.2h-.5v-4h.5v.7c.1-.2.3-.4.5-.6.6-.4 1.4-.3 1.8.2zm1.8.6c.1-.3.4-.5.7-.7.3-.2.6-.3.9-.3.4 0 .8.1 1.2.4.3.2.5.6.6 1H77c-.1-.3-.2-.5-.4-.7-.2-.2-.5-.2-.8-.2-.2 0-.5.1-.7.2-.2.1-.4.3-.5.5-.1.3-.2.6-.2.9 0 .3.1.6.2.9.1.2.3.4.5.5.2.1.4.2.7.2.3 0 .6-.1.8-.2.2-.2.4-.4.4-.7h.5c-.1.4-.3.7-.6 1-.3.3-.7.4-1.2.4-.7 0-1.3-.4-1.6-1-.3-.8-.3-1.6 0-2.2zm5.2 2.8c-.3-.2-.5-.4-.7-.7-.2-.3-.3-.7-.2-1.1 0-.4.1-.7.3-1.1.2-.3.4-.5.7-.7.3-.2.6-.3 1-.3s.7.1 1 .3c.3.2.5.4.7.7.2.3.3.7.2 1.1 0 .4-.1.7-.2 1.1-.2.3-.4.5-.7.7-.3.2-.7.3-1 .2-.5.1-.8 0-1.1-.2zm1.6-.3c.2-.1.4-.3.5-.5.1-.3.2-.6.2-.9 0-.3-.1-.6-.2-.9-.1-.2-.3-.4-.5-.5-.4-.2-1-.2-1.4 0-.2.1-.4.3-.5.5-.1.3-.2.6-.2.9 0 .3.1.6.2.9.1.2.3.4.5.5.2.1.4.2.7.2.3 0 .5-.1.7-.2z"/><path class="st9" d="M225.8 561h-2.2v2.2h-.9V561h-2.2v-.8h2.2V558h.9v2.2h2.2v.8zm6.3 2.3c-.2.3-.4.6-.7.7-.3.2-.7.3-1.1.3v.8h-.6v-.8c-.6 0-1.1-.2-1.5-.6-.4-.3-.6-.8-.6-1.3h1c0 .3.1.5.3.7.2.2.5.4.8.4V561c-.4-.1-.7-.2-1.1-.4-.3-.1-.5-.3-.7-.6-.2-.3-.3-.6-.3-1 0-.5.2-1 .6-1.4.4-.4 1-.6 1.5-.6v-.8h.6v.8c.5 0 1 .2 1.4.5.4.3.6.8.6 1.3h-1c0-.2-.1-.5-.3-.7-.2-.2-.4-.3-.7-.4v2.5c.4.1.7.2 1.1.3.3.1.5.3.7.6.2.3.3.6.3 1-.1.6-.2.9-.3 1.2zm-3.3-3.5c.3.2.6.4.9.4v-2.3c-.3 0-.6.1-.9.3-.2.2-.3.5-.3.8 0 .4.1.6.3.8zm2.3 3.4c.2-.2.3-.5.3-.8 0-.3-.1-.6-.3-.8-.3-.2-.5-.4-.9-.4v2.4c.3 0 .6-.1.9-.4zm2.9-5.4v-.8h1.9v7.4h-.9v-6.5l-1-.1zm5.4 5.4c.3.2.6.3 1 .3.5 0 1-.2 1.2-.7.3-.7.4-1.5.4-2.2-.2.3-.4.6-.7.7-.3.2-.7.3-1.1.3-.4 0-.8-.1-1.2-.3-.4-.2-.6-.5-.8-.8-.2-.4-.3-.9-.3-1.3 0-.6.2-1.3.6-1.8.5-.5 1.1-.7 1.8-.7.8-.1 1.6.3 2 .9.4.9.6 1.8.6 2.8 0 .7-.1 1.4-.2 2.1-.1.5-.4.9-.8 1.3-.4.3-1 .5-1.5.4-.6 0-1.2-.2-1.6-.6-.4-.4-.6-.9-.7-1.4h.9c0 .5.2.8.4 1zm2.1-2.7c.3-.3.5-.7.4-1.2 0-.4-.1-.9-.4-1.2-.3-.3-.8-.5-1.2-.5-.4 0-.8.1-1.1.5-.6.7-.6 1.7 0 2.4.6.5 1.6.5 2.3 0zm4.6 2.7c.3.2.6.3 1 .3.5 0 1-.2 1.2-.7.3-.7.4-1.5.4-2.2-.2.3-.4.6-.7.7-.3.2-.7.3-1.1.3-.4 0-.8-.1-1.2-.3-.4-.2-.6-.5-.8-.8-.2-.4-.3-.9-.3-1.3 0-.6.2-1.3.6-1.8.5-.5 1.1-.7 1.8-.7.8-.1 1.6.3 2 .9.4.9.6 1.8.6 2.8 0 .7-.1 1.4-.2 2.1-.1.5-.4.9-.8 1.3-.4.3-1 .5-1.5.4-.6 0-1.2-.2-1.6-.6-.4-.4-.6-.9-.7-1.4h.9c0 .5.2.8.4 1zm2.1-2.7c.3-.3.5-.7.4-1.2 0-.4-.1-.9-.4-1.2-.3-.3-.8-.5-1.2-.5-.4 0-.8.1-1.1.5-.6.7-.6 1.7 0 2.4.7.5 1.7.5 2.3 0z"/><path class="st8" d="M114 67.5c.2.2.3.5.3.8 0 .2-.1.5-.2.7-.1.2-.3.4-.6.5-.3.1-.6.2-.9.2h-1.8v-5.1h1.7c.4 0 .8.1 1.2.4.3.2.4.6.4.9 0 .3-.1.6-.2.8-.2.2-.4.3-.7.4.3 0 .6.2.8.4zm-2.6-.7h1.2c.3 0 .6-.1.8-.2.2-.2.3-.4.3-.7 0-.3-.1-.5-.3-.7-.2-.2-.5-.3-.8-.2h-1.2v1.8zm2.1 2.2c.2-.2.3-.4.3-.7 0-.3-.1-.5-.3-.7-.2-.2-.6-.3-.9-.3h-1.2v2h1.2c.3 0 .6-.1.9-.3zm2-2.4c.1-.3.4-.5.7-.7.3-.2.7-.3 1-.2.4 0 .7.1 1 .3.3.2.5.4.6.7v-.9h.5v4h-.5v-.9c-.1.3-.3.5-.6.7-.3.2-.6.3-1 .3s-.7-.1-1-.2c-.3-.2-.5-.4-.7-.7-.4-.9-.4-1.7 0-2.4zm3 .2c-.1-.2-.3-.4-.5-.6-.2-.1-.5-.2-.8-.2-.3 0-.5.1-.8.2-.2.1-.4.3-.5.6-.1.3-.2.6-.2.9 0 .3.1.6.2.9.2.5.7.8 1.3.8.3 0 .5-.1.8-.2.2-.1.4-.3.5-.6.2-.6.2-1.2 0-1.8zm2.6-2.5v5.4h-.5v-5.4h.5zm1.4 2.3c.1-.3.4-.5.7-.7.3-.2.7-.3 1-.2.4 0 .7.1 1 .3.3.2.5.4.6.7v-.9h.5v4h-.5v-.9c-.1.3-.3.5-.6.7-.3.2-.6.3-1 .3s-.7-.1-1-.2c-.3-.2-.5-.4-.7-.7-.4-.9-.4-1.7 0-2.4zm3 .2c-.1-.2-.3-.4-.5-.6-.2-.1-.5-.2-.7-.2-.3 0-.5.1-.8.2-.2.1-.4.3-.5.6-.1.3-.2.6-.2.9 0 .3.1.6.2.9.1.2.3.4.5.6.2.1.5.2.8.2.3 0 .5-.1.7-.2.2-.1.4-.3.5-.6.2-.6.2-1.2 0-1.8zm5.1-.7c.3.3.5.8.4 1.3v2.3h-.5v-2.3c0-.4-.1-.7-.3-1-.2-.2-.6-.4-.9-.3-.3 0-.7.1-.9.4-.2.3-.4.7-.3 1.1v2.2h-.5v-4h.5v.7c.1-.2.3-.4.6-.6.2-.1.5-.2.8-.2.4-.1.8.1 1.1.4zm1.8.5c.2-.3.4-.5.7-.7.7-.4 1.6-.4 2.2.1.3.2.5.6.6 1h-.6c-.1-.3-.2-.5-.4-.7-.2-.2-.5-.3-.8-.2-.5 0-1 .3-1.2.7-.1.3-.2.6-.2.9 0 .3.1.6.2.9.1.2.3.4.5.5.5.3 1.1.2 1.6-.1.2-.2.4-.4.4-.7h.5c-.1.4-.3.8-.6 1-.3.3-.8.4-1.2.4-.3 0-.7-.1-1-.2-.3-.2-.5-.4-.7-.7-.3-.7-.3-1.5 0-2.2zm8.3 1.3h-3.3c0 .3.1.5.2.8.1.2.3.4.5.5.2.1.5.2.7.2.3 0 .6-.1.8-.2.2-.2.4-.4.4-.6h.5c-.1.4-.3.8-.6 1-.3.3-.8.4-1.2.4-.3 0-.7-.1-1-.2-.3-.2-.5-.4-.7-.7-.3-.7-.3-1.5 0-2.2.2-.3.4-.6.7-.7.3-.2.7-.2 1-.2.3 0 .7.1 1 .2.3.2.5.4.6.7.2.3.2.6.2.9.2-.1.2 0 .2.1zm-.7-1.2c-.1-.2-.3-.4-.5-.5-.2-.1-.5-.2-.7-.2-.4 0-.7.1-1 .4-.3.3-.4.6-.4 1h2.8c-.1-.2-.1-.5-.2-.7zm7-2.1v.4h-1.4v4.7h-.5V65h-1.4v-.4h3.3zm1.8 4.9c-.3-.2-.5-.4-.7-.7-.3-.7-.3-1.5 0-2.2.2-.3.4-.5.7-.7.3-.2.7-.3 1-.2.3 0 .7.1 1 .2.3.2.5.4.7.7.2.3.3.7.3 1.1 0 .4-.1.7-.3 1.1-.2.3-.4.6-.7.7-.3.2-.7.3-1 .2-.4 0-.7 0-1-.2zm1.7-.4c.2-.1.4-.3.5-.5.3-.6.3-1.2 0-1.8-.1-.2-.3-.4-.5-.5-.2-.1-.5-.2-.7-.2-.3 0-.5.1-.7.2-.2.1-.4.3-.5.5-.3.6-.3 1.2 0 1.8.1.2.3.4.5.5.2.1.5.2.7.2.2 0 .5-.1.7-.2zm3.1-3v2.5c0 .2 0 .4.1.5.1.1.3.2.5.1h.5v.4h-.5c-.3 0-.6-.1-.8-.3-.2-.2-.3-.5-.3-.8V66h-.6v-.4h.6v-1h.5v1h1.1v.4h-1.1zm2.1.5c.1-.3.4-.5.7-.7.3-.2.7-.3 1-.2.4 0 .7.1 1 .3.3.2.5.4.6.7v-.9h.5v4h-.5v-.9c-.1.3-.3.5-.6.7-.3.2-.6.3-1 .3-.3 0-.7-.1-1-.2-.3-.2-.5-.4-.7-.7-.3-.9-.3-1.7 0-2.4zm3 .2c-.1-.2-.3-.4-.5-.6-.2-.1-.5-.2-.7-.2-.3 0-.5.1-.8.2-.2.1-.4.3-.5.6-.1.3-.2.6-.2.9 0 .3.1.6.2.9.1.2.3.4.5.6.2.1.5.2.8.2.3 0 .5-.1.7-.2.2-.1.4-.3.5-.6.3-.6.3-1.2 0-1.8zm2.7-2.5v5.4h-.5v-5.4h.5z"/><path class="st3" d="M102.3 88.4c-.3.5-.8.9-1.3 1.2-.7.3-1.4.5-2.1.5v1.3h-1v-1.3c-1 0-1.9-.4-2.7-1-.7-.6-1.1-1.5-1.1-2.4H97c0 .6.4 1.1.9 1.2v-2.6c-.7-.2-1.3-.4-2-.6-.5-.2-1-.6-1.3-1-.4-.5-.6-1.2-.6-1.8 0-.9.4-1.8 1.1-2.3.8-.6 1.8-1 2.8-1v-1.3h1v1.3c1 0 1.9.4 2.7 1 .6.6 1 1.4 1.1 2.3h-2.9c0-.5-.3-1-.8-1.1v2.5c.7.2 1.3.4 2 .7.5.2.9.6 1.3 1 .4.5.6 1.2.6 1.8-.1.6-.3 1.1-.6 1.6zm-5.1-5.9c.2.2.4.4.7.5v-2.2c-.3 0-.5.2-.7.4-.4.3-.4.9 0 1.3zm2.5 5.1c.2-.2.3-.5.3-.8 0-.3-.1-.5-.3-.7-.2-.2-.5-.4-.8-.5V88c.3-.1.5-.2.8-.4zm8.9-6.7v-2.5h4.4V90h-2.8v-9.1h-1.6zm6.5 0v-2.5h4.4V90h-2.9v-9.1h-1.5zm10 6.6l-1.7 4.6h-1.7l.9-4.6h2.5zm2.2-.1c1-.9 1.9-1.6 2.5-2.1.6-.5 1.1-1.1 1.5-1.7.4-.5.6-1.1.6-1.8 0-.4-.1-.7-.3-1-.2-.3-.6-.4-.9-.4-.4 0-.8.1-1 .4-.2.4-.4.8-.3 1.3h-2.6c0-.8.2-1.6.6-2.3.3-.6.8-1.1 1.5-1.3.6-.3 1.3-.4 2-.4 1.1-.1 2.1.3 2.9 1 .7.7 1 1.6 1 2.5 0 1.2-.4 2.3-1.2 3.2-.9 1.1-1.9 2-3 2.9h4.3v2.2h-8v-2l.4-.5zm10.3-7.7c1.6-1.9 4.5-2.1 6.4-.5l.5.5c.8 1.3 1.1 2.8 1.1 4.3.1 1.5-.3 3-1.1 4.4-1.6 1.9-4.5 2.1-6.4.5l-.5-.5c-.8-1.3-1.1-2.8-1.1-4.4 0-1.5.3-3 1.1-4.3zm4.9 1.9c-.4-.8-1.4-1.1-2.2-.7-.3.2-.5.4-.7.7-.3.8-.4 1.6-.4 2.5 0 .6 0 1.2.1 1.8.1.4.2.8.5 1.2.3.3.7.5 1.2.4.4 0 .9-.1 1.2-.4.3-.3.5-.7.5-1.2.1-.6.1-1.2.1-1.8.1-.9 0-1.7-.3-2.5zm4.7-.7v-2.5h4.4V90h-2.9v-9.1h-1.5zm7.2 8.8c-.3-.3-.5-.7-.4-1.1 0-.4.2-.8.4-1.1.3-.3.7-.4 1.2-.4.4 0 .8.1 1.2.4.3.3.5.7.5 1.1 0 .4-.2.8-.5 1.1-.3.3-.7.4-1.2.4-.5.1-.9-.1-1.2-.4zm12.8-9h-5V83c.3-.3.6-.5.9-.6.4-.1.8-.2 1.2-.2.7 0 1.4.2 2 .5.5.4.9.8 1.2 1.4.2.6.4 1.2.4 1.9.1 1.1-.3 2.2-1.1 3-.8.8-1.9 1.2-3 1.1-.8 0-1.5-.1-2.2-.4-.6-.3-1.1-.7-1.5-1.2-.3-.5-.5-1.2-.6-1.8h2.7c.1.3.2.6.5.8.3.2.6.3 1 .3s.8-.1 1.1-.5c.3-.4.4-.8.4-1.3 0-.4-.1-.9-.4-1.2-.3-.3-.7-.5-1.1-.4-.3 0-.6.1-.9.3-.2.2-.4.4-.5.7h-2.6v-7h7.5v2.3zm7.1 7.2c.5 0 1-.3 1.2-.8.3-.8.4-1.6.4-2.4-.3.3-.6.6-1 .8-.4.2-.9.3-1.4.3-.6 0-1.3-.1-1.8-.4-.5-.3-1-.7-1.2-1.3-.3-.6-.5-1.3-.5-2s.2-1.4.5-2.1c.3-.6.8-1.1 1.4-1.4.7-.3 1.4-.5 2.1-.5 1.3-.1 2.5.4 3.3 1.5.7 1.3 1 2.8.9 4.3 0 1.2-.1 2.3-.4 3.4-.3 1.7-1.9 2.9-3.7 2.8-.7 0-1.4-.1-2.1-.5-.5-.3-1-.7-1.3-1.3-.3-.5-.5-1.1-.5-1.7h2.5c.1.8.8 1.4 1.6 1.3-.1 0 0 0 0 0zm.9-4.8c.3-.3.4-.7.4-1.1 0-.4-.1-.9-.4-1.2-.3-.3-.7-.4-1.1-.4-.4 0-.8.1-1.1.4-.3.3-.4.7-.4 1.2 0 .4.1.8.4 1.1.3.3.7.4 1.2.4.3.1.7-.1 1-.4zM31.4 366v-8.5h3.9c.4 0 .8.1 1.2.2.3.2.7.4.9.7.3.3.5.6.6 1 .1.3.2.7.2 1.1 0 .3 0 .6-.2 1-.1.3-.2.6-.4.8-.2.3-.4.5-.7.7l1.8 3.1h-2.6l-1.5-2.6h-1v2.6l-2.2-.1zm2.4-4.7h1.4c.1 0 .2 0 .3-.1.1-.1.2-.2.2-.3.1-.2.1-.3.1-.5s0-.3-.1-.5c-.1-.1-.1-.2-.2-.3-.1-.1-.2-.1-.3-.1h-1.4v1.8zm-2.5 101.1v-8.5h3.9c.4 0 .8.1 1.2.2.3.2.7.4.9.7.3.3.5.6.6 1 .1.3.2.7.2 1.1 0 .3 0 .6-.2 1-.1.3-.2.6-.4.8-.2.3-.4.5-.7.7l1.8 3.1H36l-1.5-2.6h-1v2.6l-2.2-.1zm2.4-4.6h1.4c.1 0 .2 0 .3-.1.1-.1.2-.2.2-.3.1-.2.1-.3.1-.5s0-.3-.1-.5c-.1-.1-.1-.2-.2-.3-.1-.1-.2-.1-.3-.1h-1.4v1.8zm-2.4 52.6v-8.5h3.9c.4 0 .8.1 1.2.3.3.2.7.4.9.7.3.3.5.6.6 1 .1.3.2.7.2 1.1 0 .3-.1.6-.2.9-.1.3-.2.6-.4.8-.2.3-.4.5-.7.7l1.8 3.1H36l-1.5-2.6h-1v2.6l-2.2-.1zm2.4-4.6h1.4c.1 0 .2 0 .3-.1.1-.1.2-.2.2-.3.1-.2.1-.3.1-.5s0-.3-.1-.5c-.1-.1-.1-.2-.2-.3-.1-.1-.2-.1-.3-.1h-1.4v1.8zm-2.2-91.9v-8.5h3.3c.8 0 1.6.2 2.4.6.6.4 1.1.9 1.4 1.5.7 1.4.7 3 0 4.4-.3.6-.9 1.1-1.5 1.5-.7.4-1.5.5-2.3.5h-3.3zm5.2-4.3c0-.4-.1-.8-.2-1.2-.3-.7-1-1.1-1.7-1h-.9v4.4h.9c.4 0 .7-.1 1-.3.3-.2.5-.5.7-.8.1-.3.2-.7.2-1.1zm-5.4 149V550h3.3c.8 0 1.6.2 2.4.6.6.4 1.1.9 1.4 1.5.7 1.4.7 3 0 4.4-.3.6-.9 1.1-1.5 1.5-.7.4-1.5.5-2.3.5h-3.3zm5.2-4.3c0-.4-.1-.8-.2-1.2-.3-.7-1-1.1-1.7-1h-.9v4.4h.9c.4 0 .7-.1 1-.3.3-.2.5-.5.7-.8.1-.3.2-.7.2-1.1z"/></svg>