<svg data-name="Ebene 1" xmlns="http://www.w3.org/2000/svg" viewBox="0 0 525.33 100.53"><path d="M71.86 99.17H46.05V59.94q0-5.16-2.37-7.49a7.64 7.64 0 00-5.5-2.32 10.39 10.39 0 00-4.62 1.22 15.68 15.68 0 00-4.49 3.41 17.32 17.32 0 00-3.26 5v39.4H0V28.67h23.23v10.66a23 23 0 016.52-6.45 30.17 30.17 0 019.1-4 45.5 45.5 0 0111.28-1.3q7.33 0 11.68 2.54a16.85 16.85 0 016.52 6.54 25.69 25.69 0 012.85 8.35 50.9 50.9 0 01.68 7.95zm11.82-24.11V28.67h25.81v40.39a11 11 0 002.11 7.14 7.07 7.07 0 005.78 2.6 16.76 16.76 0 004.05-.52 12 12 0 004.14-2.06 19.79 19.79 0 004.17-4.34V28.67h25.81v42.1q0 3.6 1.08 5a5.23 5.23 0 003.8 1.67v21.73c-2.27.46-4.3.8-6.12 1a38.15 38.15 0 01-4.75.34q-6.51 0-10.33-2.42a11.11 11.11 0 01-4.88-7.37l-.55-2.55a29 29 0 01-12 9.46 41.28 41.28 0 01-15.83 2.88q-10.73 0-16.51-6.56t-5.78-18.89zm122.67 25.47a44.43 44.43 0 01-16.77-2.94 35.4 35.4 0 01-12.3-8.08 34.91 34.91 0 01-7.61-11.7 37.86 37.86 0 012-31.73 34.57 34.57 0 0113.32-13.43q8.76-5.07 21.39-5.07 12.92 0 21.74 5.44a34.76 34.76 0 0113.18 14l-25.13 7.62a12.26 12.26 0 00-4.28-3.95 11.65 11.65 0 00-5.64-1.36 11.83 11.83 0 00-6.38 1.77 12.43 12.43 0 00-4.56 5 17.12 17.12 0 00-1.7 8 17.12 17.12 0 001.7 7.88 12.41 12.41 0 004.56 5.1 11.91 11.91 0 006.38 1.76 12.2 12.2 0 003.94-.61 11.89 11.89 0 003.33-1.84 12.16 12.16 0 002.65-2.85l25.13 7.61a33 33 0 01-7.81 10 37.68 37.68 0 01-11.68 6.86 44.07 44.07 0 01-15.46 2.52zM248.87 0h25.82v70.78a9.38 9.38 0 001.7 6 6 6 0 005 2.1 13.09 13.09 0 003.54-.54 16.07 16.07 0 003.5-1.46l3.26 19a47.26 47.26 0 01-10.39 3.4 53.33 53.33 0 01-10.94 1.22q-10.32 0-15.89-5.36t-5.6-15.26zm83.96 100.53a45.66 45.66 0 01-16.71-2.87 35.56 35.56 0 01-12.29-7.78 33.48 33.48 0 01-7.54-11.38 35.67 35.67 0 01-2.59-13.52 39.15 39.15 0 014.49-18.6 34.18 34.18 0 0113.18-13.61q8.69-5.15 21.46-5.14t21.47 5.08a34.31 34.31 0 0113.13 13.33 37.4 37.4 0 014.49 18.06c0 1.34-.08 2.7-.21 4.08s-.3 2.61-.47 3.69h-50.1a10.39 10.39 0 002.11 5.87 10.57 10.57 0 004.62 3.28 16.19 16.19 0 005.77 1 17.38 17.38 0 008-1.9 9.56 9.56 0 005-5.31l21.79 6.3a32 32 0 01-7.94 10 38.9 38.9 0 01-12 6.86 45.74 45.74 0 01-15.66 2.56zM320.6 56.38h23.64a12.53 12.53 0 00-2-5.61 10.66 10.66 0 00-4.07-3.58 13.77 13.77 0 00-11.55 0 10.69 10.69 0 00-4.08 3.58 12.53 12.53 0 00-1.94 5.61zm59.1 18.68V28.67h25.81v40.39a11 11 0 002.11 7.14 7 7 0 005.77 2.6 16.78 16.78 0 004.04-.52 12 12 0 004.14-2.06 19.76 19.76 0 004.18-4.34V28.67h25.81v42.1c0 2.4.37 4.07 1.09 5a5.23 5.23 0 003.78 1.67v21.73c-2.27.46-4.3.8-6.12 1a38.15 38.15 0 01-4.75.34q-6.53 0-10.33-2.42a11.08 11.08 0 01-4.88-7.37l-.55-2.55a29 29 0 01-12 9.46 41.19 41.19 0 01-15.82 2.88q-10.73 0-16.51-6.56t-5.77-18.89zm116.01 25.47a56.73 56.73 0 01-18.4-3.06 41.45 41.45 0 01-15.29-8.89l8.84-15.9a71.25 71.25 0 0012.83 6.79 30.68 30.68 0 0011.21 2.41 10 10 0 004.21-.66 2.25 2.25 0 001.36-2.2 2.51 2.51 0 00-.95-2 11 11 0 00-3.06-1.6q-2.1-.8-5.36-1.74-8.43-2.93-14.06-5.46a21.3 21.3 0 01-8.43-6.2c-1.86-2.44-2.78-5.72-2.78-9.81a22.47 22.47 0 013.67-12.73 24.77 24.77 0 0110.53-8.7 38.82 38.82 0 0116.5-3.2A49.05 49.05 0 01511 29.82a39.56 39.56 0 0114.06 8.06l-9.78 15.77a68.37 68.37 0 00-11.48-6 23.83 23.83 0 00-8.37-1.77 10.25 10.25 0 00-3.05.4 4 4 0 00-2 1.19 3.17 3.17 0 00-.68 2.12 2.79 2.79 0 00.95 2.19 8.8 8.8 0 003 1.59c1.36.49 3.07 1 5.16 1.65a106 106 0 0115.08 5.37 21.77 21.77 0 018.63 6.56c1.91 2.6 2.81 5.93 2.81 10.12q0 11-7.95 17.23t-21.67 6.23z" fill="#fff"/></svg>