<svg xmlns="http://www.w3.org/2000/svg" xmlns:xlink="http://www.w3.org/1999/xlink" viewBox="0 0 569.46 499.94"><defs><linearGradient id="b" x1="593.85" y1="204.96" x2="979.73" y2="204.96" gradientTransform="matrix(-1 0 0 1 999.89 0)" gradientUnits="userSpaceOnUse"><stop offset="0" stop-color="#3f51b5"/><stop offset=".23" stop-color="#5049b4"/><stop offset=".69" stop-color="#7b36b2"/><stop offset="1" stop-color="#9c27b0"/></linearGradient><linearGradient id="a" x1="136.26" y1="133.34" x2="333.52" y2="133.34" gradientUnits="userSpaceOnUse"><stop offset="0" stop-opacity="0"/><stop offset="1"/></linearGradient><linearGradient id="c" x1="0" y1="310.23" x2="202.03" y2="310.23" xlink:href="#a"/><linearGradient id="d" x1="273.22" y1="314.54" x2="385.88" y2="314.54" gradientUnits="userSpaceOnUse"><stop offset="0" stop-color="#fff"/><stop offset=".1" stop-color="#fff" stop-opacity=".93"/><stop offset=".31" stop-color="#fff" stop-opacity=".74"/><stop offset=".61" stop-color="#fff" stop-opacity=".44"/><stop offset=".98" stop-color="#fff" stop-opacity=".03"/><stop offset="1" stop-color="#fff" stop-opacity="0"/></linearGradient><linearGradient id="e" x1="340.2" y1="146.94" x2="569.46" y2="146.94" xlink:href="#b"/><linearGradient id="f" x1="340.2" y1="76.12" x2="569.46" y2="76.12" xlink:href="#a"/><linearGradient id="g" x1="428.32" y1="293.89" x2="428.32" y2="101.1" gradientUnits="userSpaceOnUse"><stop offset="0" stop-color="#fff" stop-opacity="0"/><stop offset=".02" stop-color="#fff" stop-opacity=".03"/><stop offset=".39" stop-color="#fff" stop-opacity=".44"/><stop offset=".69" stop-color="#fff" stop-opacity=".74"/><stop offset=".9" stop-color="#fff" stop-opacity=".93"/><stop offset="1" stop-color="#fff"/></linearGradient></defs><g data-name="Ebene 1"><path d="M71.84 498.58H46.05v-39.24c0-3.44-.79-5.94-2.37-7.48a7.65 7.65 0 00-5.5-2.33 10.39 10.39 0 00-4.62 1.22 15.76 15.76 0 00-4.49 3.42 17.14 17.14 0 00-3.26 5v39.41H0v-70.51h23.23v10.66a23.13 23.13 0 016.52-6.48 30.16 30.16 0 019.1-3.93 45 45 0 0111.28-1.34q7.33 0 11.68 2.54a16.81 16.81 0 016.52 6.55 25.64 25.64 0 012.85 8.34 50.9 50.9 0 01.68 7.95zm11.84-24.12v-46.39h25.81v40.39a11 11 0 002.11 7.14 7 7 0 005.77 2.6 16.78 16.78 0 004.08-.52 12 12 0 004.14-2.06 19.5 19.5 0 004.15-4.37v-43.18h25.8v42.1c0 2.4.37 4.07 1.09 5a5.23 5.23 0 003.81 1.7v21.74c-2.27.45-4.3.79-6.12 1a36.5 36.5 0 01-4.75.35q-6.53 0-10.33-2.42a11.13 11.13 0 01-4.88-7.38l-.55-2.54a28.9 28.9 0 01-12 9.45 41.28 41.28 0 01-15.83 2.89q-10.73 0-16.51-6.57t-5.79-18.93zm122.67 25.48a44.72 44.72 0 01-16.78-2.94 35.62 35.62 0 01-12.29-8.13 34.87 34.87 0 01-7.61-11.69 37.86 37.86 0 012-31.73 34.66 34.66 0 0113.32-13.44q8.76-5.07 21.39-5.07 12.92 0 21.74 5.44a34.82 34.82 0 0113.18 14L216.17 454a12.23 12.23 0 00-4.28-3.94 11.65 11.65 0 00-5.64-1.36 11.88 11.88 0 00-6.39 1.76 12.61 12.61 0 00-4.55 5 19.32 19.32 0 000 15.85 12.49 12.49 0 004.55 5.09 12 12 0 006.39 1.76 11.22 11.22 0 007.27-2.44 12.57 12.57 0 002.62-2.85l25.13 7.6a32.92 32.92 0 01-7.82 10.05 37.28 37.28 0 01-11.68 6.87 44 44 0 01-15.42 2.55zm42.49-100.53h25.82v70.78a9.41 9.41 0 001.69 6 6 6 0 005 2.1 12.71 12.71 0 003.54-.54 15.6 15.6 0 003.53-1.49l3.26 19a47.8 47.8 0 01-10.39 3.39 52.69 52.69 0 01-10.94 1.23q-10.33 0-15.9-5.37t-5.61-15.23zm84 100.53a45.66 45.66 0 01-16.71-2.88 35.56 35.56 0 01-12.3-7.83 33.73 33.73 0 01-7.55-11.36 35.93 35.93 0 01-2.58-13.52 39.16 39.16 0 014.49-18.61 34.28 34.28 0 0113.17-13.61q8.7-5.14 21.47-5.14t21.46 5.09a34.18 34.18 0 0113.18 13.37 37.44 37.44 0 014.49 18.07c0 1.34-.08 2.7-.21 4.08s-.3 2.61-.47 3.68h-50.14a10.36 10.36 0 002.11 5.87 10.49 10.49 0 004.62 3.28 16.19 16.19 0 005.77 1 17.38 17.38 0 007.95-1.9 9.56 9.56 0 005-5.31l21.87 6.26a31.87 31.87 0 01-7.95 10.05 38.56 38.56 0 01-12 6.87 45.74 45.74 0 01-15.67 2.54zm-12.23-44.16h23.63a12.53 12.53 0 00-2-5.61 10.74 10.74 0 00-4.07-3.58 13.77 13.77 0 00-11.55 0 10.7 10.7 0 00-4.08 3.58 12.53 12.53 0 00-1.94 5.61zm59.09 18.68v-46.39h25.81v40.39a11 11 0 002.11 7.14 7 7 0 005.77 2.6 16.78 16.78 0 004.08-.52 12 12 0 004.14-2.06 19.48 19.48 0 004.14-4.37v-43.18h25.81v42.1c0 2.4.37 4.07 1.09 5a5.23 5.23 0 003.81 1.67v21.74q-3.4.67-6.12 1a36.5 36.5 0 01-4.75.35q-6.53 0-10.33-2.42a11.14 11.14 0 01-4.89-7.38l-.54-2.54a28.87 28.87 0 01-12 9.45 41.19 41.19 0 01-15.82 2.89q-10.74 0-16.51-6.57t-5.8-18.9zm116.01 25.48a56.74 56.74 0 01-18.4-3.07 41.43 41.43 0 01-15.29-8.88l8.84-15.9a72.55 72.55 0 0012.83 6.78 30.82 30.82 0 0011.21 2.44 10.14 10.14 0 004.21-.65 2.27 2.27 0 001.36-2.2 2.5 2.5 0 00-1-2 10.83 10.83 0 00-3.06-1.61c-1.4-.53-3.19-1.1-5.36-1.73q-8.43-2.94-14.06-5.47a21.21 21.21 0 01-8.43-6.2q-2.79-3.66-2.79-9.8a22.51 22.51 0 013.68-12.74 24.75 24.75 0 0110.53-8.73 38.66 38.66 0 0116.5-3.21 49.05 49.05 0 0114.47 2.24 39.6 39.6 0 0114.06 8.09l-9.78 15.76a68.76 68.76 0 00-11.48-6 24.05 24.05 0 00-8.36-1.77 10.25 10.25 0 00-3.05.4 4 4 0 00-2 1.19 3.18 3.18 0 00-.68 2.13 2.79 2.79 0 001 2.18 9 9 0 003 1.6c1.35.48 3.07 1 5.16 1.64a104.63 104.63 0 0115.1 5.44 21.74 21.74 0 018.63 6.55q2.77 3.86 2.78 10.09 0 11-8 17.22t-21.62 6.21z" fill="#6034a6"/><path d="M406 387.8L213.57 22.13l-57.15 107.55 137 258.12zm-183.85 0L120.63 196.26 20.16 387.8z" transform="translate(-20.16 -22.13)" fill="url(#b)"/><path style="mix-blend-mode:overlay" fill="url(#a)" opacity=".77" d="M136.26 107.55l197.26 159.12L193.41 0l-57.15 107.55z"/><path style="mix-blend-mode:overlay" fill="url(#c)" opacity=".77" d="M202.03 365.67L58.16 254.79 0 365.67h202.03z"/><path style="mix-blend-mode:overlay" fill="url(#d)" opacity=".49" d="M273.22 365.67l58.58-102.25 54.08 102.25H273.22z"/><path fill="url(#e)" d="M420.06 0L340.2 152.24l75.11 141.65L569.46 0h-149.4z"/><path style="mix-blend-mode:overlay" fill="url(#f)" opacity=".77" d="M340.2 152.24L569.46 0h-149.4L340.2 152.24z"/><path style="mix-blend-mode:overlay" fill="url(#g)" opacity=".49" d="M340.2 152.24l176.23-51.14-101.12 192.79-75.11-141.65z"/></g></svg>